# Tiled2Unity generated file. Do not modify by hand.
# Wavefront file for 'eastJungle_mesh_0004.obj'

# Vertices (Count = 16)
v 0 -288 0
v -32 -288 0
v -32 -256 0
v 0 -256 0
v 0 -320 0
v -32 -320 0
v -32 -288 0
v 0 -288 0
v 0 -352 0
v -32 -352 0
v -32 -320 0
v 0 -320 0
v 0 -384 0
v -32 -384 0
v -32 -352 0
v 0 -352 0

# Texture cooridinates (Count = 4)
vt 0.90625 0.5
vt 0.9375 0.5
vt 0.9375 0.53125
vt 0.90625 0.53125

# Normal
vn 0 0 -1

# Mesh description
g eastJungle_mesh_0004

# Faces
f 1/1/1 2/2/1 3/3/1 4/4/1
f 5/1/1 6/2/1 7/3/1 8/4/1
f 9/1/1 10/2/1 11/3/1 12/4/1
f 13/1/1 14/2/1 15/3/1 16/4/1

