# Tiled2Unity generated file. Do not modify by hand.
# Wavefront file for 'eastJungle_mesh_0005.obj'

# Vertices (Count = 576)
v -32 -32 0
v -64 -32 0
v -64 0 0
v -32 0 0
v -64 -32 0
v -96 -32 0
v -96 0 0
v -64 0 0
v -96 -32 0
v -128 -32 0
v -128 0 0
v -96 0 0
v -416 -32 0
v -448 -32 0
v -448 0 0
v -416 0 0
v -448 -32 0
v -480 -32 0
v -480 0 0
v -448 0 0
v -480 -32 0
v -512 -32 0
v -512 0 0
v -480 0 0
v -704 -32 0
v -736 -32 0
v -736 0 0
v -704 0 0
v -736 -32 0
v -768 -32 0
v -768 0 0
v -736 0 0
v -768 -32 0
v -800 -32 0
v -800 0 0
v -768 0 0
v -32 -64 0
v -64 -64 0
v -64 -32 0
v -32 -32 0
v -64 -64 0
v -96 -64 0
v -96 -32 0
v -64 -32 0
v -96 -64 0
v -128 -64 0
v -128 -32 0
v -96 -32 0
v -224 -64 0
v -256 -64 0
v -256 -32 0
v -224 -32 0
v -256 -64 0
v -288 -64 0
v -288 -32 0
v -256 -32 0
v -288 -64 0
v -320 -64 0
v -320 -32 0
v -288 -32 0
v -416 -64 0
v -448 -64 0
v -448 -32 0
v -416 -32 0
v -448 -64 0
v -480 -64 0
v -480 -32 0
v -448 -32 0
v -480 -64 0
v -512 -64 0
v -512 -32 0
v -480 -32 0
v -704 -64 0
v -736 -64 0
v -736 -32 0
v -704 -32 0
v -736 -64 0
v -768 -64 0
v -768 -32 0
v -736 -32 0
v -768 -64 0
v -800 -64 0
v -800 -32 0
v -768 -32 0
v -32 -96 0
v -64 -96 0
v -64 -64 0
v -32 -64 0
v -64 -96 0
v -96 -96 0
v -96 -64 0
v -64 -64 0
v -96 -96 0
v -128 -96 0
v -128 -64 0
v -96 -64 0
v -224 -96 0
v -256 -96 0
v -256 -64 0
v -224 -64 0
v -256 -96 0
v -288 -96 0
v -288 -64 0
v -256 -64 0
v -288 -96 0
v -320 -96 0
v -320 -64 0
v -288 -64 0
v -416 -96 0
v -448 -96 0
v -448 -64 0
v -416 -64 0
v -448 -96 0
v -480 -96 0
v -480 -64 0
v -448 -64 0
v -480 -96 0
v -512 -96 0
v -512 -64 0
v -480 -64 0
v -704 -96 0
v -736 -96 0
v -736 -64 0
v -704 -64 0
v -736 -96 0
v -768 -96 0
v -768 -64 0
v -736 -64 0
v -768 -96 0
v -800 -96 0
v -800 -64 0
v -768 -64 0
v -224 -128 0
v -256 -128 0
v -256 -96 0
v -224 -96 0
v -256 -128 0
v -288 -128 0
v -288 -96 0
v -256 -96 0
v -288 -128 0
v -320 -128 0
v -320 -96 0
v -288 -96 0
v -512 -128 0
v -544 -128 0
v -544 -96 0
v -512 -96 0
v -544 -128 0
v -576 -128 0
v -576 -96 0
v -544 -96 0
v -576 -128 0
v -608 -128 0
v -608 -96 0
v -576 -96 0
v -832 -128 0
v -864 -128 0
v -864 -96 0
v -832 -96 0
v -864 -128 0
v -896 -128 0
v -896 -96 0
v -864 -96 0
v -896 -128 0
v -928 -128 0
v -928 -96 0
v -896 -96 0
v -512 -160 0
v -544 -160 0
v -544 -128 0
v -512 -128 0
v -544 -160 0
v -576 -160 0
v -576 -128 0
v -544 -128 0
v -576 -160 0
v -608 -160 0
v -608 -128 0
v -576 -128 0
v -832 -160 0
v -864 -160 0
v -864 -128 0
v -832 -128 0
v -864 -160 0
v -896 -160 0
v -896 -128 0
v -864 -128 0
v -896 -160 0
v -928 -160 0
v -928 -128 0
v -896 -128 0
v -512 -192 0
v -544 -192 0
v -544 -160 0
v -512 -160 0
v -544 -192 0
v -576 -192 0
v -576 -160 0
v -544 -160 0
v -576 -192 0
v -608 -192 0
v -608 -160 0
v -576 -160 0
v -832 -192 0
v -864 -192 0
v -864 -160 0
v -832 -160 0
v -864 -192 0
v -896 -192 0
v -896 -160 0
v -864 -160 0
v -896 -192 0
v -928 -192 0
v -928 -160 0
v -896 -160 0
v -256 -288 0
v -288 -288 0
v -288 -256 0
v -256 -256 0
v -288 -288 0
v -320 -288 0
v -320 -256 0
v -288 -256 0
v -320 -288 0
v -352 -288 0
v -352 -256 0
v -320 -256 0
v -256 -320 0
v -288 -320 0
v -288 -288 0
v -256 -288 0
v -288 -320 0
v -320 -320 0
v -320 -288 0
v -288 -288 0
v -320 -320 0
v -352 -320 0
v -352 -288 0
v -320 -288 0
v -256 -352 0
v -288 -352 0
v -288 -320 0
v -256 -320 0
v -288 -352 0
v -320 -352 0
v -320 -320 0
v -288 -320 0
v -320 -352 0
v -352 -352 0
v -352 -320 0
v -320 -320 0
v -448 -352 0
v -480 -352 0
v -480 -320 0
v -448 -320 0
v -480 -352 0
v -512 -352 0
v -512 -320 0
v -480 -320 0
v -512 -352 0
v -544 -352 0
v -544 -320 0
v -512 -320 0
v -448 -384 0
v -480 -384 0
v -480 -352 0
v -448 -352 0
v -480 -384 0
v -512 -384 0
v -512 -352 0
v -480 -352 0
v -512 -384 0
v -544 -384 0
v -544 -352 0
v -512 -352 0
v -448 -416 0
v -480 -416 0
v -480 -384 0
v -448 -384 0
v -480 -416 0
v -512 -416 0
v -512 -384 0
v -480 -384 0
v -512 -416 0
v -544 -416 0
v -544 -384 0
v -512 -384 0
v -640 -448 0
v -672 -448 0
v -672 -416 0
v -640 -416 0
v -672 -448 0
v -704 -448 0
v -704 -416 0
v -672 -416 0
v -704 -448 0
v -736 -448 0
v -736 -416 0
v -704 -416 0
v -640 -480 0
v -672 -480 0
v -672 -448 0
v -640 -448 0
v -672 -480 0
v -704 -480 0
v -704 -448 0
v -672 -448 0
v -704 -480 0
v -736 -480 0
v -736 -448 0
v -704 -448 0
v 0 -512 0
v -32 -512 0
v -32 -480 0
v 0 -480 0
v -32 -512 0
v -64 -512 0
v -64 -480 0
v -32 -480 0
v -64 -512 0
v -96 -512 0
v -96 -480 0
v -64 -480 0
v -384 -512 0
v -416 -512 0
v -416 -480 0
v -384 -480 0
v -416 -512 0
v -448 -512 0
v -448 -480 0
v -416 -480 0
v -448 -512 0
v -480 -512 0
v -480 -480 0
v -448 -480 0
v -640 -512 0
v -672 -512 0
v -672 -480 0
v -640 -480 0
v -672 -512 0
v -704 -512 0
v -704 -480 0
v -672 -480 0
v -704 -512 0
v -736 -512 0
v -736 -480 0
v -704 -480 0
v 0 -544 0
v -32 -544 0
v -32 -512 0
v 0 -512 0
v -32 -544 0
v -64 -544 0
v -64 -512 0
v -32 -512 0
v -64 -544 0
v -96 -544 0
v -96 -512 0
v -64 -512 0
v -384 -544 0
v -416 -544 0
v -416 -512 0
v -384 -512 0
v -416 -544 0
v -448 -544 0
v -448 -512 0
v -416 -512 0
v -448 -544 0
v -480 -544 0
v -480 -512 0
v -448 -512 0
v 0 -576 0
v -32 -576 0
v -32 -544 0
v 0 -544 0
v -32 -576 0
v -64 -576 0
v -64 -544 0
v -32 -544 0
v -64 -576 0
v -96 -576 0
v -96 -544 0
v -64 -544 0
v -384 -576 0
v -416 -576 0
v -416 -544 0
v -384 -544 0
v -416 -576 0
v -448 -576 0
v -448 -544 0
v -416 -544 0
v -448 -576 0
v -480 -576 0
v -480 -544 0
v -448 -544 0
v -800 -576 0
v -832 -576 0
v -832 -544 0
v -800 -544 0
v -832 -576 0
v -864 -576 0
v -864 -544 0
v -832 -544 0
v -864 -576 0
v -896 -576 0
v -896 -544 0
v -864 -544 0
v -800 -608 0
v -832 -608 0
v -832 -576 0
v -800 -576 0
v -832 -608 0
v -864 -608 0
v -864 -576 0
v -832 -576 0
v -864 -608 0
v -896 -608 0
v -896 -576 0
v -864 -576 0
v -800 -640 0
v -832 -640 0
v -832 -608 0
v -800 -608 0
v -832 -640 0
v -864 -640 0
v -864 -608 0
v -832 -608 0
v -864 -640 0
v -896 -640 0
v -896 -608 0
v -864 -608 0
v -544 -672 0
v -576 -672 0
v -576 -640 0
v -544 -640 0
v -576 -672 0
v -608 -672 0
v -608 -640 0
v -576 -640 0
v -608 -672 0
v -640 -672 0
v -640 -640 0
v -608 -640 0
v -544 -704 0
v -576 -704 0
v -576 -672 0
v -544 -672 0
v -576 -704 0
v -608 -704 0
v -608 -672 0
v -576 -672 0
v -608 -704 0
v -640 -704 0
v -640 -672 0
v -608 -672 0
v -544 -736 0
v -576 -736 0
v -576 -704 0
v -544 -704 0
v -576 -736 0
v -608 -736 0
v -608 -704 0
v -576 -704 0
v -608 -736 0
v -640 -736 0
v -640 -704 0
v -608 -704 0
v -736 -736 0
v -768 -736 0
v -768 -704 0
v -736 -704 0
v -768 -736 0
v -800 -736 0
v -800 -704 0
v -768 -704 0
v -800 -736 0
v -832 -736 0
v -832 -704 0
v -800 -704 0
v -736 -768 0
v -768 -768 0
v -768 -736 0
v -736 -736 0
v -768 -768 0
v -800 -768 0
v -800 -736 0
v -768 -736 0
v -800 -768 0
v -832 -768 0
v -832 -736 0
v -800 -736 0
v -32 -800 0
v -64 -800 0
v -64 -768 0
v -32 -768 0
v -64 -800 0
v -96 -800 0
v -96 -768 0
v -64 -768 0
v -96 -800 0
v -128 -800 0
v -128 -768 0
v -96 -768 0
v -544 -800 0
v -576 -800 0
v -576 -768 0
v -544 -768 0
v -576 -800 0
v -608 -800 0
v -608 -768 0
v -576 -768 0
v -608 -800 0
v -640 -800 0
v -640 -768 0
v -608 -768 0
v -736 -800 0
v -768 -800 0
v -768 -768 0
v -736 -768 0
v -768 -800 0
v -800 -800 0
v -800 -768 0
v -768 -768 0
v -800 -800 0
v -832 -800 0
v -832 -768 0
v -800 -768 0
v -32 -832 0
v -64 -832 0
v -64 -800 0
v -32 -800 0
v -64 -832 0
v -96 -832 0
v -96 -800 0
v -64 -800 0
v -96 -832 0
v -128 -832 0
v -128 -800 0
v -96 -800 0
v -544 -832 0
v -576 -832 0
v -576 -800 0
v -544 -800 0
v -576 -832 0
v -608 -832 0
v -608 -800 0
v -576 -800 0
v -608 -832 0
v -640 -832 0
v -640 -800 0
v -608 -800 0
v -32 -864 0
v -64 -864 0
v -64 -832 0
v -32 -832 0
v -64 -864 0
v -96 -864 0
v -96 -832 0
v -64 -832 0
v -96 -864 0
v -128 -864 0
v -128 -832 0
v -96 -832 0
v -544 -864 0
v -576 -864 0
v -576 -832 0
v -544 -832 0
v -576 -864 0
v -608 -864 0
v -608 -832 0
v -576 -832 0
v -608 -864 0
v -640 -864 0
v -640 -832 0
v -608 -832 0

# Texture cooridinates (Count = 28)
vt 0.5 0.8571429
vt 0.6666667 0.8571429
vt 0.6666667 1
vt 0.5 1
vt 0.8333333 0.8571429
vt 0.8333333 1
vt 1 0.8571429
vt 1 1
vt 0 0.8571429
vt 0.1666667 0.8571429
vt 0.1666667 1
vt 0 1
vt 0.3333333 0.8571429
vt 0.3333333 1
vt 0.5 0.7142857
vt 0.6666667 0.7142857
vt 0.8333333 0.7142857
vt 1 0.7142857
vt 0 0.7142857
vt 0.1666667 0.7142857
vt 0.3333333 0.7142857
vt 0.5 0.5714285
vt 0.6666667 0.5714285
vt 0.8333333 0.5714285
vt 1 0.5714285
vt 0 0.5714285
vt 0.1666667 0.5714285
vt 0.3333333 0.5714285

# Normal
vn 0 0 -1

# Mesh description
g eastJungle_mesh_0005

# Faces
f 1/1/1 2/2/1 3/3/1 4/4/1
f 5/2/1 6/5/1 7/6/1 8/3/1
f 9/5/1 10/7/1 11/8/1 12/6/1
f 13/1/1 14/2/1 15/3/1 16/4/1
f 17/2/1 18/5/1 19/6/1 20/3/1
f 21/5/1 22/7/1 23/8/1 24/6/1
f 25/9/1 26/10/1 27/11/1 28/12/1
f 29/10/1 30/13/1 31/14/1 32/11/1
f 33/13/1 34/1/1 35/4/1 36/14/1
f 37/15/1 38/16/1 39/2/1 40/1/1
f 41/16/1 42/17/1 43/5/1 44/2/1
f 45/17/1 46/18/1 47/7/1 48/5/1
f 49/1/1 50/2/1 51/3/1 52/4/1
f 53/2/1 54/5/1 55/6/1 56/3/1
f 57/5/1 58/7/1 59/8/1 60/6/1
f 61/15/1 62/16/1 63/2/1 64/1/1
f 65/16/1 66/17/1 67/5/1 68/2/1
f 69/17/1 70/18/1 71/7/1 72/5/1
f 73/19/1 74/20/1 75/10/1 76/9/1
f 77/20/1 78/21/1 79/13/1 80/10/1
f 81/21/1 82/15/1 83/1/1 84/13/1
f 85/22/1 86/23/1 87/16/1 88/15/1
f 89/23/1 90/24/1 91/17/1 92/16/1
f 93/24/1 94/25/1 95/18/1 96/17/1
f 97/15/1 98/16/1 99/2/1 100/1/1
f 101/16/1 102/17/1 103/5/1 104/2/1
f 105/17/1 106/18/1 107/7/1 108/5/1
f 109/22/1 110/23/1 111/16/1 112/15/1
f 113/23/1 114/24/1 115/17/1 116/16/1
f 117/24/1 118/25/1 119/18/1 120/17/1
f 121/26/1 122/27/1 123/20/1 124/19/1
f 125/27/1 126/28/1 127/21/1 128/20/1
f 129/28/1 130/22/1 131/15/1 132/21/1
f 133/22/1 134/23/1 135/16/1 136/15/1
f 137/23/1 138/24/1 139/17/1 140/16/1
f 141/24/1 142/25/1 143/18/1 144/17/1
f 145/1/1 146/2/1 147/3/1 148/4/1
f 149/2/1 150/5/1 151/6/1 152/3/1
f 153/5/1 154/7/1 155/8/1 156/6/1
f 157/9/1 158/10/1 159/11/1 160/12/1
f 161/10/1 162/13/1 163/14/1 164/11/1
f 165/13/1 166/1/1 167/4/1 168/14/1
f 169/15/1 170/16/1 171/2/1 172/1/1
f 173/16/1 174/17/1 175/5/1 176/2/1
f 177/17/1 178/18/1 179/7/1 180/5/1
f 181/19/1 182/20/1 183/10/1 184/9/1
f 185/20/1 186/21/1 187/13/1 188/10/1
f 189/21/1 190/15/1 191/1/1 192/13/1
f 193/22/1 194/23/1 195/16/1 196/15/1
f 197/23/1 198/24/1 199/17/1 200/16/1
f 201/24/1 202/25/1 203/18/1 204/17/1
f 205/26/1 206/27/1 207/20/1 208/19/1
f 209/27/1 210/28/1 211/21/1 212/20/1
f 213/28/1 214/22/1 215/15/1 216/21/1
f 217/1/1 218/2/1 219/3/1 220/4/1
f 221/2/1 222/5/1 223/6/1 224/3/1
f 225/5/1 226/7/1 227/8/1 228/6/1
f 229/15/1 230/16/1 231/2/1 232/1/1
f 233/16/1 234/17/1 235/5/1 236/2/1
f 237/17/1 238/18/1 239/7/1 240/5/1
f 241/22/1 242/23/1 243/16/1 244/15/1
f 245/23/1 246/24/1 247/17/1 248/16/1
f 249/24/1 250/25/1 251/18/1 252/17/1
f 253/1/1 254/2/1 255/3/1 256/4/1
f 257/2/1 258/5/1 259/6/1 260/3/1
f 261/5/1 262/7/1 263/8/1 264/6/1
f 265/15/1 266/16/1 267/2/1 268/1/1
f 269/16/1 270/17/1 271/5/1 272/2/1
f 273/17/1 274/18/1 275/7/1 276/5/1
f 277/22/1 278/23/1 279/16/1 280/15/1
f 281/23/1 282/24/1 283/17/1 284/16/1
f 285/24/1 286/25/1 287/18/1 288/17/1
f 289/9/1 290/10/1 291/11/1 292/12/1
f 293/10/1 294/13/1 295/14/1 296/11/1
f 297/13/1 298/1/1 299/4/1 300/14/1
f 301/19/1 302/20/1 303/10/1 304/9/1
f 305/20/1 306/21/1 307/13/1 308/10/1
f 309/21/1 310/15/1 311/1/1 312/13/1
f 313/1/1 314/2/1 315/3/1 316/4/1
f 317/2/1 318/5/1 319/6/1 320/3/1
f 321/5/1 322/7/1 323/8/1 324/6/1
f 325/1/1 326/2/1 327/3/1 328/4/1
f 329/2/1 330/5/1 331/6/1 332/3/1
f 333/5/1 334/7/1 335/8/1 336/6/1
f 337/26/1 338/27/1 339/20/1 340/19/1
f 341/27/1 342/28/1 343/21/1 344/20/1
f 345/28/1 346/22/1 347/15/1 348/21/1
f 349/15/1 350/16/1 351/2/1 352/1/1
f 353/16/1 354/17/1 355/5/1 356/2/1
f 357/17/1 358/18/1 359/7/1 360/5/1
f 361/15/1 362/16/1 363/2/1 364/1/1
f 365/16/1 366/17/1 367/5/1 368/2/1
f 369/17/1 370/18/1 371/7/1 372/5/1
f 373/22/1 374/23/1 375/16/1 376/15/1
f 377/23/1 378/24/1 379/17/1 380/16/1
f 381/24/1 382/25/1 383/18/1 384/17/1
f 385/22/1 386/23/1 387/16/1 388/15/1
f 389/23/1 390/24/1 391/17/1 392/16/1
f 393/24/1 394/25/1 395/18/1 396/17/1
f 397/9/1 398/10/1 399/11/1 400/12/1
f 401/10/1 402/13/1 403/14/1 404/11/1
f 405/13/1 406/1/1 407/4/1 408/14/1
f 409/19/1 410/20/1 411/10/1 412/9/1
f 413/20/1 414/21/1 415/13/1 416/10/1
f 417/21/1 418/15/1 419/1/1 420/13/1
f 421/26/1 422/27/1 423/20/1 424/19/1
f 425/27/1 426/28/1 427/21/1 428/20/1
f 429/28/1 430/22/1 431/15/1 432/21/1
f 433/9/1 434/10/1 435/11/1 436/12/1
f 437/10/1 438/13/1 439/14/1 440/11/1
f 441/13/1 442/1/1 443/4/1 444/14/1
f 445/19/1 446/20/1 447/10/1 448/9/1
f 449/20/1 450/21/1 451/13/1 452/10/1
f 453/21/1 454/15/1 455/1/1 456/13/1
f 457/26/1 458/27/1 459/20/1 460/19/1
f 461/27/1 462/28/1 463/21/1 464/20/1
f 465/28/1 466/22/1 467/15/1 468/21/1
f 469/9/1 470/10/1 471/11/1 472/12/1
f 473/10/1 474/13/1 475/14/1 476/11/1
f 477/13/1 478/1/1 479/4/1 480/14/1
f 481/19/1 482/20/1 483/10/1 484/9/1
f 485/20/1 486/21/1 487/13/1 488/10/1
f 489/21/1 490/15/1 491/1/1 492/13/1
f 493/9/1 494/10/1 495/11/1 496/12/1
f 497/10/1 498/13/1 499/14/1 500/11/1
f 501/13/1 502/1/1 503/4/1 504/14/1
f 505/9/1 506/10/1 507/11/1 508/12/1
f 509/10/1 510/13/1 511/14/1 512/11/1
f 513/13/1 514/1/1 515/4/1 516/14/1
f 517/26/1 518/27/1 519/20/1 520/19/1
f 521/27/1 522/28/1 523/21/1 524/20/1
f 525/28/1 526/22/1 527/15/1 528/21/1
f 529/19/1 530/20/1 531/10/1 532/9/1
f 533/20/1 534/21/1 535/13/1 536/10/1
f 537/21/1 538/15/1 539/1/1 540/13/1
f 541/19/1 542/20/1 543/10/1 544/9/1
f 545/20/1 546/21/1 547/13/1 548/10/1
f 549/21/1 550/15/1 551/1/1 552/13/1
f 553/26/1 554/27/1 555/20/1 556/19/1
f 557/27/1 558/28/1 559/21/1 560/20/1
f 561/28/1 562/22/1 563/15/1 564/21/1
f 565/26/1 566/27/1 567/20/1 568/19/1
f 569/27/1 570/28/1 571/21/1 572/20/1
f 573/28/1 574/22/1 575/15/1 576/21/1

