# Tiled2Unity generated file. Do not modify by hand.
# Wavefront file for 'roommap_mesh_0002.obj'

# Vertices (Count = 496)
v 0 -32 0
v -32 -32 0
v -32 0 0
v 0 0 0
v -32 -32 0
v -64 -32 0
v -64 0 0
v -32 0 0
v -64 -32 0
v -96 -32 0
v -96 0 0
v -64 0 0
v -96 -32 0
v -128 -32 0
v -128 0 0
v -96 0 0
v -128 -32 0
v -160 -32 0
v -160 0 0
v -128 0 0
v -160 -32 0
v -192 -32 0
v -192 0 0
v -160 0 0
v -192 -32 0
v -224 -32 0
v -224 0 0
v -192 0 0
v -224 -32 0
v -256 -32 0
v -256 0 0
v -224 0 0
v -256 -32 0
v -288 -32 0
v -288 0 0
v -256 0 0
v -288 -32 0
v -320 -32 0
v -320 0 0
v -288 0 0
v -320 -32 0
v -352 -32 0
v -352 0 0
v -320 0 0
v -352 -32 0
v -384 -32 0
v -384 0 0
v -352 0 0
v 0 -64 0
v -32 -64 0
v -32 -32 0
v 0 -32 0
v -352 -64 0
v -384 -64 0
v -384 -32 0
v -352 -32 0
v 0 -96 0
v -32 -96 0
v -32 -64 0
v 0 -64 0
v -352 -96 0
v -384 -96 0
v -384 -64 0
v -352 -64 0
v 0 -128 0
v -32 -128 0
v -32 -96 0
v 0 -96 0
v -32 -128 0
v -64 -128 0
v -64 -96 0
v -32 -96 0
v -64 -128 0
v -96 -128 0
v -96 -96 0
v -64 -96 0
v -96 -128 0
v -128 -128 0
v -128 -96 0
v -96 -96 0
v -128 -128 0
v -160 -128 0
v -160 -96 0
v -128 -96 0
v -160 -128 0
v -192 -128 0
v -192 -96 0
v -160 -96 0
v -192 -128 0
v -224 -128 0
v -224 -96 0
v -192 -96 0
v -224 -128 0
v -256 -128 0
v -256 -96 0
v -224 -96 0
v -256 -128 0
v -288 -128 0
v -288 -96 0
v -256 -96 0
v -288 -128 0
v -320 -128 0
v -320 -96 0
v -288 -96 0
v -320 -128 0
v -352 -128 0
v -352 -96 0
v -320 -96 0
v -352 -128 0
v -384 -128 0
v -384 -96 0
v -352 -96 0
v 0 -160 0
v -32 -160 0
v -32 -128 0
v 0 -128 0
v -32 -160 0
v -64 -160 0
v -64 -128 0
v -32 -128 0
v -64 -160 0
v -96 -160 0
v -96 -128 0
v -64 -128 0
v -96 -160 0
v -128 -160 0
v -128 -128 0
v -96 -128 0
v -128 -160 0
v -160 -160 0
v -160 -128 0
v -128 -128 0
v -160 -160 0
v -192 -160 0
v -192 -128 0
v -160 -128 0
v -192 -160 0
v -224 -160 0
v -224 -128 0
v -192 -128 0
v -224 -160 0
v -256 -160 0
v -256 -128 0
v -224 -128 0
v -256 -160 0
v -288 -160 0
v -288 -128 0
v -256 -128 0
v -288 -160 0
v -320 -160 0
v -320 -128 0
v -288 -128 0
v -320 -160 0
v -352 -160 0
v -352 -128 0
v -320 -128 0
v -352 -160 0
v -384 -160 0
v -384 -128 0
v -352 -128 0
v 0 -192 0
v -32 -192 0
v -32 -160 0
v 0 -160 0
v -32 -192 0
v -64 -192 0
v -64 -160 0
v -32 -160 0
v -64 -192 0
v -96 -192 0
v -96 -160 0
v -64 -160 0
v -96 -192 0
v -128 -192 0
v -128 -160 0
v -96 -160 0
v -128 -192 0
v -160 -192 0
v -160 -160 0
v -128 -160 0
v -160 -192 0
v -192 -192 0
v -192 -160 0
v -160 -160 0
v -192 -192 0
v -224 -192 0
v -224 -160 0
v -192 -160 0
v -224 -192 0
v -256 -192 0
v -256 -160 0
v -224 -160 0
v -256 -192 0
v -288 -192 0
v -288 -160 0
v -256 -160 0
v -288 -192 0
v -320 -192 0
v -320 -160 0
v -288 -160 0
v -320 -192 0
v -352 -192 0
v -352 -160 0
v -320 -160 0
v -352 -192 0
v -384 -192 0
v -384 -160 0
v -352 -160 0
v 0 -224 0
v -32 -224 0
v -32 -192 0
v 0 -192 0
v -32 -224 0
v -64 -224 0
v -64 -192 0
v -32 -192 0
v -64 -224 0
v -96 -224 0
v -96 -192 0
v -64 -192 0
v -96 -224 0
v -128 -224 0
v -128 -192 0
v -96 -192 0
v -128 -224 0
v -160 -224 0
v -160 -192 0
v -128 -192 0
v -160 -224 0
v -192 -224 0
v -192 -192 0
v -160 -192 0
v -192 -224 0
v -224 -224 0
v -224 -192 0
v -192 -192 0
v -224 -224 0
v -256 -224 0
v -256 -192 0
v -224 -192 0
v -256 -224 0
v -288 -224 0
v -288 -192 0
v -256 -192 0
v -288 -224 0
v -320 -224 0
v -320 -192 0
v -288 -192 0
v -320 -224 0
v -352 -224 0
v -352 -192 0
v -320 -192 0
v -352 -224 0
v -384 -224 0
v -384 -192 0
v -352 -192 0
v 0 -256 0
v -32 -256 0
v -32 -224 0
v 0 -224 0
v -32 -256 0
v -64 -256 0
v -64 -224 0
v -32 -224 0
v -64 -256 0
v -96 -256 0
v -96 -224 0
v -64 -224 0
v -96 -256 0
v -128 -256 0
v -128 -224 0
v -96 -224 0
v -128 -256 0
v -160 -256 0
v -160 -224 0
v -128 -224 0
v -160 -256 0
v -192 -256 0
v -192 -224 0
v -160 -224 0
v -192 -256 0
v -224 -256 0
v -224 -224 0
v -192 -224 0
v -224 -256 0
v -256 -256 0
v -256 -224 0
v -224 -224 0
v -256 -256 0
v -288 -256 0
v -288 -224 0
v -256 -224 0
v -288 -256 0
v -320 -256 0
v -320 -224 0
v -288 -224 0
v -320 -256 0
v -352 -256 0
v -352 -224 0
v -320 -224 0
v -352 -256 0
v -384 -256 0
v -384 -224 0
v -352 -224 0
v 0 -288 0
v -32 -288 0
v -32 -256 0
v 0 -256 0
v -32 -288 0
v -64 -288 0
v -64 -256 0
v -32 -256 0
v -64 -288 0
v -96 -288 0
v -96 -256 0
v -64 -256 0
v -96 -288 0
v -128 -288 0
v -128 -256 0
v -96 -256 0
v -128 -288 0
v -160 -288 0
v -160 -256 0
v -128 -256 0
v -160 -288 0
v -192 -288 0
v -192 -256 0
v -160 -256 0
v -192 -288 0
v -224 -288 0
v -224 -256 0
v -192 -256 0
v -224 -288 0
v -256 -288 0
v -256 -256 0
v -224 -256 0
v -256 -288 0
v -288 -288 0
v -288 -256 0
v -256 -256 0
v -288 -288 0
v -320 -288 0
v -320 -256 0
v -288 -256 0
v -320 -288 0
v -352 -288 0
v -352 -256 0
v -320 -256 0
v -352 -288 0
v -384 -288 0
v -384 -256 0
v -352 -256 0
v 0 -320 0
v -32 -320 0
v -32 -288 0
v 0 -288 0
v -32 -320 0
v -64 -320 0
v -64 -288 0
v -32 -288 0
v -64 -320 0
v -96 -320 0
v -96 -288 0
v -64 -288 0
v -96 -320 0
v -128 -320 0
v -128 -288 0
v -96 -288 0
v -128 -320 0
v -160 -320 0
v -160 -288 0
v -128 -288 0
v -160 -320 0
v -192 -320 0
v -192 -288 0
v -160 -288 0
v -192 -320 0
v -224 -320 0
v -224 -288 0
v -192 -288 0
v -224 -320 0
v -256 -320 0
v -256 -288 0
v -224 -288 0
v -256 -320 0
v -288 -320 0
v -288 -288 0
v -256 -288 0
v -288 -320 0
v -320 -320 0
v -320 -288 0
v -288 -288 0
v -320 -320 0
v -352 -320 0
v -352 -288 0
v -320 -288 0
v -352 -320 0
v -384 -320 0
v -384 -288 0
v -352 -288 0
v 0 -352 0
v -32 -352 0
v -32 -320 0
v 0 -320 0
v -32 -352 0
v -64 -352 0
v -64 -320 0
v -32 -320 0
v -64 -352 0
v -96 -352 0
v -96 -320 0
v -64 -320 0
v -96 -352 0
v -128 -352 0
v -128 -320 0
v -96 -320 0
v -128 -352 0
v -160 -352 0
v -160 -320 0
v -128 -320 0
v -160 -352 0
v -192 -352 0
v -192 -320 0
v -160 -320 0
v -192 -352 0
v -224 -352 0
v -224 -320 0
v -192 -320 0
v -224 -352 0
v -256 -352 0
v -256 -320 0
v -224 -320 0
v -256 -352 0
v -288 -352 0
v -288 -320 0
v -256 -320 0
v -288 -352 0
v -320 -352 0
v -320 -320 0
v -288 -320 0
v -320 -352 0
v -352 -352 0
v -352 -320 0
v -320 -320 0
v -352 -352 0
v -384 -352 0
v -384 -320 0
v -352 -320 0
v 0 -384 0
v -32 -384 0
v -32 -352 0
v 0 -352 0
v -32 -384 0
v -64 -384 0
v -64 -352 0
v -32 -352 0
v -64 -384 0
v -96 -384 0
v -96 -352 0
v -64 -352 0
v -96 -384 0
v -128 -384 0
v -128 -352 0
v -96 -352 0
v -128 -384 0
v -160 -384 0
v -160 -352 0
v -128 -352 0
v -160 -384 0
v -192 -384 0
v -192 -352 0
v -160 -352 0
v -192 -384 0
v -224 -384 0
v -224 -352 0
v -192 -352 0
v -224 -384 0
v -256 -384 0
v -256 -352 0
v -224 -352 0
v -256 -384 0
v -288 -384 0
v -288 -352 0
v -256 -352 0
v -288 -384 0
v -320 -384 0
v -320 -352 0
v -288 -352 0
v -320 -384 0
v -352 -384 0
v -352 -352 0
v -320 -352 0
v -352 -384 0
v -384 -384 0
v -384 -352 0
v -352 -352 0

# Texture cooridinates (Count = 21)
vt 0.0625 0.8125
vt 0.125 0.8125
vt 0.125 0.875
vt 0.0625 0.875
vt 0.1875 0.8125
vt 0.25 0.8125
vt 0.25 0.875
vt 0.1875 0.875
vt 0 0.8125
vt 0 0.875
vt 0.3125 0.875
vt 0.3125 0.9375
vt 0.25 0.9375
vt 0.1875 0.9375
vt 0.125 0.9375
vt 0 0.75
vt 0.0625 0.75
vt 0.0625 0.9375
vt 0.25 1
vt 0.1875 1
vt 0 0.9375

# Normal
vn 0 0 -1

# Mesh description
g roommap_mesh_0002

# Faces
f 1/1/1 2/2/1 3/3/1 4/4/1
f 5/5/1 6/6/1 7/7/1 8/8/1
f 9/5/1 10/6/1 11/7/1 12/8/1
f 13/5/1 14/6/1 15/7/1 16/8/1
f 17/5/1 18/6/1 19/7/1 20/8/1
f 21/5/1 22/6/1 23/7/1 24/8/1
f 25/5/1 26/6/1 27/7/1 28/8/1
f 29/5/1 30/6/1 31/7/1 32/8/1
f 33/5/1 34/6/1 35/7/1 36/8/1
f 37/5/1 38/6/1 39/7/1 40/8/1
f 41/5/1 42/6/1 43/7/1 44/8/1
f 45/9/1 46/1/1 47/4/1 48/10/1
f 49/7/1 50/11/1 51/12/1 52/13/1
f 53/3/1 54/8/1 55/14/1 56/15/1
f 57/7/1 58/11/1 59/12/1 60/13/1
f 61/3/1 62/8/1 63/14/1 64/15/1
f 65/7/1 66/11/1 67/12/1 68/13/1
f 69/16/1 70/17/1 71/1/1 72/9/1
f 73/16/1 74/17/1 75/1/1 76/9/1
f 77/16/1 78/17/1 79/1/1 80/9/1
f 81/16/1 82/17/1 83/1/1 84/9/1
f 85/16/1 86/17/1 87/1/1 88/9/1
f 89/16/1 90/17/1 91/1/1 92/9/1
f 93/16/1 94/17/1 95/1/1 96/9/1
f 97/16/1 98/17/1 99/1/1 100/9/1
f 101/16/1 102/17/1 103/1/1 104/9/1
f 105/16/1 106/17/1 107/1/1 108/9/1
f 109/3/1 110/8/1 111/14/1 112/15/1
f 113/7/1 114/11/1 115/12/1 116/13/1
f 117/16/1 118/17/1 119/1/1 120/9/1
f 121/16/1 122/17/1 123/1/1 124/9/1
f 125/16/1 126/17/1 127/1/1 128/9/1
f 129/16/1 130/17/1 131/1/1 132/9/1
f 133/16/1 134/17/1 135/1/1 136/9/1
f 137/16/1 138/17/1 139/1/1 140/9/1
f 141/16/1 142/17/1 143/1/1 144/9/1
f 145/16/1 146/17/1 147/1/1 148/9/1
f 149/16/1 150/17/1 151/1/1 152/9/1
f 153/16/1 154/17/1 155/1/1 156/9/1
f 157/3/1 158/8/1 159/14/1 160/15/1
f 161/7/1 162/11/1 163/12/1 164/13/1
f 165/16/1 166/17/1 167/1/1 168/9/1
f 169/16/1 170/17/1 171/1/1 172/9/1
f 173/16/1 174/17/1 175/1/1 176/9/1
f 177/16/1 178/17/1 179/1/1 180/9/1
f 181/16/1 182/17/1 183/1/1 184/9/1
f 185/16/1 186/17/1 187/1/1 188/9/1
f 189/16/1 190/17/1 191/1/1 192/9/1
f 193/16/1 194/17/1 195/1/1 196/9/1
f 197/16/1 198/17/1 199/1/1 200/9/1
f 201/16/1 202/17/1 203/1/1 204/9/1
f 205/3/1 206/8/1 207/14/1 208/15/1
f 209/7/1 210/11/1 211/12/1 212/13/1
f 213/16/1 214/17/1 215/1/1 216/9/1
f 217/16/1 218/17/1 219/1/1 220/9/1
f 221/16/1 222/17/1 223/1/1 224/9/1
f 225/16/1 226/17/1 227/1/1 228/9/1
f 229/16/1 230/17/1 231/1/1 232/9/1
f 233/16/1 234/17/1 235/1/1 236/9/1
f 237/16/1 238/17/1 239/1/1 240/9/1
f 241/16/1 242/17/1 243/1/1 244/9/1
f 245/16/1 246/17/1 247/1/1 248/9/1
f 249/16/1 250/17/1 251/1/1 252/9/1
f 253/3/1 254/8/1 255/14/1 256/15/1
f 257/7/1 258/11/1 259/12/1 260/13/1
f 261/16/1 262/17/1 263/1/1 264/9/1
f 265/16/1 266/17/1 267/1/1 268/9/1
f 269/16/1 270/17/1 271/1/1 272/9/1
f 273/16/1 274/17/1 275/1/1 276/9/1
f 277/16/1 278/17/1 279/1/1 280/9/1
f 281/16/1 282/17/1 283/1/1 284/9/1
f 285/16/1 286/17/1 287/1/1 288/9/1
f 289/16/1 290/17/1 291/1/1 292/9/1
f 293/16/1 294/17/1 295/1/1 296/9/1
f 297/16/1 298/17/1 299/1/1 300/9/1
f 301/3/1 302/8/1 303/14/1 304/15/1
f 305/7/1 306/11/1 307/12/1 308/13/1
f 309/16/1 310/17/1 311/1/1 312/9/1
f 313/16/1 314/17/1 315/1/1 316/9/1
f 317/16/1 318/17/1 319/1/1 320/9/1
f 321/16/1 322/17/1 323/1/1 324/9/1
f 325/16/1 326/17/1 327/1/1 328/9/1
f 329/16/1 330/17/1 331/1/1 332/9/1
f 333/16/1 334/17/1 335/1/1 336/9/1
f 337/16/1 338/17/1 339/1/1 340/9/1
f 341/16/1 342/17/1 343/1/1 344/9/1
f 345/16/1 346/17/1 347/1/1 348/9/1
f 349/3/1 350/8/1 351/14/1 352/15/1
f 353/7/1 354/11/1 355/12/1 356/13/1
f 357/16/1 358/17/1 359/1/1 360/9/1
f 361/16/1 362/17/1 363/1/1 364/9/1
f 365/16/1 366/17/1 367/1/1 368/9/1
f 369/16/1 370/17/1 371/1/1 372/9/1
f 373/16/1 374/17/1 375/1/1 376/9/1
f 377/16/1 378/17/1 379/1/1 380/9/1
f 381/16/1 382/17/1 383/1/1 384/9/1
f 385/16/1 386/17/1 387/1/1 388/9/1
f 389/16/1 390/17/1 391/1/1 392/9/1
f 393/16/1 394/17/1 395/1/1 396/9/1
f 397/3/1 398/8/1 399/14/1 400/15/1
f 401/7/1 402/11/1 403/12/1 404/13/1
f 405/16/1 406/17/1 407/1/1 408/9/1
f 409/16/1 410/17/1 411/1/1 412/9/1
f 413/16/1 414/17/1 415/1/1 416/9/1
f 417/16/1 418/17/1 419/1/1 420/9/1
f 421/16/1 422/17/1 423/1/1 424/9/1
f 425/16/1 426/17/1 427/1/1 428/9/1
f 429/16/1 430/17/1 431/1/1 432/9/1
f 433/16/1 434/17/1 435/1/1 436/9/1
f 437/16/1 438/17/1 439/1/1 440/9/1
f 441/16/1 442/17/1 443/1/1 444/9/1
f 445/3/1 446/8/1 447/14/1 448/15/1
f 449/4/1 450/3/1 451/15/1 452/18/1
f 453/14/1 454/13/1 455/19/1 456/20/1
f 457/14/1 458/13/1 459/19/1 460/20/1
f 461/14/1 462/13/1 463/19/1 464/20/1
f 465/14/1 466/13/1 467/19/1 468/20/1
f 469/5/1 470/6/1 471/7/1 472/8/1
f 473/5/1 474/6/1 475/7/1 476/8/1
f 477/14/1 478/13/1 479/19/1 480/20/1
f 481/14/1 482/13/1 483/19/1 484/20/1
f 485/14/1 486/13/1 487/19/1 488/20/1
f 489/14/1 490/13/1 491/19/1 492/20/1
f 493/10/1 494/4/1 495/18/1 496/21/1

