# Tiled2Unity generated file. Do not modify by hand.
# Wavefront file for 'Obedroom_mesh_0001.obj'

# Vertices (Count = 576)
v 0 -32 0
v -32 -32 0
v -32 0 0
v 0 0 0
v -32 -32 0
v -64 -32 0
v -64 0 0
v -32 0 0
v -64 -32 0
v -96 -32 0
v -96 0 0
v -64 0 0
v -96 -32 0
v -128 -32 0
v -128 0 0
v -96 0 0
v -128 -32 0
v -160 -32 0
v -160 0 0
v -128 0 0
v -160 -32 0
v -192 -32 0
v -192 0 0
v -160 0 0
v -192 -32 0
v -224 -32 0
v -224 0 0
v -192 0 0
v -224 -32 0
v -256 -32 0
v -256 0 0
v -224 0 0
v -256 -32 0
v -288 -32 0
v -288 0 0
v -256 0 0
v -288 -32 0
v -320 -32 0
v -320 0 0
v -288 0 0
v -320 -32 0
v -352 -32 0
v -352 0 0
v -320 0 0
v -352 -32 0
v -384 -32 0
v -384 0 0
v -352 0 0
v 0 -64 0
v -32 -64 0
v -32 -32 0
v 0 -32 0
v -32 -64 0
v -64 -64 0
v -64 -32 0
v -32 -32 0
v -64 -64 0
v -96 -64 0
v -96 -32 0
v -64 -32 0
v -96 -64 0
v -128 -64 0
v -128 -32 0
v -96 -32 0
v -128 -64 0
v -160 -64 0
v -160 -32 0
v -128 -32 0
v -160 -64 0
v -192 -64 0
v -192 -32 0
v -160 -32 0
v -192 -64 0
v -224 -64 0
v -224 -32 0
v -192 -32 0
v -224 -64 0
v -256 -64 0
v -256 -32 0
v -224 -32 0
v -256 -64 0
v -288 -64 0
v -288 -32 0
v -256 -32 0
v -288 -64 0
v -320 -64 0
v -320 -32 0
v -288 -32 0
v -320 -64 0
v -352 -64 0
v -352 -32 0
v -320 -32 0
v -352 -64 0
v -384 -64 0
v -384 -32 0
v -352 -32 0
v 0 -96 0
v -32 -96 0
v -32 -64 0
v 0 -64 0
v -32 -96 0
v -64 -96 0
v -64 -64 0
v -32 -64 0
v -64 -96 0
v -96 -96 0
v -96 -64 0
v -64 -64 0
v -96 -96 0
v -128 -96 0
v -128 -64 0
v -96 -64 0
v -128 -96 0
v -160 -96 0
v -160 -64 0
v -128 -64 0
v -160 -96 0
v -192 -96 0
v -192 -64 0
v -160 -64 0
v -192 -96 0
v -224 -96 0
v -224 -64 0
v -192 -64 0
v -224 -96 0
v -256 -96 0
v -256 -64 0
v -224 -64 0
v -256 -96 0
v -288 -96 0
v -288 -64 0
v -256 -64 0
v -288 -96 0
v -320 -96 0
v -320 -64 0
v -288 -64 0
v -320 -96 0
v -352 -96 0
v -352 -64 0
v -320 -64 0
v -352 -96 0
v -384 -96 0
v -384 -64 0
v -352 -64 0
v 0 -128 0
v -32 -128 0
v -32 -96 0
v 0 -96 0
v -32 -128 0
v -64 -128 0
v -64 -96 0
v -32 -96 0
v -64 -128 0
v -96 -128 0
v -96 -96 0
v -64 -96 0
v -96 -128 0
v -128 -128 0
v -128 -96 0
v -96 -96 0
v -128 -128 0
v -160 -128 0
v -160 -96 0
v -128 -96 0
v -160 -128 0
v -192 -128 0
v -192 -96 0
v -160 -96 0
v -192 -128 0
v -224 -128 0
v -224 -96 0
v -192 -96 0
v -224 -128 0
v -256 -128 0
v -256 -96 0
v -224 -96 0
v -256 -128 0
v -288 -128 0
v -288 -96 0
v -256 -96 0
v -288 -128 0
v -320 -128 0
v -320 -96 0
v -288 -96 0
v -320 -128 0
v -352 -128 0
v -352 -96 0
v -320 -96 0
v -352 -128 0
v -384 -128 0
v -384 -96 0
v -352 -96 0
v 0 -160 0
v -32 -160 0
v -32 -128 0
v 0 -128 0
v -32 -160 0
v -64 -160 0
v -64 -128 0
v -32 -128 0
v -64 -160 0
v -96 -160 0
v -96 -128 0
v -64 -128 0
v -96 -160 0
v -128 -160 0
v -128 -128 0
v -96 -128 0
v -128 -160 0
v -160 -160 0
v -160 -128 0
v -128 -128 0
v -160 -160 0
v -192 -160 0
v -192 -128 0
v -160 -128 0
v -192 -160 0
v -224 -160 0
v -224 -128 0
v -192 -128 0
v -224 -160 0
v -256 -160 0
v -256 -128 0
v -224 -128 0
v -256 -160 0
v -288 -160 0
v -288 -128 0
v -256 -128 0
v -288 -160 0
v -320 -160 0
v -320 -128 0
v -288 -128 0
v -320 -160 0
v -352 -160 0
v -352 -128 0
v -320 -128 0
v -352 -160 0
v -384 -160 0
v -384 -128 0
v -352 -128 0
v 0 -192 0
v -32 -192 0
v -32 -160 0
v 0 -160 0
v -32 -192 0
v -64 -192 0
v -64 -160 0
v -32 -160 0
v -64 -192 0
v -96 -192 0
v -96 -160 0
v -64 -160 0
v -96 -192 0
v -128 -192 0
v -128 -160 0
v -96 -160 0
v -128 -192 0
v -160 -192 0
v -160 -160 0
v -128 -160 0
v -160 -192 0
v -192 -192 0
v -192 -160 0
v -160 -160 0
v -192 -192 0
v -224 -192 0
v -224 -160 0
v -192 -160 0
v -224 -192 0
v -256 -192 0
v -256 -160 0
v -224 -160 0
v -256 -192 0
v -288 -192 0
v -288 -160 0
v -256 -160 0
v -288 -192 0
v -320 -192 0
v -320 -160 0
v -288 -160 0
v -320 -192 0
v -352 -192 0
v -352 -160 0
v -320 -160 0
v -352 -192 0
v -384 -192 0
v -384 -160 0
v -352 -160 0
v 0 -224 0
v -32 -224 0
v -32 -192 0
v 0 -192 0
v -32 -224 0
v -64 -224 0
v -64 -192 0
v -32 -192 0
v -64 -224 0
v -96 -224 0
v -96 -192 0
v -64 -192 0
v -96 -224 0
v -128 -224 0
v -128 -192 0
v -96 -192 0
v -128 -224 0
v -160 -224 0
v -160 -192 0
v -128 -192 0
v -160 -224 0
v -192 -224 0
v -192 -192 0
v -160 -192 0
v -192 -224 0
v -224 -224 0
v -224 -192 0
v -192 -192 0
v -224 -224 0
v -256 -224 0
v -256 -192 0
v -224 -192 0
v -256 -224 0
v -288 -224 0
v -288 -192 0
v -256 -192 0
v -288 -224 0
v -320 -224 0
v -320 -192 0
v -288 -192 0
v -320 -224 0
v -352 -224 0
v -352 -192 0
v -320 -192 0
v -352 -224 0
v -384 -224 0
v -384 -192 0
v -352 -192 0
v 0 -256 0
v -32 -256 0
v -32 -224 0
v 0 -224 0
v -32 -256 0
v -64 -256 0
v -64 -224 0
v -32 -224 0
v -64 -256 0
v -96 -256 0
v -96 -224 0
v -64 -224 0
v -96 -256 0
v -128 -256 0
v -128 -224 0
v -96 -224 0
v -128 -256 0
v -160 -256 0
v -160 -224 0
v -128 -224 0
v -160 -256 0
v -192 -256 0
v -192 -224 0
v -160 -224 0
v -192 -256 0
v -224 -256 0
v -224 -224 0
v -192 -224 0
v -224 -256 0
v -256 -256 0
v -256 -224 0
v -224 -224 0
v -256 -256 0
v -288 -256 0
v -288 -224 0
v -256 -224 0
v -288 -256 0
v -320 -256 0
v -320 -224 0
v -288 -224 0
v -320 -256 0
v -352 -256 0
v -352 -224 0
v -320 -224 0
v -352 -256 0
v -384 -256 0
v -384 -224 0
v -352 -224 0
v 0 -288 0
v -32 -288 0
v -32 -256 0
v 0 -256 0
v -32 -288 0
v -64 -288 0
v -64 -256 0
v -32 -256 0
v -64 -288 0
v -96 -288 0
v -96 -256 0
v -64 -256 0
v -96 -288 0
v -128 -288 0
v -128 -256 0
v -96 -256 0
v -128 -288 0
v -160 -288 0
v -160 -256 0
v -128 -256 0
v -160 -288 0
v -192 -288 0
v -192 -256 0
v -160 -256 0
v -192 -288 0
v -224 -288 0
v -224 -256 0
v -192 -256 0
v -224 -288 0
v -256 -288 0
v -256 -256 0
v -224 -256 0
v -256 -288 0
v -288 -288 0
v -288 -256 0
v -256 -256 0
v -288 -288 0
v -320 -288 0
v -320 -256 0
v -288 -256 0
v -320 -288 0
v -352 -288 0
v -352 -256 0
v -320 -256 0
v -352 -288 0
v -384 -288 0
v -384 -256 0
v -352 -256 0
v 0 -320 0
v -32 -320 0
v -32 -288 0
v 0 -288 0
v -32 -320 0
v -64 -320 0
v -64 -288 0
v -32 -288 0
v -64 -320 0
v -96 -320 0
v -96 -288 0
v -64 -288 0
v -96 -320 0
v -128 -320 0
v -128 -288 0
v -96 -288 0
v -128 -320 0
v -160 -320 0
v -160 -288 0
v -128 -288 0
v -160 -320 0
v -192 -320 0
v -192 -288 0
v -160 -288 0
v -192 -320 0
v -224 -320 0
v -224 -288 0
v -192 -288 0
v -224 -320 0
v -256 -320 0
v -256 -288 0
v -224 -288 0
v -256 -320 0
v -288 -320 0
v -288 -288 0
v -256 -288 0
v -288 -320 0
v -320 -320 0
v -320 -288 0
v -288 -288 0
v -320 -320 0
v -352 -320 0
v -352 -288 0
v -320 -288 0
v -352 -320 0
v -384 -320 0
v -384 -288 0
v -352 -288 0
v 0 -352 0
v -32 -352 0
v -32 -320 0
v 0 -320 0
v -32 -352 0
v -64 -352 0
v -64 -320 0
v -32 -320 0
v -64 -352 0
v -96 -352 0
v -96 -320 0
v -64 -320 0
v -96 -352 0
v -128 -352 0
v -128 -320 0
v -96 -320 0
v -128 -352 0
v -160 -352 0
v -160 -320 0
v -128 -320 0
v -160 -352 0
v -192 -352 0
v -192 -320 0
v -160 -320 0
v -192 -352 0
v -224 -352 0
v -224 -320 0
v -192 -320 0
v -224 -352 0
v -256 -352 0
v -256 -320 0
v -224 -320 0
v -256 -352 0
v -288 -352 0
v -288 -320 0
v -256 -320 0
v -288 -352 0
v -320 -352 0
v -320 -320 0
v -288 -320 0
v -320 -352 0
v -352 -352 0
v -352 -320 0
v -320 -320 0
v -352 -352 0
v -384 -352 0
v -384 -320 0
v -352 -320 0
v 0 -384 0
v -32 -384 0
v -32 -352 0
v 0 -352 0
v -32 -384 0
v -64 -384 0
v -64 -352 0
v -32 -352 0
v -64 -384 0
v -96 -384 0
v -96 -352 0
v -64 -352 0
v -96 -384 0
v -128 -384 0
v -128 -352 0
v -96 -352 0
v -128 -384 0
v -160 -384 0
v -160 -352 0
v -128 -352 0
v -160 -384 0
v -192 -384 0
v -192 -352 0
v -160 -352 0
v -192 -384 0
v -224 -384 0
v -224 -352 0
v -192 -352 0
v -224 -384 0
v -256 -384 0
v -256 -352 0
v -224 -352 0
v -256 -384 0
v -288 -384 0
v -288 -352 0
v -256 -352 0
v -288 -384 0
v -320 -384 0
v -320 -352 0
v -288 -352 0
v -320 -384 0
v -352 -384 0
v -352 -352 0
v -320 -352 0
v -352 -384 0
v -384 -384 0
v -384 -352 0
v -352 -352 0

# Texture cooridinates (Count = 20)
vt 0.125 0.9375
vt 0.1875 0.9375
vt 0.1875 1
vt 0.125 1
vt 0.25 0.9375
vt 0.25 1
vt 0.3125 0.9375
vt 0.3125 1
vt 0.125 0.875
vt 0.1875 0.875
vt 0.25 0.875
vt 0.3125 0.875
vt 0 0.75
vt 0.0625 0.75
vt 0.0625 0.8125
vt 0 0.8125
vt 0.125 0.8125
vt 0.1875 0.8125
vt 0.25 0.8125
vt 0.3125 0.8125

# Normal
vn 0 0 -1

# Mesh description
g Obedroom_mesh_0001

# Faces
f 1/1/1 2/2/1 3/3/1 4/4/1
f 5/2/1 6/5/1 7/6/1 8/3/1
f 9/2/1 10/5/1 11/6/1 12/3/1
f 13/2/1 14/5/1 15/6/1 16/3/1
f 17/2/1 18/5/1 19/6/1 20/3/1
f 21/2/1 22/5/1 23/6/1 24/3/1
f 25/2/1 26/5/1 27/6/1 28/3/1
f 29/2/1 30/5/1 31/6/1 32/3/1
f 33/2/1 34/5/1 35/6/1 36/3/1
f 37/2/1 38/5/1 39/6/1 40/3/1
f 41/2/1 42/5/1 43/6/1 44/3/1
f 45/5/1 46/7/1 47/8/1 48/6/1
f 49/9/1 50/10/1 51/2/1 52/1/1
f 53/10/1 54/11/1 55/5/1 56/2/1
f 57/10/1 58/11/1 59/5/1 60/2/1
f 61/10/1 62/11/1 63/5/1 64/2/1
f 65/10/1 66/11/1 67/5/1 68/2/1
f 69/10/1 70/11/1 71/5/1 72/2/1
f 73/10/1 74/11/1 75/5/1 76/2/1
f 77/10/1 78/11/1 79/5/1 80/2/1
f 81/10/1 82/11/1 83/5/1 84/2/1
f 85/10/1 86/11/1 87/5/1 88/2/1
f 89/10/1 90/11/1 91/5/1 92/2/1
f 93/11/1 94/12/1 95/7/1 96/5/1
f 97/9/1 98/10/1 99/2/1 100/1/1
f 101/10/1 102/11/1 103/5/1 104/2/1
f 105/10/1 106/11/1 107/5/1 108/2/1
f 109/10/1 110/11/1 111/5/1 112/2/1
f 113/10/1 114/11/1 115/5/1 116/2/1
f 117/10/1 118/11/1 119/5/1 120/2/1
f 121/10/1 122/11/1 123/5/1 124/2/1
f 125/10/1 126/11/1 127/5/1 128/2/1
f 129/10/1 130/11/1 131/5/1 132/2/1
f 133/10/1 134/11/1 135/5/1 136/2/1
f 137/10/1 138/11/1 139/5/1 140/2/1
f 141/11/1 142/12/1 143/7/1 144/5/1
f 145/9/1 146/10/1 147/2/1 148/1/1
f 149/13/1 150/14/1 151/15/1 152/16/1
f 153/13/1 154/14/1 155/15/1 156/16/1
f 157/13/1 158/14/1 159/15/1 160/16/1
f 161/13/1 162/14/1 163/15/1 164/16/1
f 165/13/1 166/14/1 167/15/1 168/16/1
f 169/13/1 170/14/1 171/15/1 172/16/1
f 173/13/1 174/14/1 175/15/1 176/16/1
f 177/13/1 178/14/1 179/15/1 180/16/1
f 181/13/1 182/14/1 183/15/1 184/16/1
f 185/13/1 186/14/1 187/15/1 188/16/1
f 189/11/1 190/12/1 191/7/1 192/5/1
f 193/9/1 194/10/1 195/2/1 196/1/1
f 197/13/1 198/14/1 199/15/1 200/16/1
f 201/13/1 202/14/1 203/15/1 204/16/1
f 205/13/1 206/14/1 207/15/1 208/16/1
f 209/13/1 210/14/1 211/15/1 212/16/1
f 213/13/1 214/14/1 215/15/1 216/16/1
f 217/13/1 218/14/1 219/15/1 220/16/1
f 221/13/1 222/14/1 223/15/1 224/16/1
f 225/13/1 226/14/1 227/15/1 228/16/1
f 229/13/1 230/14/1 231/15/1 232/16/1
f 233/13/1 234/14/1 235/15/1 236/16/1
f 237/11/1 238/12/1 239/7/1 240/5/1
f 241/9/1 242/10/1 243/2/1 244/1/1
f 245/13/1 246/14/1 247/15/1 248/16/1
f 249/13/1 250/14/1 251/15/1 252/16/1
f 253/13/1 254/14/1 255/15/1 256/16/1
f 257/13/1 258/14/1 259/15/1 260/16/1
f 261/13/1 262/14/1 263/15/1 264/16/1
f 265/13/1 266/14/1 267/15/1 268/16/1
f 269/13/1 270/14/1 271/15/1 272/16/1
f 273/13/1 274/14/1 275/15/1 276/16/1
f 277/13/1 278/14/1 279/15/1 280/16/1
f 281/13/1 282/14/1 283/15/1 284/16/1
f 285/11/1 286/12/1 287/7/1 288/5/1
f 289/9/1 290/10/1 291/2/1 292/1/1
f 293/13/1 294/14/1 295/15/1 296/16/1
f 297/13/1 298/14/1 299/15/1 300/16/1
f 301/13/1 302/14/1 303/15/1 304/16/1
f 305/13/1 306/14/1 307/15/1 308/16/1
f 309/13/1 310/14/1 311/15/1 312/16/1
f 313/13/1 314/14/1 315/15/1 316/16/1
f 317/13/1 318/14/1 319/15/1 320/16/1
f 321/13/1 322/14/1 323/15/1 324/16/1
f 325/13/1 326/14/1 327/15/1 328/16/1
f 329/13/1 330/14/1 331/15/1 332/16/1
f 333/11/1 334/12/1 335/7/1 336/5/1
f 337/9/1 338/10/1 339/2/1 340/1/1
f 341/13/1 342/14/1 343/15/1 344/16/1
f 345/13/1 346/14/1 347/15/1 348/16/1
f 349/13/1 350/14/1 351/15/1 352/16/1
f 353/13/1 354/14/1 355/15/1 356/16/1
f 357/13/1 358/14/1 359/15/1 360/16/1
f 361/13/1 362/14/1 363/15/1 364/16/1
f 365/13/1 366/14/1 367/15/1 368/16/1
f 369/13/1 370/14/1 371/15/1 372/16/1
f 373/13/1 374/14/1 375/15/1 376/16/1
f 377/13/1 378/14/1 379/15/1 380/16/1
f 381/11/1 382/12/1 383/7/1 384/5/1
f 385/9/1 386/10/1 387/2/1 388/1/1
f 389/13/1 390/14/1 391/15/1 392/16/1
f 393/13/1 394/14/1 395/15/1 396/16/1
f 397/13/1 398/14/1 399/15/1 400/16/1
f 401/13/1 402/14/1 403/15/1 404/16/1
f 405/13/1 406/14/1 407/15/1 408/16/1
f 409/13/1 410/14/1 411/15/1 412/16/1
f 413/13/1 414/14/1 415/15/1 416/16/1
f 417/13/1 418/14/1 419/15/1 420/16/1
f 421/13/1 422/14/1 423/15/1 424/16/1
f 425/13/1 426/14/1 427/15/1 428/16/1
f 429/11/1 430/12/1 431/7/1 432/5/1
f 433/9/1 434/10/1 435/2/1 436/1/1
f 437/13/1 438/14/1 439/15/1 440/16/1
f 441/13/1 442/14/1 443/15/1 444/16/1
f 445/13/1 446/14/1 447/15/1 448/16/1
f 449/13/1 450/14/1 451/15/1 452/16/1
f 453/13/1 454/14/1 455/15/1 456/16/1
f 457/13/1 458/14/1 459/15/1 460/16/1
f 461/13/1 462/14/1 463/15/1 464/16/1
f 465/13/1 466/14/1 467/15/1 468/16/1
f 469/13/1 470/14/1 471/15/1 472/16/1
f 473/13/1 474/14/1 475/15/1 476/16/1
f 477/11/1 478/12/1 479/7/1 480/5/1
f 481/9/1 482/10/1 483/2/1 484/1/1
f 485/13/1 486/14/1 487/15/1 488/16/1
f 489/13/1 490/14/1 491/15/1 492/16/1
f 493/13/1 494/14/1 495/15/1 496/16/1
f 497/13/1 498/14/1 499/15/1 500/16/1
f 501/13/1 502/14/1 503/15/1 504/16/1
f 505/13/1 506/14/1 507/15/1 508/16/1
f 509/13/1 510/14/1 511/15/1 512/16/1
f 513/13/1 514/14/1 515/15/1 516/16/1
f 517/13/1 518/14/1 519/15/1 520/16/1
f 521/13/1 522/14/1 523/15/1 524/16/1
f 525/11/1 526/12/1 527/7/1 528/5/1
f 529/17/1 530/18/1 531/10/1 532/9/1
f 533/18/1 534/19/1 535/11/1 536/10/1
f 537/18/1 538/19/1 539/11/1 540/10/1
f 541/18/1 542/19/1 543/11/1 544/10/1
f 545/18/1 546/19/1 547/11/1 548/10/1
f 549/18/1 550/19/1 551/11/1 552/10/1
f 553/18/1 554/19/1 555/11/1 556/10/1
f 557/18/1 558/19/1 559/11/1 560/10/1
f 561/18/1 562/19/1 563/11/1 564/10/1
f 565/18/1 566/19/1 567/11/1 568/10/1
f 569/18/1 570/19/1 571/11/1 572/10/1
f 573/19/1 574/20/1 575/12/1 576/11/1

