# Tiled2Unity generated file. Do not modify by hand.
# Wavefront file for 'palawan_mesh_0007.obj'

# Vertices (Count = 756)
v 0 -192 0
v -32 -192 0
v -32 -160 0
v 0 -160 0
v -32 -192 0
v -64 -192 0
v -64 -160 0
v -32 -160 0
v -64 -192 0
v -96 -192 0
v -96 -160 0
v -64 -160 0
v 0 -224 0
v -32 -224 0
v -32 -192 0
v 0 -192 0
v -32 -224 0
v -64 -224 0
v -64 -192 0
v -32 -192 0
v -64 -224 0
v -96 -224 0
v -96 -192 0
v -64 -192 0
v 0 -256 0
v -32 -256 0
v -32 -224 0
v 0 -224 0
v -32 -256 0
v -64 -256 0
v -64 -224 0
v -32 -224 0
v -64 -256 0
v -96 -256 0
v -96 -224 0
v -64 -224 0
v -1472 -544 0
v -1504 -544 0
v -1504 -512 0
v -1472 -512 0
v -1504 -544 0
v -1536 -544 0
v -1536 -512 0
v -1504 -512 0
v -1536 -544 0
v -1568 -544 0
v -1568 -512 0
v -1536 -512 0
v -1472 -576 0
v -1504 -576 0
v -1504 -544 0
v -1472 -544 0
v -1504 -576 0
v -1536 -576 0
v -1536 -544 0
v -1504 -544 0
v -1536 -576 0
v -1568 -576 0
v -1568 -544 0
v -1536 -544 0
v -1472 -608 0
v -1504 -608 0
v -1504 -576 0
v -1472 -576 0
v -1504 -608 0
v -1536 -608 0
v -1536 -576 0
v -1504 -576 0
v -1536 -608 0
v -1568 -608 0
v -1568 -576 0
v -1536 -576 0
v 0 -704 0
v -32 -704 0
v -32 -672 0
v 0 -672 0
v -32 -704 0
v -64 -704 0
v -64 -672 0
v -32 -672 0
v -64 -704 0
v -96 -704 0
v -96 -672 0
v -64 -672 0
v -128 -704 0
v -160 -704 0
v -160 -672 0
v -128 -672 0
v -160 -704 0
v -192 -704 0
v -192 -672 0
v -160 -672 0
v -192 -704 0
v -224 -704 0
v -224 -672 0
v -192 -672 0
v -1504 -704 0
v -1536 -704 0
v -1536 -672 0
v -1504 -672 0
v -1536 -704 0
v -1568 -704 0
v -1568 -672 0
v -1536 -672 0
v -1568 -704 0
v -1600 -704 0
v -1600 -672 0
v -1568 -672 0
v 0 -736 0
v -32 -736 0
v -32 -704 0
v 0 -704 0
v -32 -736 0
v -64 -736 0
v -64 -704 0
v -32 -704 0
v -64 -736 0
v -96 -736 0
v -96 -704 0
v -64 -704 0
v -128 -736 0
v -160 -736 0
v -160 -704 0
v -128 -704 0
v -160 -736 0
v -192 -736 0
v -192 -704 0
v -160 -704 0
v -192 -736 0
v -224 -736 0
v -224 -704 0
v -192 -704 0
v -1504 -736 0
v -1536 -736 0
v -1536 -704 0
v -1504 -704 0
v -1536 -736 0
v -1568 -736 0
v -1568 -704 0
v -1536 -704 0
v -1568 -736 0
v -1600 -736 0
v -1600 -704 0
v -1568 -704 0
v 0 -768 0
v -32 -768 0
v -32 -736 0
v 0 -736 0
v -32 -768 0
v -64 -768 0
v -64 -736 0
v -32 -736 0
v -64 -768 0
v -96 -768 0
v -96 -736 0
v -64 -736 0
v -128 -768 0
v -160 -768 0
v -160 -736 0
v -128 -736 0
v -160 -768 0
v -192 -768 0
v -192 -736 0
v -160 -736 0
v -192 -768 0
v -224 -768 0
v -224 -736 0
v -192 -736 0
v -288 -768 0
v -320 -768 0
v -320 -736 0
v -288 -736 0
v -320 -768 0
v -352 -768 0
v -352 -736 0
v -320 -736 0
v -352 -768 0
v -384 -768 0
v -384 -736 0
v -352 -736 0
v -1504 -768 0
v -1536 -768 0
v -1536 -736 0
v -1504 -736 0
v -1536 -768 0
v -1568 -768 0
v -1568 -736 0
v -1536 -736 0
v -1568 -768 0
v -1600 -768 0
v -1600 -736 0
v -1568 -736 0
v -288 -800 0
v -320 -800 0
v -320 -768 0
v -288 -768 0
v -320 -800 0
v -352 -800 0
v -352 -768 0
v -320 -768 0
v -352 -800 0
v -384 -800 0
v -384 -768 0
v -352 -768 0
v -288 -832 0
v -320 -832 0
v -320 -800 0
v -288 -800 0
v -320 -832 0
v -352 -832 0
v -352 -800 0
v -320 -800 0
v -352 -832 0
v -384 -832 0
v -384 -800 0
v -352 -800 0
v 0 -864 0
v -32 -864 0
v -32 -832 0
v 0 -832 0
v -32 -864 0
v -64 -864 0
v -64 -832 0
v -32 -832 0
v -64 -864 0
v -96 -864 0
v -96 -832 0
v -64 -832 0
v -1344 -864 0
v -1376 -864 0
v -1376 -832 0
v -1344 -832 0
v -1376 -864 0
v -1408 -864 0
v -1408 -832 0
v -1376 -832 0
v -1408 -864 0
v -1440 -864 0
v -1440 -832 0
v -1408 -832 0
v 0 -896 0
v -32 -896 0
v -32 -864 0
v 0 -864 0
v -32 -896 0
v -64 -896 0
v -64 -864 0
v -32 -864 0
v -64 -896 0
v -96 -896 0
v -96 -864 0
v -64 -864 0
v -1344 -896 0
v -1376 -896 0
v -1376 -864 0
v -1344 -864 0
v -1376 -896 0
v -1408 -896 0
v -1408 -864 0
v -1376 -864 0
v -1408 -896 0
v -1440 -896 0
v -1440 -864 0
v -1408 -864 0
v 0 -928 0
v -32 -928 0
v -32 -896 0
v 0 -896 0
v -32 -928 0
v -64 -928 0
v -64 -896 0
v -32 -896 0
v -64 -928 0
v -96 -928 0
v -96 -896 0
v -64 -896 0
v -1184 -928 0
v -1216 -928 0
v -1216 -896 0
v -1184 -896 0
v -1216 -928 0
v -1248 -928 0
v -1248 -896 0
v -1216 -896 0
v -1248 -928 0
v -1280 -928 0
v -1280 -896 0
v -1248 -896 0
v -1344 -928 0
v -1376 -928 0
v -1376 -896 0
v -1344 -896 0
v -1376 -928 0
v -1408 -928 0
v -1408 -896 0
v -1376 -896 0
v -1408 -928 0
v -1440 -928 0
v -1440 -896 0
v -1408 -896 0
v -1184 -960 0
v -1216 -960 0
v -1216 -928 0
v -1184 -928 0
v -1216 -960 0
v -1248 -960 0
v -1248 -928 0
v -1216 -928 0
v -1248 -960 0
v -1280 -960 0
v -1280 -928 0
v -1248 -928 0
v -96 -992 0
v -128 -992 0
v -128 -960 0
v -96 -960 0
v -128 -992 0
v -160 -992 0
v -160 -960 0
v -128 -960 0
v -160 -992 0
v -192 -992 0
v -192 -960 0
v -160 -960 0
v -1184 -992 0
v -1216 -992 0
v -1216 -960 0
v -1184 -960 0
v -1216 -992 0
v -1248 -992 0
v -1248 -960 0
v -1216 -960 0
v -1248 -992 0
v -1280 -992 0
v -1280 -960 0
v -1248 -960 0
v -96 -1024 0
v -128 -1024 0
v -128 -992 0
v -96 -992 0
v -128 -1024 0
v -160 -1024 0
v -160 -992 0
v -128 -992 0
v -160 -1024 0
v -192 -1024 0
v -192 -992 0
v -160 -992 0
v -96 -1056 0
v -128 -1056 0
v -128 -1024 0
v -96 -1024 0
v -128 -1056 0
v -160 -1056 0
v -160 -1024 0
v -128 -1024 0
v -160 -1056 0
v -192 -1056 0
v -192 -1024 0
v -160 -1024 0
v -32 -1248 0
v -64 -1248 0
v -64 -1216 0
v -32 -1216 0
v -64 -1248 0
v -96 -1248 0
v -96 -1216 0
v -64 -1216 0
v -96 -1248 0
v -128 -1248 0
v -128 -1216 0
v -96 -1216 0
v -32 -1280 0
v -64 -1280 0
v -64 -1248 0
v -32 -1248 0
v -64 -1280 0
v -96 -1280 0
v -96 -1248 0
v -64 -1248 0
v -96 -1280 0
v -128 -1280 0
v -128 -1248 0
v -96 -1248 0
v -1344 -1280 0
v -1376 -1280 0
v -1376 -1248 0
v -1344 -1248 0
v -1376 -1280 0
v -1408 -1280 0
v -1408 -1248 0
v -1376 -1248 0
v -1408 -1280 0
v -1440 -1280 0
v -1440 -1248 0
v -1408 -1248 0
v -32 -1312 0
v -64 -1312 0
v -64 -1280 0
v -32 -1280 0
v -64 -1312 0
v -96 -1312 0
v -96 -1280 0
v -64 -1280 0
v -96 -1312 0
v -128 -1312 0
v -128 -1280 0
v -96 -1280 0
v -192 -1312 0
v -224 -1312 0
v -224 -1280 0
v -192 -1280 0
v -224 -1312 0
v -256 -1312 0
v -256 -1280 0
v -224 -1280 0
v -256 -1312 0
v -288 -1312 0
v -288 -1280 0
v -256 -1280 0
v -608 -1312 0
v -640 -1312 0
v -640 -1280 0
v -608 -1280 0
v -640 -1312 0
v -672 -1312 0
v -672 -1280 0
v -640 -1280 0
v -672 -1312 0
v -704 -1312 0
v -704 -1280 0
v -672 -1280 0
v -992 -1312 0
v -1024 -1312 0
v -1024 -1280 0
v -992 -1280 0
v -1024 -1312 0
v -1056 -1312 0
v -1056 -1280 0
v -1024 -1280 0
v -1056 -1312 0
v -1088 -1312 0
v -1088 -1280 0
v -1056 -1280 0
v -1344 -1312 0
v -1376 -1312 0
v -1376 -1280 0
v -1344 -1280 0
v -1376 -1312 0
v -1408 -1312 0
v -1408 -1280 0
v -1376 -1280 0
v -1408 -1312 0
v -1440 -1312 0
v -1440 -1280 0
v -1408 -1280 0
v -192 -1344 0
v -224 -1344 0
v -224 -1312 0
v -192 -1312 0
v -224 -1344 0
v -256 -1344 0
v -256 -1312 0
v -224 -1312 0
v -256 -1344 0
v -288 -1344 0
v -288 -1312 0
v -256 -1312 0
v -352 -1344 0
v -384 -1344 0
v -384 -1312 0
v -352 -1312 0
v -384 -1344 0
v -416 -1344 0
v -416 -1312 0
v -384 -1312 0
v -416 -1344 0
v -448 -1344 0
v -448 -1312 0
v -416 -1312 0
v -608 -1344 0
v -640 -1344 0
v -640 -1312 0
v -608 -1312 0
v -640 -1344 0
v -672 -1344 0
v -672 -1312 0
v -640 -1312 0
v -672 -1344 0
v -704 -1344 0
v -704 -1312 0
v -672 -1312 0
v -992 -1344 0
v -1024 -1344 0
v -1024 -1312 0
v -992 -1312 0
v -1024 -1344 0
v -1056 -1344 0
v -1056 -1312 0
v -1024 -1312 0
v -1056 -1344 0
v -1088 -1344 0
v -1088 -1312 0
v -1056 -1312 0
v -1184 -1344 0
v -1216 -1344 0
v -1216 -1312 0
v -1184 -1312 0
v -1216 -1344 0
v -1248 -1344 0
v -1248 -1312 0
v -1216 -1312 0
v -1248 -1344 0
v -1280 -1344 0
v -1280 -1312 0
v -1248 -1312 0
v -1344 -1344 0
v -1376 -1344 0
v -1376 -1312 0
v -1344 -1312 0
v -1376 -1344 0
v -1408 -1344 0
v -1408 -1312 0
v -1376 -1312 0
v -1408 -1344 0
v -1440 -1344 0
v -1440 -1312 0
v -1408 -1312 0
v -192 -1376 0
v -224 -1376 0
v -224 -1344 0
v -192 -1344 0
v -224 -1376 0
v -256 -1376 0
v -256 -1344 0
v -224 -1344 0
v -256 -1376 0
v -288 -1376 0
v -288 -1344 0
v -256 -1344 0
v -352 -1376 0
v -384 -1376 0
v -384 -1344 0
v -352 -1344 0
v -384 -1376 0
v -416 -1376 0
v -416 -1344 0
v -384 -1344 0
v -416 -1376 0
v -448 -1376 0
v -448 -1344 0
v -416 -1344 0
v -608 -1376 0
v -640 -1376 0
v -640 -1344 0
v -608 -1344 0
v -640 -1376 0
v -672 -1376 0
v -672 -1344 0
v -640 -1344 0
v -672 -1376 0
v -704 -1376 0
v -704 -1344 0
v -672 -1344 0
v -992 -1376 0
v -1024 -1376 0
v -1024 -1344 0
v -992 -1344 0
v -1024 -1376 0
v -1056 -1376 0
v -1056 -1344 0
v -1024 -1344 0
v -1056 -1376 0
v -1088 -1376 0
v -1088 -1344 0
v -1056 -1344 0
v -1184 -1376 0
v -1216 -1376 0
v -1216 -1344 0
v -1184 -1344 0
v -1216 -1376 0
v -1248 -1376 0
v -1248 -1344 0
v -1216 -1344 0
v -1248 -1376 0
v -1280 -1376 0
v -1280 -1344 0
v -1248 -1344 0
v -352 -1408 0
v -384 -1408 0
v -384 -1376 0
v -352 -1376 0
v -384 -1408 0
v -416 -1408 0
v -416 -1376 0
v -384 -1376 0
v -416 -1408 0
v -448 -1408 0
v -448 -1376 0
v -416 -1376 0
v -1184 -1408 0
v -1216 -1408 0
v -1216 -1376 0
v -1184 -1376 0
v -1216 -1408 0
v -1248 -1408 0
v -1248 -1376 0
v -1216 -1376 0
v -1248 -1408 0
v -1280 -1408 0
v -1280 -1376 0
v -1248 -1376 0
v -576 -1440 0
v -608 -1440 0
v -608 -1408 0
v -576 -1408 0
v -608 -1440 0
v -640 -1440 0
v -640 -1408 0
v -608 -1408 0
v -640 -1440 0
v -672 -1440 0
v -672 -1408 0
v -640 -1408 0
v -576 -1472 0
v -608 -1472 0
v -608 -1440 0
v -576 -1440 0
v -608 -1472 0
v -640 -1472 0
v -640 -1440 0
v -608 -1440 0
v -640 -1472 0
v -672 -1472 0
v -672 -1440 0
v -640 -1440 0
v -1056 -1472 0
v -1088 -1472 0
v -1088 -1440 0
v -1056 -1440 0
v -1088 -1472 0
v -1120 -1472 0
v -1120 -1440 0
v -1088 -1440 0
v -1120 -1472 0
v -1152 -1472 0
v -1152 -1440 0
v -1120 -1440 0
v -1280 -1472 0
v -1312 -1472 0
v -1312 -1440 0
v -1280 -1440 0
v -1312 -1472 0
v -1344 -1472 0
v -1344 -1440 0
v -1312 -1440 0
v -1344 -1472 0
v -1376 -1472 0
v -1376 -1440 0
v -1344 -1440 0
v -576 -1504 0
v -608 -1504 0
v -608 -1472 0
v -576 -1472 0
v -608 -1504 0
v -640 -1504 0
v -640 -1472 0
v -608 -1472 0
v -640 -1504 0
v -672 -1504 0
v -672 -1472 0
v -640 -1472 0
v -1056 -1504 0
v -1088 -1504 0
v -1088 -1472 0
v -1056 -1472 0
v -1088 -1504 0
v -1120 -1504 0
v -1120 -1472 0
v -1088 -1472 0
v -1120 -1504 0
v -1152 -1504 0
v -1152 -1472 0
v -1120 -1472 0
v -1280 -1504 0
v -1312 -1504 0
v -1312 -1472 0
v -1280 -1472 0
v -1312 -1504 0
v -1344 -1504 0
v -1344 -1472 0
v -1312 -1472 0
v -1344 -1504 0
v -1376 -1504 0
v -1376 -1472 0
v -1344 -1472 0
v -1408 -1504 0
v -1440 -1504 0
v -1440 -1472 0
v -1408 -1472 0
v -1440 -1504 0
v -1472 -1504 0
v -1472 -1472 0
v -1440 -1472 0
v -1472 -1504 0
v -1504 -1504 0
v -1504 -1472 0
v -1472 -1472 0
v -1056 -1536 0
v -1088 -1536 0
v -1088 -1504 0
v -1056 -1504 0
v -1088 -1536 0
v -1120 -1536 0
v -1120 -1504 0
v -1088 -1504 0
v -1120 -1536 0
v -1152 -1536 0
v -1152 -1504 0
v -1120 -1504 0
v -1280 -1536 0
v -1312 -1536 0
v -1312 -1504 0
v -1280 -1504 0
v -1312 -1536 0
v -1344 -1536 0
v -1344 -1504 0
v -1312 -1504 0
v -1344 -1536 0
v -1376 -1536 0
v -1376 -1504 0
v -1344 -1504 0
v -1408 -1536 0
v -1440 -1536 0
v -1440 -1504 0
v -1408 -1504 0
v -1440 -1536 0
v -1472 -1536 0
v -1472 -1504 0
v -1440 -1504 0
v -1472 -1536 0
v -1504 -1536 0
v -1504 -1504 0
v -1472 -1504 0
v -1408 -1568 0
v -1440 -1568 0
v -1440 -1536 0
v -1408 -1536 0
v -1440 -1568 0
v -1472 -1568 0
v -1472 -1536 0
v -1440 -1536 0
v -1472 -1568 0
v -1504 -1568 0
v -1504 -1536 0
v -1472 -1536 0

# Texture cooridinates (Count = 28)
vt 0 0.8571429
vt 0.1666667 0.8571429
vt 0.1666667 1
vt 0 1
vt 0.3333333 0.8571429
vt 0.3333333 1
vt 0.5 0.8571429
vt 0.5 1
vt 0 0.7142857
vt 0.1666667 0.7142857
vt 0.3333333 0.7142857
vt 0.5 0.7142857
vt 0 0.5714285
vt 0.1666667 0.5714285
vt 0.3333333 0.5714285
vt 0.5 0.5714285
vt 0 0.4285714
vt 0.1666667 0.4285714
vt 0.3333333 0.4285714
vt 0.5 0.4285714
vt 0 0.2857143
vt 0.1666667 0.2857143
vt 0.3333333 0.2857143
vt 0.5 0.2857143
vt 0 0.1428571
vt 0.1666667 0.1428571
vt 0.3333333 0.1428571
vt 0.5 0.1428571

# Normal
vn 0 0 -1

# Mesh description
g palawan_mesh_0007

# Faces
f 1/1/1 2/2/1 3/3/1 4/4/1
f 5/2/1 6/5/1 7/6/1 8/3/1
f 9/5/1 10/7/1 11/8/1 12/6/1
f 13/9/1 14/10/1 15/2/1 16/1/1
f 17/10/1 18/11/1 19/5/1 20/2/1
f 21/11/1 22/12/1 23/7/1 24/5/1
f 25/13/1 26/14/1 27/10/1 28/9/1
f 29/14/1 30/15/1 31/11/1 32/10/1
f 33/15/1 34/16/1 35/12/1 36/11/1
f 37/1/1 38/2/1 39/3/1 40/4/1
f 41/2/1 42/5/1 43/6/1 44/3/1
f 45/5/1 46/7/1 47/8/1 48/6/1
f 49/9/1 50/10/1 51/2/1 52/1/1
f 53/10/1 54/11/1 55/5/1 56/2/1
f 57/11/1 58/12/1 59/7/1 60/5/1
f 61/13/1 62/14/1 63/10/1 64/9/1
f 65/14/1 66/15/1 67/11/1 68/10/1
f 69/15/1 70/16/1 71/12/1 72/11/1
f 73/1/1 74/2/1 75/3/1 76/4/1
f 77/2/1 78/5/1 79/6/1 80/3/1
f 81/5/1 82/7/1 83/8/1 84/6/1
f 85/1/1 86/2/1 87/3/1 88/4/1
f 89/2/1 90/5/1 91/6/1 92/3/1
f 93/5/1 94/7/1 95/8/1 96/6/1
f 97/1/1 98/2/1 99/3/1 100/4/1
f 101/2/1 102/5/1 103/6/1 104/3/1
f 105/5/1 106/7/1 107/8/1 108/6/1
f 109/9/1 110/10/1 111/2/1 112/1/1
f 113/10/1 114/11/1 115/5/1 116/2/1
f 117/11/1 118/12/1 119/7/1 120/5/1
f 121/9/1 122/10/1 123/2/1 124/1/1
f 125/10/1 126/11/1 127/5/1 128/2/1
f 129/11/1 130/12/1 131/7/1 132/5/1
f 133/9/1 134/10/1 135/2/1 136/1/1
f 137/10/1 138/11/1 139/5/1 140/2/1
f 141/11/1 142/12/1 143/7/1 144/5/1
f 145/13/1 146/14/1 147/10/1 148/9/1
f 149/14/1 150/15/1 151/11/1 152/10/1
f 153/15/1 154/16/1 155/12/1 156/11/1
f 157/13/1 158/14/1 159/10/1 160/9/1
f 161/14/1 162/15/1 163/11/1 164/10/1
f 165/15/1 166/16/1 167/12/1 168/11/1
f 169/1/1 170/2/1 171/3/1 172/4/1
f 173/2/1 174/5/1 175/6/1 176/3/1
f 177/5/1 178/7/1 179/8/1 180/6/1
f 181/13/1 182/14/1 183/10/1 184/9/1
f 185/14/1 186/15/1 187/11/1 188/10/1
f 189/15/1 190/16/1 191/12/1 192/11/1
f 193/9/1 194/10/1 195/2/1 196/1/1
f 197/10/1 198/11/1 199/5/1 200/2/1
f 201/11/1 202/12/1 203/7/1 204/5/1
f 205/13/1 206/14/1 207/10/1 208/9/1
f 209/14/1 210/15/1 211/11/1 212/10/1
f 213/15/1 214/16/1 215/12/1 216/11/1
f 217/1/1 218/2/1 219/3/1 220/4/1
f 221/2/1 222/5/1 223/6/1 224/3/1
f 225/5/1 226/7/1 227/8/1 228/6/1
f 229/1/1 230/2/1 231/3/1 232/4/1
f 233/2/1 234/5/1 235/6/1 236/3/1
f 237/5/1 238/7/1 239/8/1 240/6/1
f 241/9/1 242/10/1 243/2/1 244/1/1
f 245/10/1 246/11/1 247/5/1 248/2/1
f 249/11/1 250/12/1 251/7/1 252/5/1
f 253/9/1 254/10/1 255/2/1 256/1/1
f 257/10/1 258/11/1 259/5/1 260/2/1
f 261/11/1 262/12/1 263/7/1 264/5/1
f 265/13/1 266/14/1 267/10/1 268/9/1
f 269/14/1 270/15/1 271/11/1 272/10/1
f 273/15/1 274/16/1 275/12/1 276/11/1
f 277/1/1 278/2/1 279/3/1 280/4/1
f 281/2/1 282/5/1 283/6/1 284/3/1
f 285/5/1 286/7/1 287/8/1 288/6/1
f 289/13/1 290/14/1 291/10/1 292/9/1
f 293/14/1 294/15/1 295/11/1 296/10/1
f 297/15/1 298/16/1 299/12/1 300/11/1
f 301/9/1 302/10/1 303/2/1 304/1/1
f 305/10/1 306/11/1 307/5/1 308/2/1
f 309/11/1 310/12/1 311/7/1 312/5/1
f 313/1/1 314/2/1 315/3/1 316/4/1
f 317/2/1 318/5/1 319/6/1 320/3/1
f 321/5/1 322/7/1 323/8/1 324/6/1
f 325/13/1 326/14/1 327/10/1 328/9/1
f 329/14/1 330/15/1 331/11/1 332/10/1
f 333/15/1 334/16/1 335/12/1 336/11/1
f 337/9/1 338/10/1 339/2/1 340/1/1
f 341/10/1 342/11/1 343/5/1 344/2/1
f 345/11/1 346/12/1 347/7/1 348/5/1
f 349/13/1 350/14/1 351/10/1 352/9/1
f 353/14/1 354/15/1 355/11/1 356/10/1
f 357/15/1 358/16/1 359/12/1 360/11/1
f 361/1/1 362/2/1 363/3/1 364/4/1
f 365/2/1 366/5/1 367/6/1 368/3/1
f 369/5/1 370/7/1 371/8/1 372/6/1
f 373/9/1 374/10/1 375/2/1 376/1/1
f 377/10/1 378/11/1 379/5/1 380/2/1
f 381/11/1 382/12/1 383/7/1 384/5/1
f 385/17/1 386/18/1 387/14/1 388/13/1
f 389/18/1 390/19/1 391/15/1 392/14/1
f 393/19/1 394/20/1 395/16/1 396/15/1
f 397/13/1 398/14/1 399/10/1 400/9/1
f 401/14/1 402/15/1 403/11/1 404/10/1
f 405/15/1 406/16/1 407/12/1 408/11/1
f 409/17/1 410/18/1 411/14/1 412/13/1
f 413/18/1 414/19/1 415/15/1 416/14/1
f 417/19/1 418/20/1 419/16/1 420/15/1
f 421/17/1 422/18/1 423/14/1 424/13/1
f 425/18/1 426/19/1 427/15/1 428/14/1
f 429/19/1 430/20/1 431/16/1 432/15/1
f 433/1/1 434/2/1 435/3/1 436/4/1
f 437/2/1 438/5/1 439/6/1 440/3/1
f 441/5/1 442/7/1 443/8/1 444/6/1
f 445/21/1 446/22/1 447/18/1 448/17/1
f 449/22/1 450/23/1 451/19/1 452/18/1
f 453/23/1 454/24/1 455/20/1 456/19/1
f 457/21/1 458/22/1 459/18/1 460/17/1
f 461/22/1 462/23/1 463/19/1 464/18/1
f 465/23/1 466/24/1 467/20/1 468/19/1
f 469/17/1 470/18/1 471/14/1 472/13/1
f 473/18/1 474/19/1 475/15/1 476/14/1
f 477/19/1 478/20/1 479/16/1 480/15/1
f 481/21/1 482/22/1 483/18/1 484/17/1
f 485/22/1 486/23/1 487/19/1 488/18/1
f 489/23/1 490/24/1 491/20/1 492/19/1
f 493/9/1 494/10/1 495/2/1 496/1/1
f 497/10/1 498/11/1 499/5/1 500/2/1
f 501/11/1 502/12/1 503/7/1 504/5/1
f 505/1/1 506/2/1 507/3/1 508/4/1
f 509/2/1 510/5/1 511/6/1 512/3/1
f 513/5/1 514/7/1 515/8/1 516/6/1
f 517/25/1 518/26/1 519/22/1 520/21/1
f 521/26/1 522/27/1 523/23/1 524/22/1
f 525/27/1 526/28/1 527/24/1 528/23/1
f 529/25/1 530/26/1 531/22/1 532/21/1
f 533/26/1 534/27/1 535/23/1 536/22/1
f 537/27/1 538/28/1 539/24/1 540/23/1
f 541/21/1 542/22/1 543/18/1 544/17/1
f 545/22/1 546/23/1 547/19/1 548/18/1
f 549/23/1 550/24/1 551/20/1 552/19/1
f 553/25/1 554/26/1 555/22/1 556/21/1
f 557/26/1 558/27/1 559/23/1 560/22/1
f 561/27/1 562/28/1 563/24/1 564/23/1
f 565/13/1 566/14/1 567/10/1 568/9/1
f 569/14/1 570/15/1 571/11/1 572/10/1
f 573/15/1 574/16/1 575/12/1 576/11/1
f 577/9/1 578/10/1 579/2/1 580/1/1
f 581/10/1 582/11/1 583/5/1 584/2/1
f 585/11/1 586/12/1 587/7/1 588/5/1
f 589/25/1 590/26/1 591/22/1 592/21/1
f 593/26/1 594/27/1 595/23/1 596/22/1
f 597/27/1 598/28/1 599/24/1 600/23/1
f 601/13/1 602/14/1 603/10/1 604/9/1
f 605/14/1 606/15/1 607/11/1 608/10/1
f 609/15/1 610/16/1 611/12/1 612/11/1
f 613/17/1 614/18/1 615/14/1 616/13/1
f 617/18/1 618/19/1 619/15/1 620/14/1
f 621/19/1 622/20/1 623/16/1 624/15/1
f 625/21/1 626/22/1 627/18/1 628/17/1
f 629/22/1 630/23/1 631/19/1 632/18/1
f 633/23/1 634/24/1 635/20/1 636/19/1
f 637/1/1 638/2/1 639/3/1 640/4/1
f 641/2/1 642/5/1 643/6/1 644/3/1
f 645/5/1 646/7/1 647/8/1 648/6/1
f 649/1/1 650/2/1 651/3/1 652/4/1
f 653/2/1 654/5/1 655/6/1 656/3/1
f 657/5/1 658/7/1 659/8/1 660/6/1
f 661/25/1 662/26/1 663/22/1 664/21/1
f 665/26/1 666/27/1 667/23/1 668/22/1
f 669/27/1 670/28/1 671/24/1 672/23/1
f 673/9/1 674/10/1 675/2/1 676/1/1
f 677/10/1 678/11/1 679/5/1 680/2/1
f 681/11/1 682/12/1 683/7/1 684/5/1
f 685/9/1 686/10/1 687/2/1 688/1/1
f 689/10/1 690/11/1 691/5/1 692/2/1
f 693/11/1 694/12/1 695/7/1 696/5/1
f 697/1/1 698/2/1 699/3/1 700/4/1
f 701/2/1 702/5/1 703/6/1 704/3/1
f 705/5/1 706/7/1 707/8/1 708/6/1
f 709/13/1 710/14/1 711/10/1 712/9/1
f 713/14/1 714/15/1 715/11/1 716/10/1
f 717/15/1 718/16/1 719/12/1 720/11/1
f 721/13/1 722/14/1 723/10/1 724/9/1
f 725/14/1 726/15/1 727/11/1 728/10/1
f 729/15/1 730/16/1 731/12/1 732/11/1
f 733/9/1 734/10/1 735/2/1 736/1/1
f 737/10/1 738/11/1 739/5/1 740/2/1
f 741/11/1 742/12/1 743/7/1 744/5/1
f 745/13/1 746/14/1 747/10/1 748/9/1
f 749/14/1 750/15/1 751/11/1 752/10/1
f 753/15/1 754/16/1 755/12/1 756/11/1

