# Tiled2Unity generated file. Do not modify by hand.
# Wavefront file for 'palawan_mesh_0008.obj'

# Vertices (Count = 340)
v -1504 -256 0
v -1536 -256 0
v -1536 -224 0
v -1504 -224 0
v -1536 -256 0
v -1568 -256 0
v -1568 -224 0
v -1536 -224 0
v -1568 -256 0
v -1600 -256 0
v -1600 -224 0
v -1568 -224 0
v -1344 -288 0
v -1376 -288 0
v -1376 -256 0
v -1344 -256 0
v -1376 -288 0
v -1408 -288 0
v -1408 -256 0
v -1376 -256 0
v -1408 -288 0
v -1440 -288 0
v -1440 -256 0
v -1408 -256 0
v -1440 -288 0
v -1472 -288 0
v -1472 -256 0
v -1440 -256 0
v -1504 -288 0
v -1536 -288 0
v -1536 -256 0
v -1504 -256 0
v -1536 -288 0
v -1568 -288 0
v -1568 -256 0
v -1536 -256 0
v -1568 -288 0
v -1600 -288 0
v -1600 -256 0
v -1568 -256 0
v -1344 -320 0
v -1376 -320 0
v -1376 -288 0
v -1344 -288 0
v -1376 -320 0
v -1408 -320 0
v -1408 -288 0
v -1376 -288 0
v -1408 -320 0
v -1440 -320 0
v -1440 -288 0
v -1408 -288 0
v -1440 -320 0
v -1472 -320 0
v -1472 -288 0
v -1440 -288 0
v -1312 -352 0
v -1344 -352 0
v -1344 -320 0
v -1312 -320 0
v -1344 -352 0
v -1376 -352 0
v -1376 -320 0
v -1344 -320 0
v -1376 -352 0
v -1408 -352 0
v -1408 -320 0
v -1376 -320 0
v -1408 -352 0
v -1440 -352 0
v -1440 -320 0
v -1408 -320 0
v -1440 -352 0
v -1472 -352 0
v -1472 -320 0
v -1440 -320 0
v -1472 -352 0
v -1504 -352 0
v -1504 -320 0
v -1472 -320 0
v -1504 -352 0
v -1536 -352 0
v -1536 -320 0
v -1504 -320 0
v -1536 -352 0
v -1568 -352 0
v -1568 -320 0
v -1536 -320 0
v -1312 -384 0
v -1344 -384 0
v -1344 -352 0
v -1312 -352 0
v -1344 -384 0
v -1376 -384 0
v -1376 -352 0
v -1344 -352 0
v -1376 -384 0
v -1408 -384 0
v -1408 -352 0
v -1376 -352 0
v -1408 -384 0
v -1440 -384 0
v -1440 -352 0
v -1408 -352 0
v -1440 -384 0
v -1472 -384 0
v -1472 -352 0
v -1440 -352 0
v -1472 -384 0
v -1504 -384 0
v -1504 -352 0
v -1472 -352 0
v -1504 -384 0
v -1536 -384 0
v -1536 -352 0
v -1504 -352 0
v -1536 -384 0
v -1568 -384 0
v -1568 -352 0
v -1536 -352 0
v -1248 -416 0
v -1280 -416 0
v -1280 -384 0
v -1248 -384 0
v -1280 -416 0
v -1312 -416 0
v -1312 -384 0
v -1280 -384 0
v -1312 -416 0
v -1344 -416 0
v -1344 -384 0
v -1312 -384 0
v -1344 -416 0
v -1376 -416 0
v -1376 -384 0
v -1344 -384 0
v -1376 -416 0
v -1408 -416 0
v -1408 -384 0
v -1376 -384 0
v -1408 -416 0
v -1440 -416 0
v -1440 -384 0
v -1408 -384 0
v -1440 -416 0
v -1472 -416 0
v -1472 -384 0
v -1440 -384 0
v -1472 -416 0
v -1504 -416 0
v -1504 -384 0
v -1472 -384 0
v -1504 -416 0
v -1536 -416 0
v -1536 -384 0
v -1504 -384 0
v -1536 -416 0
v -1568 -416 0
v -1568 -384 0
v -1536 -384 0
v -1248 -448 0
v -1280 -448 0
v -1280 -416 0
v -1248 -416 0
v -1280 -448 0
v -1312 -448 0
v -1312 -416 0
v -1280 -416 0
v -1312 -448 0
v -1344 -448 0
v -1344 -416 0
v -1312 -416 0
v -1344 -448 0
v -1376 -448 0
v -1376 -416 0
v -1344 -416 0
v -1376 -448 0
v -1408 -448 0
v -1408 -416 0
v -1376 -416 0
v -1408 -448 0
v -1440 -448 0
v -1440 -416 0
v -1408 -416 0
v -1440 -448 0
v -1472 -448 0
v -1472 -416 0
v -1440 -416 0
v -1472 -448 0
v -1504 -448 0
v -1504 -416 0
v -1472 -416 0
v -1504 -448 0
v -1536 -448 0
v -1536 -416 0
v -1504 -416 0
v -1536 -448 0
v -1568 -448 0
v -1568 -416 0
v -1536 -416 0
v -1248 -480 0
v -1280 -480 0
v -1280 -448 0
v -1248 -448 0
v -1280 -480 0
v -1312 -480 0
v -1312 -448 0
v -1280 -448 0
v -1312 -480 0
v -1344 -480 0
v -1344 -448 0
v -1312 -448 0
v -1344 -480 0
v -1376 -480 0
v -1376 -448 0
v -1344 -448 0
v -1376 -480 0
v -1408 -480 0
v -1408 -448 0
v -1376 -448 0
v -1408 -480 0
v -1440 -480 0
v -1440 -448 0
v -1408 -448 0
v -1440 -480 0
v -1472 -480 0
v -1472 -448 0
v -1440 -448 0
v -1472 -480 0
v -1504 -480 0
v -1504 -448 0
v -1472 -448 0
v -1504 -480 0
v -1536 -480 0
v -1536 -448 0
v -1504 -448 0
v -1536 -480 0
v -1568 -480 0
v -1568 -448 0
v -1536 -448 0
v -1152 -512 0
v -1184 -512 0
v -1184 -480 0
v -1152 -480 0
v -1184 -512 0
v -1216 -512 0
v -1216 -480 0
v -1184 -480 0
v -1152 -544 0
v -1184 -544 0
v -1184 -512 0
v -1152 -512 0
v -1184 -544 0
v -1216 -544 0
v -1216 -512 0
v -1184 -512 0
v -1120 -576 0
v -1152 -576 0
v -1152 -544 0
v -1120 -544 0
v -1152 -576 0
v -1184 -576 0
v -1184 -544 0
v -1152 -544 0
v -1120 -608 0
v -1152 -608 0
v -1152 -576 0
v -1120 -576 0
v -1152 -608 0
v -1184 -608 0
v -1184 -576 0
v -1152 -576 0
v -1056 -640 0
v -1088 -640 0
v -1088 -608 0
v -1056 -608 0
v -1088 -640 0
v -1120 -640 0
v -1120 -608 0
v -1088 -608 0
v -1120 -640 0
v -1152 -640 0
v -1152 -608 0
v -1120 -608 0
v -1152 -640 0
v -1184 -640 0
v -1184 -608 0
v -1152 -608 0
v -1056 -672 0
v -1088 -672 0
v -1088 -640 0
v -1056 -640 0
v -1088 -672 0
v -1120 -672 0
v -1120 -640 0
v -1088 -640 0
v -1120 -672 0
v -1152 -672 0
v -1152 -640 0
v -1120 -640 0
v -1152 -672 0
v -1184 -672 0
v -1184 -640 0
v -1152 -640 0
v -1056 -704 0
v -1088 -704 0
v -1088 -672 0
v -1056 -672 0
v -1088 -704 0
v -1120 -704 0
v -1120 -672 0
v -1088 -672 0
v -1056 -736 0
v -1088 -736 0
v -1088 -704 0
v -1056 -704 0
v -1088 -736 0
v -1120 -736 0
v -1120 -704 0
v -1088 -704 0
v -1056 -768 0
v -1088 -768 0
v -1088 -736 0
v -1056 -736 0
v -1120 -768 0
v -1152 -768 0
v -1152 -736 0
v -1120 -736 0
v -1056 -800 0
v -1088 -800 0
v -1088 -768 0
v -1056 -768 0
v -1120 -800 0
v -1152 -800 0
v -1152 -768 0
v -1120 -768 0
v -1120 -832 0
v -1152 -832 0
v -1152 -800 0
v -1120 -800 0

# Texture cooridinates (Count = 48)
vt 0.21875 0.1875
vt 0.25 0.1875
vt 0.25 0.21875
vt 0.21875 0.21875
vt 0.28125 0.1875
vt 0.28125 0.21875
vt 0.3125 0.1875
vt 0.3125 0.21875
vt 0.34375 0.1875
vt 0.34375 0.21875
vt 0.21875 0.15625
vt 0.25 0.15625
vt 0.28125 0.15625
vt 0.3125 0.15625
vt 0.34375 0.15625
vt 0.1875 0.53125
vt 0.21875 0.53125
vt 0.21875 0.5625
vt 0.1875 0.5625
vt 0.25 0.53125
vt 0.25 0.5625
vt 0.1875 0.5
vt 0.21875 0.5
vt 0.25 0.5
vt 0.1875 0.46875
vt 0.21875 0.46875
vt 0.25 0.46875
vt 0.09375 0.5625
vt 0.125 0.5625
vt 0.125 0.59375
vt 0.09375 0.59375
vt 0.15625 0.5625
vt 0.15625 0.59375
vt 0.09375 0.53125
vt 0.125 0.53125
vt 0.15625 0.53125
vt 0.09375 0.5
vt 0.125 0.5
vt 0.15625 0.5
vt 0.09375 0.46875
vt 0.125 0.46875
vt 0.15625 0.46875
vt 0.1875 0.625
vt 0.21875 0.625
vt 0.21875 0.65625
vt 0.1875 0.65625
vt 0.1875 0.59375
vt 0.21875 0.59375

# Normal
vn 0 0 -1

# Mesh description
g palawan_mesh_0008

# Faces
f 1/1/1 2/2/1 3/3/1 4/4/1
f 5/2/1 6/5/1 7/6/1 8/3/1
f 9/5/1 10/7/1 11/8/1 12/6/1
f 13/1/1 14/2/1 15/3/1 16/4/1
f 17/2/1 18/5/1 19/6/1 20/3/1
f 21/5/1 22/7/1 23/8/1 24/6/1
f 25/7/1 26/9/1 27/10/1 28/8/1
f 29/11/1 30/12/1 31/2/1 32/1/1
f 33/12/1 34/13/1 35/5/1 36/2/1
f 37/13/1 38/14/1 39/7/1 40/5/1
f 41/11/1 42/12/1 43/2/1 44/1/1
f 45/12/1 46/13/1 47/5/1 48/2/1
f 49/13/1 50/14/1 51/7/1 52/5/1
f 53/14/1 54/15/1 55/9/1 56/7/1
f 57/1/1 58/2/1 59/3/1 60/4/1
f 61/2/1 62/5/1 63/6/1 64/3/1
f 65/5/1 66/7/1 67/8/1 68/6/1
f 69/7/1 70/9/1 71/10/1 72/8/1
f 73/1/1 74/2/1 75/3/1 76/4/1
f 77/2/1 78/5/1 79/6/1 80/3/1
f 81/5/1 82/7/1 83/8/1 84/6/1
f 85/7/1 86/9/1 87/10/1 88/8/1
f 89/11/1 90/12/1 91/2/1 92/1/1
f 93/12/1 94/13/1 95/5/1 96/2/1
f 97/13/1 98/14/1 99/7/1 100/5/1
f 101/14/1 102/15/1 103/9/1 104/7/1
f 105/11/1 106/12/1 107/2/1 108/1/1
f 109/12/1 110/13/1 111/5/1 112/2/1
f 113/13/1 114/14/1 115/7/1 116/5/1
f 117/14/1 118/15/1 119/9/1 120/7/1
f 121/16/1 122/17/1 123/18/1 124/19/1
f 125/17/1 126/20/1 127/21/1 128/18/1
f 129/16/1 130/17/1 131/18/1 132/19/1
f 133/17/1 134/20/1 135/21/1 136/18/1
f 137/16/1 138/17/1 139/18/1 140/19/1
f 141/17/1 142/20/1 143/21/1 144/18/1
f 145/16/1 146/17/1 147/18/1 148/19/1
f 149/17/1 150/20/1 151/21/1 152/18/1
f 153/16/1 154/17/1 155/18/1 156/19/1
f 157/17/1 158/20/1 159/21/1 160/18/1
f 161/22/1 162/23/1 163/17/1 164/16/1
f 165/23/1 166/24/1 167/20/1 168/17/1
f 169/22/1 170/23/1 171/17/1 172/16/1
f 173/23/1 174/24/1 175/20/1 176/17/1
f 177/22/1 178/23/1 179/17/1 180/16/1
f 181/23/1 182/24/1 183/20/1 184/17/1
f 185/22/1 186/23/1 187/17/1 188/16/1
f 189/23/1 190/24/1 191/20/1 192/17/1
f 193/22/1 194/23/1 195/17/1 196/16/1
f 197/23/1 198/24/1 199/20/1 200/17/1
f 201/25/1 202/26/1 203/23/1 204/22/1
f 205/26/1 206/27/1 207/24/1 208/23/1
f 209/25/1 210/26/1 211/23/1 212/22/1
f 213/26/1 214/27/1 215/24/1 216/23/1
f 217/25/1 218/26/1 219/23/1 220/22/1
f 221/26/1 222/27/1 223/24/1 224/23/1
f 225/25/1 226/26/1 227/23/1 228/22/1
f 229/26/1 230/27/1 231/24/1 232/23/1
f 233/25/1 234/26/1 235/23/1 236/22/1
f 237/26/1 238/27/1 239/24/1 240/23/1
f 241/28/1 242/29/1 243/30/1 244/31/1
f 245/29/1 246/32/1 247/33/1 248/30/1
f 249/34/1 250/35/1 251/29/1 252/28/1
f 253/35/1 254/36/1 255/32/1 256/29/1
f 257/28/1 258/29/1 259/30/1 260/31/1
f 261/29/1 262/32/1 263/33/1 264/30/1
f 265/34/1 266/35/1 267/29/1 268/28/1
f 269/35/1 270/36/1 271/32/1 272/29/1
f 273/28/1 274/29/1 275/30/1 276/31/1
f 277/29/1 278/32/1 279/33/1 280/30/1
f 281/28/1 282/29/1 283/30/1 284/31/1
f 285/29/1 286/32/1 287/33/1 288/30/1
f 289/34/1 290/35/1 291/29/1 292/28/1
f 293/35/1 294/36/1 295/32/1 296/29/1
f 297/34/1 298/35/1 299/29/1 300/28/1
f 301/35/1 302/36/1 303/32/1 304/29/1
f 305/37/1 306/38/1 307/35/1 308/34/1
f 309/38/1 310/39/1 311/36/1 312/35/1
f 313/40/1 314/41/1 315/38/1 316/37/1
f 317/41/1 318/42/1 319/39/1 320/38/1
f 321/43/1 322/44/1 323/45/1 324/46/1
f 325/36/1 326/16/1 327/19/1 328/32/1
f 329/47/1 330/48/1 331/44/1 332/43/1
f 333/39/1 334/22/1 335/16/1 336/36/1
f 337/42/1 338/25/1 339/22/1 340/39/1

