# Tiled2Unity generated file. Do not modify by hand.
# Wavefront file for 'palawan_mesh_0004.obj'

# Vertices (Count = 784)
v 0 -256 0
v -32 -256 0
v -32 -224 0
v 0 -224 0
v -32 -256 0
v -64 -256 0
v -64 -224 0
v -32 -224 0
v -64 -256 0
v -96 -256 0
v -96 -224 0
v -64 -224 0
v 0 -288 0
v -32 -288 0
v -32 -256 0
v 0 -256 0
v -32 -288 0
v -64 -288 0
v -64 -256 0
v -32 -256 0
v -64 -288 0
v -96 -288 0
v -96 -256 0
v -64 -256 0
v 0 -320 0
v -32 -320 0
v -32 -288 0
v 0 -288 0
v -32 -320 0
v -64 -320 0
v -64 -288 0
v -32 -288 0
v -64 -320 0
v -96 -320 0
v -96 -288 0
v -64 -288 0
v -96 -416 0
v -128 -416 0
v -128 -384 0
v -96 -384 0
v -160 -416 0
v -192 -416 0
v -192 -384 0
v -160 -384 0
v -192 -544 0
v -224 -544 0
v -224 -512 0
v -192 -512 0
v -256 -544 0
v -288 -544 0
v -288 -512 0
v -256 -512 0
v -32 -608 0
v -64 -608 0
v -64 -576 0
v -32 -576 0
v -96 -608 0
v -128 -608 0
v -128 -576 0
v -96 -576 0
v -1472 -608 0
v -1504 -608 0
v -1504 -576 0
v -1472 -576 0
v -1504 -608 0
v -1536 -608 0
v -1536 -576 0
v -1504 -576 0
v -1536 -608 0
v -1568 -608 0
v -1568 -576 0
v -1536 -576 0
v -1472 -640 0
v -1504 -640 0
v -1504 -608 0
v -1472 -608 0
v -1504 -640 0
v -1536 -640 0
v -1536 -608 0
v -1504 -608 0
v -1536 -640 0
v -1568 -640 0
v -1568 -608 0
v -1536 -608 0
v -256 -672 0
v -288 -672 0
v -288 -640 0
v -256 -640 0
v -1472 -672 0
v -1504 -672 0
v -1504 -640 0
v -1472 -640 0
v -1504 -672 0
v -1536 -672 0
v -1536 -640 0
v -1504 -640 0
v -1536 -672 0
v -1568 -672 0
v -1568 -640 0
v -1536 -640 0
v 0 -736 0
v -32 -736 0
v -32 -704 0
v 0 -704 0
v -32 -736 0
v -64 -736 0
v -64 -704 0
v -32 -704 0
v -64 -736 0
v -96 -736 0
v -96 -704 0
v -64 -704 0
v 0 -768 0
v -32 -768 0
v -32 -736 0
v 0 -736 0
v -32 -768 0
v -64 -768 0
v -64 -736 0
v -32 -736 0
v -64 -768 0
v -96 -768 0
v -96 -736 0
v -64 -736 0
v -128 -768 0
v -160 -768 0
v -160 -736 0
v -128 -736 0
v -160 -768 0
v -192 -768 0
v -192 -736 0
v -160 -736 0
v -192 -768 0
v -224 -768 0
v -224 -736 0
v -192 -736 0
v -1504 -768 0
v -1536 -768 0
v -1536 -736 0
v -1504 -736 0
v -1536 -768 0
v -1568 -768 0
v -1568 -736 0
v -1536 -736 0
v -1568 -768 0
v -1600 -768 0
v -1600 -736 0
v -1568 -736 0
v 0 -800 0
v -32 -800 0
v -32 -768 0
v 0 -768 0
v -32 -800 0
v -64 -800 0
v -64 -768 0
v -32 -768 0
v -64 -800 0
v -96 -800 0
v -96 -768 0
v -64 -768 0
v -128 -800 0
v -160 -800 0
v -160 -768 0
v -128 -768 0
v -160 -800 0
v -192 -800 0
v -192 -768 0
v -160 -768 0
v -192 -800 0
v -224 -800 0
v -224 -768 0
v -192 -768 0
v -1504 -800 0
v -1536 -800 0
v -1536 -768 0
v -1504 -768 0
v -1536 -800 0
v -1568 -800 0
v -1568 -768 0
v -1536 -768 0
v -1568 -800 0
v -1600 -800 0
v -1600 -768 0
v -1568 -768 0
v -128 -832 0
v -160 -832 0
v -160 -800 0
v -128 -800 0
v -160 -832 0
v -192 -832 0
v -192 -800 0
v -160 -800 0
v -192 -832 0
v -224 -832 0
v -224 -800 0
v -192 -800 0
v -288 -832 0
v -320 -832 0
v -320 -800 0
v -288 -800 0
v -320 -832 0
v -352 -832 0
v -352 -800 0
v -320 -800 0
v -352 -832 0
v -384 -832 0
v -384 -800 0
v -352 -800 0
v -1504 -832 0
v -1536 -832 0
v -1536 -800 0
v -1504 -800 0
v -1536 -832 0
v -1568 -832 0
v -1568 -800 0
v -1536 -800 0
v -1568 -832 0
v -1600 -832 0
v -1600 -800 0
v -1568 -800 0
v -288 -864 0
v -320 -864 0
v -320 -832 0
v -288 -832 0
v -320 -864 0
v -352 -864 0
v -352 -832 0
v -320 -832 0
v -352 -864 0
v -384 -864 0
v -384 -832 0
v -352 -832 0
v 0 -896 0
v -32 -896 0
v -32 -864 0
v 0 -864 0
v -32 -896 0
v -64 -896 0
v -64 -864 0
v -32 -864 0
v -64 -896 0
v -96 -896 0
v -96 -864 0
v -64 -864 0
v -288 -896 0
v -320 -896 0
v -320 -864 0
v -288 -864 0
v -320 -896 0
v -352 -896 0
v -352 -864 0
v -320 -864 0
v -352 -896 0
v -384 -896 0
v -384 -864 0
v -352 -864 0
v -1344 -896 0
v -1376 -896 0
v -1376 -864 0
v -1344 -864 0
v -1376 -896 0
v -1408 -896 0
v -1408 -864 0
v -1376 -864 0
v -1408 -896 0
v -1440 -896 0
v -1440 -864 0
v -1408 -864 0
v 0 -928 0
v -32 -928 0
v -32 -896 0
v 0 -896 0
v -32 -928 0
v -64 -928 0
v -64 -896 0
v -32 -896 0
v -64 -928 0
v -96 -928 0
v -96 -896 0
v -64 -896 0
v -1344 -928 0
v -1376 -928 0
v -1376 -896 0
v -1344 -896 0
v -1376 -928 0
v -1408 -928 0
v -1408 -896 0
v -1376 -896 0
v -1408 -928 0
v -1440 -928 0
v -1440 -896 0
v -1408 -896 0
v 0 -960 0
v -32 -960 0
v -32 -928 0
v 0 -928 0
v -32 -960 0
v -64 -960 0
v -64 -928 0
v -32 -928 0
v -64 -960 0
v -96 -960 0
v -96 -928 0
v -64 -928 0
v -1184 -960 0
v -1216 -960 0
v -1216 -928 0
v -1184 -928 0
v -1216 -960 0
v -1248 -960 0
v -1248 -928 0
v -1216 -928 0
v -1248 -960 0
v -1280 -960 0
v -1280 -928 0
v -1248 -928 0
v -1344 -960 0
v -1376 -960 0
v -1376 -928 0
v -1344 -928 0
v -1376 -960 0
v -1408 -960 0
v -1408 -928 0
v -1376 -928 0
v -1408 -960 0
v -1440 -960 0
v -1440 -928 0
v -1408 -928 0
v -1184 -992 0
v -1216 -992 0
v -1216 -960 0
v -1184 -960 0
v -1216 -992 0
v -1248 -992 0
v -1248 -960 0
v -1216 -960 0
v -1248 -992 0
v -1280 -992 0
v -1280 -960 0
v -1248 -960 0
v -1184 -1024 0
v -1216 -1024 0
v -1216 -992 0
v -1184 -992 0
v -1216 -1024 0
v -1248 -1024 0
v -1248 -992 0
v -1216 -992 0
v -1248 -1024 0
v -1280 -1024 0
v -1280 -992 0
v -1248 -992 0
v -96 -1056 0
v -128 -1056 0
v -128 -1024 0
v -96 -1024 0
v -128 -1056 0
v -160 -1056 0
v -160 -1024 0
v -128 -1024 0
v -160 -1056 0
v -192 -1056 0
v -192 -1024 0
v -160 -1024 0
v -96 -1088 0
v -128 -1088 0
v -128 -1056 0
v -96 -1056 0
v -128 -1088 0
v -160 -1088 0
v -160 -1056 0
v -128 -1056 0
v -160 -1088 0
v -192 -1088 0
v -192 -1056 0
v -160 -1056 0
v -96 -1120 0
v -128 -1120 0
v -128 -1088 0
v -96 -1088 0
v -128 -1120 0
v -160 -1120 0
v -160 -1088 0
v -128 -1088 0
v -160 -1120 0
v -192 -1120 0
v -192 -1088 0
v -160 -1088 0
v -32 -1312 0
v -64 -1312 0
v -64 -1280 0
v -32 -1280 0
v -64 -1312 0
v -96 -1312 0
v -96 -1280 0
v -64 -1280 0
v -96 -1312 0
v -128 -1312 0
v -128 -1280 0
v -96 -1280 0
v -32 -1344 0
v -64 -1344 0
v -64 -1312 0
v -32 -1312 0
v -64 -1344 0
v -96 -1344 0
v -96 -1312 0
v -64 -1312 0
v -96 -1344 0
v -128 -1344 0
v -128 -1312 0
v -96 -1312 0
v -1344 -1344 0
v -1376 -1344 0
v -1376 -1312 0
v -1344 -1312 0
v -1376 -1344 0
v -1408 -1344 0
v -1408 -1312 0
v -1376 -1312 0
v -1408 -1344 0
v -1440 -1344 0
v -1440 -1312 0
v -1408 -1312 0
v -32 -1376 0
v -64 -1376 0
v -64 -1344 0
v -32 -1344 0
v -64 -1376 0
v -96 -1376 0
v -96 -1344 0
v -64 -1344 0
v -96 -1376 0
v -128 -1376 0
v -128 -1344 0
v -96 -1344 0
v -192 -1376 0
v -224 -1376 0
v -224 -1344 0
v -192 -1344 0
v -224 -1376 0
v -256 -1376 0
v -256 -1344 0
v -224 -1344 0
v -256 -1376 0
v -288 -1376 0
v -288 -1344 0
v -256 -1344 0
v -352 -1376 0
v -384 -1376 0
v -384 -1344 0
v -352 -1344 0
v -384 -1376 0
v -416 -1376 0
v -416 -1344 0
v -384 -1344 0
v -416 -1376 0
v -448 -1376 0
v -448 -1344 0
v -416 -1344 0
v -608 -1376 0
v -640 -1376 0
v -640 -1344 0
v -608 -1344 0
v -640 -1376 0
v -672 -1376 0
v -672 -1344 0
v -640 -1344 0
v -672 -1376 0
v -704 -1376 0
v -704 -1344 0
v -672 -1344 0
v -992 -1376 0
v -1024 -1376 0
v -1024 -1344 0
v -992 -1344 0
v -1024 -1376 0
v -1056 -1376 0
v -1056 -1344 0
v -1024 -1344 0
v -1056 -1376 0
v -1088 -1376 0
v -1088 -1344 0
v -1056 -1344 0
v -1184 -1376 0
v -1216 -1376 0
v -1216 -1344 0
v -1184 -1344 0
v -1216 -1376 0
v -1248 -1376 0
v -1248 -1344 0
v -1216 -1344 0
v -1248 -1376 0
v -1280 -1376 0
v -1280 -1344 0
v -1248 -1344 0
v -1344 -1376 0
v -1376 -1376 0
v -1376 -1344 0
v -1344 -1344 0
v -1376 -1376 0
v -1408 -1376 0
v -1408 -1344 0
v -1376 -1344 0
v -1408 -1376 0
v -1440 -1376 0
v -1440 -1344 0
v -1408 -1344 0
v -192 -1408 0
v -224 -1408 0
v -224 -1376 0
v -192 -1376 0
v -224 -1408 0
v -256 -1408 0
v -256 -1376 0
v -224 -1376 0
v -256 -1408 0
v -288 -1408 0
v -288 -1376 0
v -256 -1376 0
v -352 -1408 0
v -384 -1408 0
v -384 -1376 0
v -352 -1376 0
v -384 -1408 0
v -416 -1408 0
v -416 -1376 0
v -384 -1376 0
v -416 -1408 0
v -448 -1408 0
v -448 -1376 0
v -416 -1376 0
v -608 -1408 0
v -640 -1408 0
v -640 -1376 0
v -608 -1376 0
v -640 -1408 0
v -672 -1408 0
v -672 -1376 0
v -640 -1376 0
v -672 -1408 0
v -704 -1408 0
v -704 -1376 0
v -672 -1376 0
v -992 -1408 0
v -1024 -1408 0
v -1024 -1376 0
v -992 -1376 0
v -1024 -1408 0
v -1056 -1408 0
v -1056 -1376 0
v -1024 -1376 0
v -1056 -1408 0
v -1088 -1408 0
v -1088 -1376 0
v -1056 -1376 0
v -1184 -1408 0
v -1216 -1408 0
v -1216 -1376 0
v -1184 -1376 0
v -1216 -1408 0
v -1248 -1408 0
v -1248 -1376 0
v -1216 -1376 0
v -1248 -1408 0
v -1280 -1408 0
v -1280 -1376 0
v -1248 -1376 0
v -1344 -1408 0
v -1376 -1408 0
v -1376 -1376 0
v -1344 -1376 0
v -1376 -1408 0
v -1408 -1408 0
v -1408 -1376 0
v -1376 -1376 0
v -1408 -1408 0
v -1440 -1408 0
v -1440 -1376 0
v -1408 -1376 0
v -192 -1440 0
v -224 -1440 0
v -224 -1408 0
v -192 -1408 0
v -224 -1440 0
v -256 -1440 0
v -256 -1408 0
v -224 -1408 0
v -256 -1440 0
v -288 -1440 0
v -288 -1408 0
v -256 -1408 0
v -352 -1440 0
v -384 -1440 0
v -384 -1408 0
v -352 -1408 0
v -384 -1440 0
v -416 -1440 0
v -416 -1408 0
v -384 -1408 0
v -416 -1440 0
v -448 -1440 0
v -448 -1408 0
v -416 -1408 0
v -608 -1440 0
v -640 -1440 0
v -640 -1408 0
v -608 -1408 0
v -640 -1440 0
v -672 -1440 0
v -672 -1408 0
v -640 -1408 0
v -672 -1440 0
v -704 -1440 0
v -704 -1408 0
v -672 -1408 0
v -992 -1440 0
v -1024 -1440 0
v -1024 -1408 0
v -992 -1408 0
v -1024 -1440 0
v -1056 -1440 0
v -1056 -1408 0
v -1024 -1408 0
v -1056 -1440 0
v -1088 -1440 0
v -1088 -1408 0
v -1056 -1408 0
v -1184 -1440 0
v -1216 -1440 0
v -1216 -1408 0
v -1184 -1408 0
v -1216 -1440 0
v -1248 -1440 0
v -1248 -1408 0
v -1216 -1408 0
v -1248 -1440 0
v -1280 -1440 0
v -1280 -1408 0
v -1248 -1408 0
v -576 -1504 0
v -608 -1504 0
v -608 -1472 0
v -576 -1472 0
v -608 -1504 0
v -640 -1504 0
v -640 -1472 0
v -608 -1472 0
v -640 -1504 0
v -672 -1504 0
v -672 -1472 0
v -640 -1472 0
v -576 -1536 0
v -608 -1536 0
v -608 -1504 0
v -576 -1504 0
v -608 -1536 0
v -640 -1536 0
v -640 -1504 0
v -608 -1504 0
v -640 -1536 0
v -672 -1536 0
v -672 -1504 0
v -640 -1504 0
v -1056 -1536 0
v -1088 -1536 0
v -1088 -1504 0
v -1056 -1504 0
v -1088 -1536 0
v -1120 -1536 0
v -1120 -1504 0
v -1088 -1504 0
v -1120 -1536 0
v -1152 -1536 0
v -1152 -1504 0
v -1120 -1504 0
v -1280 -1536 0
v -1312 -1536 0
v -1312 -1504 0
v -1280 -1504 0
v -1312 -1536 0
v -1344 -1536 0
v -1344 -1504 0
v -1312 -1504 0
v -1344 -1536 0
v -1376 -1536 0
v -1376 -1504 0
v -1344 -1504 0
v -1408 -1536 0
v -1440 -1536 0
v -1440 -1504 0
v -1408 -1504 0
v -1440 -1536 0
v -1472 -1536 0
v -1472 -1504 0
v -1440 -1504 0
v -1472 -1536 0
v -1504 -1536 0
v -1504 -1504 0
v -1472 -1504 0
v -576 -1568 0
v -608 -1568 0
v -608 -1536 0
v -576 -1536 0
v -608 -1568 0
v -640 -1568 0
v -640 -1536 0
v -608 -1536 0
v -640 -1568 0
v -672 -1568 0
v -672 -1536 0
v -640 -1536 0
v -1056 -1568 0
v -1088 -1568 0
v -1088 -1536 0
v -1056 -1536 0
v -1088 -1568 0
v -1120 -1568 0
v -1120 -1536 0
v -1088 -1536 0
v -1120 -1568 0
v -1152 -1568 0
v -1152 -1536 0
v -1120 -1536 0
v -1280 -1568 0
v -1312 -1568 0
v -1312 -1536 0
v -1280 -1536 0
v -1312 -1568 0
v -1344 -1568 0
v -1344 -1536 0
v -1312 -1536 0
v -1344 -1568 0
v -1376 -1568 0
v -1376 -1536 0
v -1344 -1536 0
v -1408 -1568 0
v -1440 -1568 0
v -1440 -1536 0
v -1408 -1536 0
v -1440 -1568 0
v -1472 -1568 0
v -1472 -1536 0
v -1440 -1536 0
v -1472 -1568 0
v -1504 -1568 0
v -1504 -1536 0
v -1472 -1536 0
v -1056 -1600 0
v -1088 -1600 0
v -1088 -1568 0
v -1056 -1568 0
v -1088 -1600 0
v -1120 -1600 0
v -1120 -1568 0
v -1088 -1568 0
v -1120 -1600 0
v -1152 -1600 0
v -1152 -1568 0
v -1120 -1568 0
v -1280 -1600 0
v -1312 -1600 0
v -1312 -1568 0
v -1280 -1568 0
v -1312 -1600 0
v -1344 -1600 0
v -1344 -1568 0
v -1312 -1568 0
v -1344 -1600 0
v -1376 -1600 0
v -1376 -1568 0
v -1344 -1568 0
v -1408 -1600 0
v -1440 -1600 0
v -1440 -1568 0
v -1408 -1568 0
v -1440 -1600 0
v -1472 -1600 0
v -1472 -1568 0
v -1440 -1568 0
v -1472 -1600 0
v -1504 -1600 0
v -1504 -1568 0
v -1472 -1568 0

# Texture cooridinates (Count = 16)
vt 0 0.6666666
vt 0.1666667 0.6666666
vt 0.1666667 1
vt 0 1
vt 0.3333333 0.6666666
vt 0.3333333 1
vt 0.5 0.6666666
vt 0.5 1
vt 0 0.3333333
vt 0.1666667 0.3333333
vt 0.3333333 0.3333333
vt 0.5 0.3333333
vt 0 0
vt 0.1666667 0
vt 0.3333333 0
vt 0.5 0

# Normal
vn 0 0 -1

# Mesh description
g palawan_mesh_0004

# Faces
f 1/1/1 2/2/1 3/3/1 4/4/1
f 5/2/1 6/5/1 7/6/1 8/3/1
f 9/5/1 10/7/1 11/8/1 12/6/1
f 13/9/1 14/10/1 15/2/1 16/1/1
f 17/10/1 18/11/1 19/5/1 20/2/1
f 21/11/1 22/12/1 23/7/1 24/5/1
f 25/13/1 26/14/1 27/10/1 28/9/1
f 29/14/1 30/15/1 31/11/1 32/10/1
f 33/15/1 34/16/1 35/12/1 36/11/1
f 37/1/1 38/2/1 39/3/1 40/4/1
f 41/5/1 42/7/1 43/8/1 44/6/1
f 45/1/1 46/2/1 47/3/1 48/4/1
f 49/5/1 50/7/1 51/8/1 52/6/1
f 53/1/1 54/2/1 55/3/1 56/4/1
f 57/5/1 58/7/1 59/8/1 60/6/1
f 61/1/1 62/2/1 63/3/1 64/4/1
f 65/2/1 66/5/1 67/6/1 68/3/1
f 69/5/1 70/7/1 71/8/1 72/6/1
f 73/9/1 74/10/1 75/2/1 76/1/1
f 77/10/1 78/11/1 79/5/1 80/2/1
f 81/11/1 82/12/1 83/7/1 84/5/1
f 85/5/1 86/7/1 87/8/1 88/6/1
f 89/13/1 90/14/1 91/10/1 92/9/1
f 93/14/1 94/15/1 95/11/1 96/10/1
f 97/15/1 98/16/1 99/12/1 100/11/1
f 101/1/1 102/2/1 103/3/1 104/4/1
f 105/2/1 106/5/1 107/6/1 108/3/1
f 109/5/1 110/7/1 111/8/1 112/6/1
f 113/9/1 114/10/1 115/2/1 116/1/1
f 117/10/1 118/11/1 119/5/1 120/2/1
f 121/11/1 122/12/1 123/7/1 124/5/1
f 125/1/1 126/2/1 127/3/1 128/4/1
f 129/2/1 130/5/1 131/6/1 132/3/1
f 133/5/1 134/7/1 135/8/1 136/6/1
f 137/1/1 138/2/1 139/3/1 140/4/1
f 141/2/1 142/5/1 143/6/1 144/3/1
f 145/5/1 146/7/1 147/8/1 148/6/1
f 149/13/1 150/14/1 151/10/1 152/9/1
f 153/14/1 154/15/1 155/11/1 156/10/1
f 157/15/1 158/16/1 159/12/1 160/11/1
f 161/9/1 162/10/1 163/2/1 164/1/1
f 165/10/1 166/11/1 167/5/1 168/2/1
f 169/11/1 170/12/1 171/7/1 172/5/1
f 173/9/1 174/10/1 175/2/1 176/1/1
f 177/10/1 178/11/1 179/5/1 180/2/1
f 181/11/1 182/12/1 183/7/1 184/5/1
f 185/13/1 186/14/1 187/10/1 188/9/1
f 189/14/1 190/15/1 191/11/1 192/10/1
f 193/15/1 194/16/1 195/12/1 196/11/1
f 197/1/1 198/2/1 199/3/1 200/4/1
f 201/2/1 202/5/1 203/6/1 204/3/1
f 205/5/1 206/7/1 207/8/1 208/6/1
f 209/13/1 210/14/1 211/10/1 212/9/1
f 213/14/1 214/15/1 215/11/1 216/10/1
f 217/15/1 218/16/1 219/12/1 220/11/1
f 221/9/1 222/10/1 223/2/1 224/1/1
f 225/10/1 226/11/1 227/5/1 228/2/1
f 229/11/1 230/12/1 231/7/1 232/5/1
f 233/1/1 234/2/1 235/3/1 236/4/1
f 237/2/1 238/5/1 239/6/1 240/3/1
f 241/5/1 242/7/1 243/8/1 244/6/1
f 245/13/1 246/14/1 247/10/1 248/9/1
f 249/14/1 250/15/1 251/11/1 252/10/1
f 253/15/1 254/16/1 255/12/1 256/11/1
f 257/1/1 258/2/1 259/3/1 260/4/1
f 261/2/1 262/5/1 263/6/1 264/3/1
f 265/5/1 266/7/1 267/8/1 268/6/1
f 269/9/1 270/10/1 271/2/1 272/1/1
f 273/10/1 274/11/1 275/5/1 276/2/1
f 277/11/1 278/12/1 279/7/1 280/5/1
f 281/9/1 282/10/1 283/2/1 284/1/1
f 285/10/1 286/11/1 287/5/1 288/2/1
f 289/11/1 290/12/1 291/7/1 292/5/1
f 293/13/1 294/14/1 295/10/1 296/9/1
f 297/14/1 298/15/1 299/11/1 300/10/1
f 301/15/1 302/16/1 303/12/1 304/11/1
f 305/1/1 306/2/1 307/3/1 308/4/1
f 309/2/1 310/5/1 311/6/1 312/3/1
f 313/5/1 314/7/1 315/8/1 316/6/1
f 317/13/1 318/14/1 319/10/1 320/9/1
f 321/14/1 322/15/1 323/11/1 324/10/1
f 325/15/1 326/16/1 327/12/1 328/11/1
f 329/9/1 330/10/1 331/2/1 332/1/1
f 333/10/1 334/11/1 335/5/1 336/2/1
f 337/11/1 338/12/1 339/7/1 340/5/1
f 341/13/1 342/14/1 343/10/1 344/9/1
f 345/14/1 346/15/1 347/11/1 348/10/1
f 349/15/1 350/16/1 351/12/1 352/11/1
f 353/1/1 354/2/1 355/3/1 356/4/1
f 357/2/1 358/5/1 359/6/1 360/3/1
f 361/5/1 362/7/1 363/8/1 364/6/1
f 365/9/1 366/10/1 367/2/1 368/1/1
f 369/10/1 370/11/1 371/5/1 372/2/1
f 373/11/1 374/12/1 375/7/1 376/5/1
f 377/13/1 378/14/1 379/10/1 380/9/1
f 381/14/1 382/15/1 383/11/1 384/10/1
f 385/15/1 386/16/1 387/12/1 388/11/1
f 389/1/1 390/2/1 391/3/1 392/4/1
f 393/2/1 394/5/1 395/6/1 396/3/1
f 397/5/1 398/7/1 399/8/1 400/6/1
f 401/9/1 402/10/1 403/2/1 404/1/1
f 405/10/1 406/11/1 407/5/1 408/2/1
f 409/11/1 410/12/1 411/7/1 412/5/1
f 413/1/1 414/2/1 415/3/1 416/4/1
f 417/2/1 418/5/1 419/6/1 420/3/1
f 421/5/1 422/7/1 423/8/1 424/6/1
f 425/13/1 426/14/1 427/10/1 428/9/1
f 429/14/1 430/15/1 431/11/1 432/10/1
f 433/15/1 434/16/1 435/12/1 436/11/1
f 437/1/1 438/2/1 439/3/1 440/4/1
f 441/2/1 442/5/1 443/6/1 444/3/1
f 445/5/1 446/7/1 447/8/1 448/6/1
f 449/1/1 450/2/1 451/3/1 452/4/1
f 453/2/1 454/5/1 455/6/1 456/3/1
f 457/5/1 458/7/1 459/8/1 460/6/1
f 461/1/1 462/2/1 463/3/1 464/4/1
f 465/2/1 466/5/1 467/6/1 468/3/1
f 469/5/1 470/7/1 471/8/1 472/6/1
f 473/1/1 474/2/1 475/3/1 476/4/1
f 477/2/1 478/5/1 479/6/1 480/3/1
f 481/5/1 482/7/1 483/8/1 484/6/1
f 485/1/1 486/2/1 487/3/1 488/4/1
f 489/2/1 490/5/1 491/6/1 492/3/1
f 493/5/1 494/7/1 495/8/1 496/6/1
f 497/9/1 498/10/1 499/2/1 500/1/1
f 501/10/1 502/11/1 503/5/1 504/2/1
f 505/11/1 506/12/1 507/7/1 508/5/1
f 509/9/1 510/10/1 511/2/1 512/1/1
f 513/10/1 514/11/1 515/5/1 516/2/1
f 517/11/1 518/12/1 519/7/1 520/5/1
f 521/9/1 522/10/1 523/2/1 524/1/1
f 525/10/1 526/11/1 527/5/1 528/2/1
f 529/11/1 530/12/1 531/7/1 532/5/1
f 533/9/1 534/10/1 535/2/1 536/1/1
f 537/10/1 538/11/1 539/5/1 540/2/1
f 541/11/1 542/12/1 543/7/1 544/5/1
f 545/9/1 546/10/1 547/2/1 548/1/1
f 549/10/1 550/11/1 551/5/1 552/2/1
f 553/11/1 554/12/1 555/7/1 556/5/1
f 557/9/1 558/10/1 559/2/1 560/1/1
f 561/10/1 562/11/1 563/5/1 564/2/1
f 565/11/1 566/12/1 567/7/1 568/5/1
f 569/13/1 570/14/1 571/10/1 572/9/1
f 573/14/1 574/15/1 575/11/1 576/10/1
f 577/15/1 578/16/1 579/12/1 580/11/1
f 581/13/1 582/14/1 583/10/1 584/9/1
f 585/14/1 586/15/1 587/11/1 588/10/1
f 589/15/1 590/16/1 591/12/1 592/11/1
f 593/13/1 594/14/1 595/10/1 596/9/1
f 597/14/1 598/15/1 599/11/1 600/10/1
f 601/15/1 602/16/1 603/12/1 604/11/1
f 605/13/1 606/14/1 607/10/1 608/9/1
f 609/14/1 610/15/1 611/11/1 612/10/1
f 613/15/1 614/16/1 615/12/1 616/11/1
f 617/13/1 618/14/1 619/10/1 620/9/1
f 621/14/1 622/15/1 623/11/1 624/10/1
f 625/15/1 626/16/1 627/12/1 628/11/1
f 629/13/1 630/14/1 631/10/1 632/9/1
f 633/14/1 634/15/1 635/11/1 636/10/1
f 637/15/1 638/16/1 639/12/1 640/11/1
f 641/1/1 642/2/1 643/3/1 644/4/1
f 645/2/1 646/5/1 647/6/1 648/3/1
f 649/5/1 650/7/1 651/8/1 652/6/1
f 653/9/1 654/10/1 655/2/1 656/1/1
f 657/10/1 658/11/1 659/5/1 660/2/1
f 661/11/1 662/12/1 663/7/1 664/5/1
f 665/1/1 666/2/1 667/3/1 668/4/1
f 669/2/1 670/5/1 671/6/1 672/3/1
f 673/5/1 674/7/1 675/8/1 676/6/1
f 677/1/1 678/2/1 679/3/1 680/4/1
f 681/2/1 682/5/1 683/6/1 684/3/1
f 685/5/1 686/7/1 687/8/1 688/6/1
f 689/1/1 690/2/1 691/3/1 692/4/1
f 693/2/1 694/5/1 695/6/1 696/3/1
f 697/5/1 698/7/1 699/8/1 700/6/1
f 701/13/1 702/14/1 703/10/1 704/9/1
f 705/14/1 706/15/1 707/11/1 708/10/1
f 709/15/1 710/16/1 711/12/1 712/11/1
f 713/9/1 714/10/1 715/2/1 716/1/1
f 717/10/1 718/11/1 719/5/1 720/2/1
f 721/11/1 722/12/1 723/7/1 724/5/1
f 725/9/1 726/10/1 727/2/1 728/1/1
f 729/10/1 730/11/1 731/5/1 732/2/1
f 733/11/1 734/12/1 735/7/1 736/5/1
f 737/9/1 738/10/1 739/2/1 740/1/1
f 741/10/1 742/11/1 743/5/1 744/2/1
f 745/11/1 746/12/1 747/7/1 748/5/1
f 749/13/1 750/14/1 751/10/1 752/9/1
f 753/14/1 754/15/1 755/11/1 756/10/1
f 757/15/1 758/16/1 759/12/1 760/11/1
f 761/13/1 762/14/1 763/10/1 764/9/1
f 765/14/1 766/15/1 767/11/1 768/10/1
f 769/15/1 770/16/1 771/12/1 772/11/1
f 773/13/1 774/14/1 775/10/1 776/9/1
f 777/14/1 778/15/1 779/11/1 780/10/1
f 781/15/1 782/16/1 783/12/1 784/11/1

