# Tiled2Unity generated file. Do not modify by hand.
# Wavefront file for 'palawan_mesh_0004.obj'

# Vertices (Count = 792)
v -192 -448 0
v -224 -448 0
v -224 -416 0
v -192 -416 0
v -224 -448 0
v -256 -448 0
v -256 -416 0
v -224 -416 0
v -256 -448 0
v -288 -448 0
v -288 -416 0
v -256 -416 0
v -608 -448 0
v -640 -448 0
v -640 -416 0
v -608 -416 0
v -640 -448 0
v -672 -448 0
v -672 -416 0
v -640 -416 0
v -672 -448 0
v -704 -448 0
v -704 -416 0
v -672 -416 0
v -192 -480 0
v -224 -480 0
v -224 -448 0
v -192 -448 0
v -224 -480 0
v -256 -480 0
v -256 -448 0
v -224 -448 0
v -256 -480 0
v -288 -480 0
v -288 -448 0
v -256 -448 0
v -608 -480 0
v -640 -480 0
v -640 -448 0
v -608 -448 0
v -640 -480 0
v -672 -480 0
v -672 -448 0
v -640 -448 0
v -672 -480 0
v -704 -480 0
v -704 -448 0
v -672 -448 0
v -192 -512 0
v -224 -512 0
v -224 -480 0
v -192 -480 0
v -224 -512 0
v -256 -512 0
v -256 -480 0
v -224 -480 0
v -256 -512 0
v -288 -512 0
v -288 -480 0
v -256 -480 0
v -608 -512 0
v -640 -512 0
v -640 -480 0
v -608 -480 0
v -640 -512 0
v -672 -512 0
v -672 -480 0
v -640 -480 0
v -672 -512 0
v -704 -512 0
v -704 -480 0
v -672 -480 0
v -192 -544 0
v -224 -544 0
v -224 -512 0
v -192 -512 0
v -224 -544 0
v -256 -544 0
v -256 -512 0
v -224 -512 0
v -256 -544 0
v -288 -544 0
v -288 -512 0
v -256 -512 0
v -608 -544 0
v -640 -544 0
v -640 -512 0
v -608 -512 0
v -640 -544 0
v -672 -544 0
v -672 -512 0
v -640 -512 0
v -672 -544 0
v -704 -544 0
v -704 -512 0
v -672 -512 0
v -192 -576 0
v -224 -576 0
v -224 -544 0
v -192 -544 0
v -224 -576 0
v -256 -576 0
v -256 -544 0
v -224 -544 0
v -256 -576 0
v -288 -576 0
v -288 -544 0
v -256 -544 0
v -608 -576 0
v -640 -576 0
v -640 -544 0
v -608 -544 0
v -640 -576 0
v -672 -576 0
v -672 -544 0
v -640 -544 0
v -672 -576 0
v -704 -576 0
v -704 -544 0
v -672 -544 0
v -992 -832 0
v -1024 -832 0
v -1024 -800 0
v -992 -800 0
v -1024 -832 0
v -1056 -832 0
v -1056 -800 0
v -1024 -800 0
v -1056 -832 0
v -1088 -832 0
v -1088 -800 0
v -1056 -800 0
v -1088 -832 0
v -1120 -832 0
v -1120 -800 0
v -1088 -800 0
v -992 -864 0
v -1024 -864 0
v -1024 -832 0
v -992 -832 0
v -1024 -864 0
v -1056 -864 0
v -1056 -832 0
v -1024 -832 0
v -1056 -864 0
v -1088 -864 0
v -1088 -832 0
v -1056 -832 0
v -1088 -864 0
v -1120 -864 0
v -1120 -832 0
v -1088 -832 0
v -1120 -864 0
v -1152 -864 0
v -1152 -832 0
v -1120 -832 0
v -1152 -864 0
v -1184 -864 0
v -1184 -832 0
v -1152 -832 0
v -1280 -864 0
v -1312 -864 0
v -1312 -832 0
v -1280 -832 0
v -1312 -864 0
v -1344 -864 0
v -1344 -832 0
v -1312 -832 0
v -1376 -864 0
v -1408 -864 0
v -1408 -832 0
v -1376 -832 0
v -1408 -864 0
v -1440 -864 0
v -1440 -832 0
v -1408 -832 0
v -960 -896 0
v -992 -896 0
v -992 -864 0
v -960 -864 0
v -992 -896 0
v -1024 -896 0
v -1024 -864 0
v -992 -864 0
v -1024 -896 0
v -1056 -896 0
v -1056 -864 0
v -1024 -864 0
v -1056 -896 0
v -1088 -896 0
v -1088 -864 0
v -1056 -864 0
v -1088 -896 0
v -1120 -896 0
v -1120 -864 0
v -1088 -864 0
v -1120 -896 0
v -1152 -896 0
v -1152 -864 0
v -1120 -864 0
v -1152 -896 0
v -1184 -896 0
v -1184 -864 0
v -1152 -864 0
v -1280 -896 0
v -1312 -896 0
v -1312 -864 0
v -1280 -864 0
v -1312 -896 0
v -1344 -896 0
v -1344 -864 0
v -1312 -864 0
v -1376 -896 0
v -1408 -896 0
v -1408 -864 0
v -1376 -864 0
v -1408 -896 0
v -1440 -896 0
v -1440 -864 0
v -1408 -864 0
v -960 -928 0
v -992 -928 0
v -992 -896 0
v -960 -896 0
v -992 -928 0
v -1024 -928 0
v -1024 -896 0
v -992 -896 0
v -1024 -928 0
v -1056 -928 0
v -1056 -896 0
v -1024 -896 0
v -1056 -928 0
v -1088 -928 0
v -1088 -896 0
v -1056 -896 0
v -1088 -928 0
v -1120 -928 0
v -1120 -896 0
v -1088 -896 0
v -1120 -928 0
v -1152 -928 0
v -1152 -896 0
v -1120 -896 0
v -1152 -928 0
v -1184 -928 0
v -1184 -896 0
v -1152 -896 0
v -1280 -928 0
v -1312 -928 0
v -1312 -896 0
v -1280 -896 0
v -1312 -928 0
v -1344 -928 0
v -1344 -896 0
v -1312 -896 0
v -1344 -928 0
v -1376 -928 0
v -1376 -896 0
v -1344 -896 0
v -1376 -928 0
v -1408 -928 0
v -1408 -896 0
v -1376 -896 0
v -1408 -928 0
v -1440 -928 0
v -1440 -896 0
v -1408 -896 0
v -1440 -928 0
v -1472 -928 0
v -1472 -896 0
v -1440 -896 0
v -960 -960 0
v -992 -960 0
v -992 -928 0
v -960 -928 0
v -992 -960 0
v -1024 -960 0
v -1024 -928 0
v -992 -928 0
v -1024 -960 0
v -1056 -960 0
v -1056 -928 0
v -1024 -928 0
v -1056 -960 0
v -1088 -960 0
v -1088 -928 0
v -1056 -928 0
v -1088 -960 0
v -1120 -960 0
v -1120 -928 0
v -1088 -928 0
v -1120 -960 0
v -1152 -960 0
v -1152 -928 0
v -1120 -928 0
v -1280 -960 0
v -1312 -960 0
v -1312 -928 0
v -1280 -928 0
v -1312 -960 0
v -1344 -960 0
v -1344 -928 0
v -1312 -928 0
v -1344 -960 0
v -1376 -960 0
v -1376 -928 0
v -1344 -928 0
v -1376 -960 0
v -1408 -960 0
v -1408 -928 0
v -1376 -928 0
v -1408 -960 0
v -1440 -960 0
v -1440 -928 0
v -1408 -928 0
v -1440 -960 0
v -1472 -960 0
v -1472 -928 0
v -1440 -928 0
v -960 -992 0
v -992 -992 0
v -992 -960 0
v -960 -960 0
v -992 -992 0
v -1024 -992 0
v -1024 -960 0
v -992 -960 0
v -1024 -992 0
v -1056 -992 0
v -1056 -960 0
v -1024 -960 0
v -1056 -992 0
v -1088 -992 0
v -1088 -960 0
v -1056 -960 0
v -1088 -992 0
v -1120 -992 0
v -1120 -960 0
v -1088 -960 0
v -1120 -992 0
v -1152 -992 0
v -1152 -960 0
v -1120 -960 0
v -1280 -992 0
v -1312 -992 0
v -1312 -960 0
v -1280 -960 0
v -1312 -992 0
v -1344 -992 0
v -1344 -960 0
v -1312 -960 0
v -1344 -992 0
v -1376 -992 0
v -1376 -960 0
v -1344 -960 0
v -1376 -992 0
v -1408 -992 0
v -1408 -960 0
v -1376 -960 0
v -1408 -992 0
v -1440 -992 0
v -1440 -960 0
v -1408 -960 0
v -1440 -992 0
v -1472 -992 0
v -1472 -960 0
v -1440 -960 0
v -736 -1024 0
v -768 -1024 0
v -768 -992 0
v -736 -992 0
v -768 -1024 0
v -800 -1024 0
v -800 -992 0
v -768 -992 0
v -800 -1024 0
v -832 -1024 0
v -832 -992 0
v -800 -992 0
v -832 -1024 0
v -864 -1024 0
v -864 -992 0
v -832 -992 0
v -864 -1024 0
v -896 -1024 0
v -896 -992 0
v -864 -992 0
v -896 -1024 0
v -928 -1024 0
v -928 -992 0
v -896 -992 0
v -736 -1056 0
v -768 -1056 0
v -768 -1024 0
v -736 -1024 0
v -768 -1056 0
v -800 -1056 0
v -800 -1024 0
v -768 -1024 0
v -800 -1056 0
v -832 -1056 0
v -832 -1024 0
v -800 -1024 0
v -832 -1056 0
v -864 -1056 0
v -864 -1024 0
v -832 -1024 0
v -864 -1056 0
v -896 -1056 0
v -896 -1024 0
v -864 -1024 0
v -896 -1056 0
v -928 -1056 0
v -928 -1024 0
v -896 -1024 0
v -736 -1088 0
v -768 -1088 0
v -768 -1056 0
v -736 -1056 0
v -768 -1088 0
v -800 -1088 0
v -800 -1056 0
v -768 -1056 0
v -800 -1088 0
v -832 -1088 0
v -832 -1056 0
v -800 -1056 0
v -832 -1088 0
v -864 -1088 0
v -864 -1056 0
v -832 -1056 0
v -864 -1088 0
v -896 -1088 0
v -896 -1056 0
v -864 -1056 0
v -896 -1088 0
v -928 -1088 0
v -928 -1056 0
v -896 -1056 0
v -960 -1088 0
v -992 -1088 0
v -992 -1056 0
v -960 -1056 0
v -992 -1088 0
v -1024 -1088 0
v -1024 -1056 0
v -992 -1056 0
v -1024 -1088 0
v -1056 -1088 0
v -1056 -1056 0
v -1024 -1056 0
v -1056 -1088 0
v -1088 -1088 0
v -1088 -1056 0
v -1056 -1056 0
v -1088 -1088 0
v -1120 -1088 0
v -1120 -1056 0
v -1088 -1056 0
v -1120 -1088 0
v -1152 -1088 0
v -1152 -1056 0
v -1120 -1056 0
v -1152 -1088 0
v -1184 -1088 0
v -1184 -1056 0
v -1152 -1056 0
v -1184 -1088 0
v -1216 -1088 0
v -1216 -1056 0
v -1184 -1056 0
v -960 -1120 0
v -992 -1120 0
v -992 -1088 0
v -960 -1088 0
v -992 -1120 0
v -1024 -1120 0
v -1024 -1088 0
v -992 -1088 0
v -1024 -1120 0
v -1056 -1120 0
v -1056 -1088 0
v -1024 -1088 0
v -1056 -1120 0
v -1088 -1120 0
v -1088 -1088 0
v -1056 -1088 0
v -1088 -1120 0
v -1120 -1120 0
v -1120 -1088 0
v -1088 -1088 0
v -1120 -1120 0
v -1152 -1120 0
v -1152 -1088 0
v -1120 -1088 0
v -1152 -1120 0
v -1184 -1120 0
v -1184 -1088 0
v -1152 -1088 0
v -1184 -1120 0
v -1216 -1120 0
v -1216 -1088 0
v -1184 -1088 0
v -1216 -1120 0
v -1248 -1120 0
v -1248 -1088 0
v -1216 -1088 0
v -1248 -1120 0
v -1280 -1120 0
v -1280 -1088 0
v -1248 -1088 0
v -1280 -1120 0
v -1312 -1120 0
v -1312 -1088 0
v -1280 -1088 0
v -1312 -1120 0
v -1344 -1120 0
v -1344 -1088 0
v -1312 -1088 0
v -1344 -1120 0
v -1376 -1120 0
v -1376 -1088 0
v -1344 -1088 0
v -1376 -1120 0
v -1408 -1120 0
v -1408 -1088 0
v -1376 -1088 0
v -1408 -1120 0
v -1440 -1120 0
v -1440 -1088 0
v -1408 -1088 0
v -960 -1152 0
v -992 -1152 0
v -992 -1120 0
v -960 -1120 0
v -992 -1152 0
v -1024 -1152 0
v -1024 -1120 0
v -992 -1120 0
v -1024 -1152 0
v -1056 -1152 0
v -1056 -1120 0
v -1024 -1120 0
v -1056 -1152 0
v -1088 -1152 0
v -1088 -1120 0
v -1056 -1120 0
v -1088 -1152 0
v -1120 -1152 0
v -1120 -1120 0
v -1088 -1120 0
v -1120 -1152 0
v -1152 -1152 0
v -1152 -1120 0
v -1120 -1120 0
v -1152 -1152 0
v -1184 -1152 0
v -1184 -1120 0
v -1152 -1120 0
v -1184 -1152 0
v -1216 -1152 0
v -1216 -1120 0
v -1184 -1120 0
v -1216 -1152 0
v -1248 -1152 0
v -1248 -1120 0
v -1216 -1120 0
v -1248 -1152 0
v -1280 -1152 0
v -1280 -1120 0
v -1248 -1120 0
v -1280 -1152 0
v -1312 -1152 0
v -1312 -1120 0
v -1280 -1120 0
v -1312 -1152 0
v -1344 -1152 0
v -1344 -1120 0
v -1312 -1120 0
v -1344 -1152 0
v -1376 -1152 0
v -1376 -1120 0
v -1344 -1120 0
v -1376 -1152 0
v -1408 -1152 0
v -1408 -1120 0
v -1376 -1120 0
v -1408 -1152 0
v -1440 -1152 0
v -1440 -1120 0
v -1408 -1120 0
v -736 -1184 0
v -768 -1184 0
v -768 -1152 0
v -736 -1152 0
v -768 -1184 0
v -800 -1184 0
v -800 -1152 0
v -768 -1152 0
v -800 -1184 0
v -832 -1184 0
v -832 -1152 0
v -800 -1152 0
v -832 -1184 0
v -864 -1184 0
v -864 -1152 0
v -832 -1152 0
v -960 -1184 0
v -992 -1184 0
v -992 -1152 0
v -960 -1152 0
v -992 -1184 0
v -1024 -1184 0
v -1024 -1152 0
v -992 -1152 0
v -1024 -1184 0
v -1056 -1184 0
v -1056 -1152 0
v -1024 -1152 0
v -1056 -1184 0
v -1088 -1184 0
v -1088 -1152 0
v -1056 -1152 0
v -1088 -1184 0
v -1120 -1184 0
v -1120 -1152 0
v -1088 -1152 0
v -1120 -1184 0
v -1152 -1184 0
v -1152 -1152 0
v -1120 -1152 0
v -1152 -1184 0
v -1184 -1184 0
v -1184 -1152 0
v -1152 -1152 0
v -1184 -1184 0
v -1216 -1184 0
v -1216 -1152 0
v -1184 -1152 0
v -1216 -1184 0
v -1248 -1184 0
v -1248 -1152 0
v -1216 -1152 0
v -1248 -1184 0
v -1280 -1184 0
v -1280 -1152 0
v -1248 -1152 0
v -1280 -1184 0
v -1312 -1184 0
v -1312 -1152 0
v -1280 -1152 0
v -1312 -1184 0
v -1344 -1184 0
v -1344 -1152 0
v -1312 -1152 0
v -1344 -1184 0
v -1376 -1184 0
v -1376 -1152 0
v -1344 -1152 0
v -1376 -1184 0
v -1408 -1184 0
v -1408 -1152 0
v -1376 -1152 0
v -1408 -1184 0
v -1440 -1184 0
v -1440 -1152 0
v -1408 -1152 0
v -736 -1216 0
v -768 -1216 0
v -768 -1184 0
v -736 -1184 0
v -768 -1216 0
v -800 -1216 0
v -800 -1184 0
v -768 -1184 0
v -800 -1216 0
v -832 -1216 0
v -832 -1184 0
v -800 -1184 0
v -832 -1216 0
v -864 -1216 0
v -864 -1184 0
v -832 -1184 0
v -960 -1216 0
v -992 -1216 0
v -992 -1184 0
v -960 -1184 0
v -992 -1216 0
v -1024 -1216 0
v -1024 -1184 0
v -992 -1184 0
v -1024 -1216 0
v -1056 -1216 0
v -1056 -1184 0
v -1024 -1184 0
v -1056 -1216 0
v -1088 -1216 0
v -1088 -1184 0
v -1056 -1184 0
v -1088 -1216 0
v -1120 -1216 0
v -1120 -1184 0
v -1088 -1184 0
v -1120 -1216 0
v -1152 -1216 0
v -1152 -1184 0
v -1120 -1184 0
v -1152 -1216 0
v -1184 -1216 0
v -1184 -1184 0
v -1152 -1184 0
v -1184 -1216 0
v -1216 -1216 0
v -1216 -1184 0
v -1184 -1184 0
v -1216 -1216 0
v -1248 -1216 0
v -1248 -1184 0
v -1216 -1184 0
v -1248 -1216 0
v -1280 -1216 0
v -1280 -1184 0
v -1248 -1184 0
v -1280 -1216 0
v -1312 -1216 0
v -1312 -1184 0
v -1280 -1184 0
v -1312 -1216 0
v -1344 -1216 0
v -1344 -1184 0
v -1312 -1184 0
v -1344 -1216 0
v -1376 -1216 0
v -1376 -1184 0
v -1344 -1184 0
v -1376 -1216 0
v -1408 -1216 0
v -1408 -1184 0
v -1376 -1184 0
v -1408 -1216 0
v -1440 -1216 0
v -1440 -1184 0
v -1408 -1184 0
v -256 -1408 0
v -288 -1408 0
v -288 -1376 0
v -256 -1376 0
v -288 -1408 0
v -320 -1408 0
v -320 -1376 0
v -288 -1376 0
v -320 -1408 0
v -352 -1408 0
v -352 -1376 0
v -320 -1376 0
v -256 -1440 0
v -288 -1440 0
v -288 -1408 0
v -256 -1408 0
v -288 -1440 0
v -320 -1440 0
v -320 -1408 0
v -288 -1408 0
v -320 -1440 0
v -352 -1440 0
v -352 -1408 0
v -320 -1408 0
v -256 -1472 0
v -288 -1472 0
v -288 -1440 0
v -256 -1440 0
v -288 -1472 0
v -320 -1472 0
v -320 -1440 0
v -288 -1440 0
v -320 -1472 0
v -352 -1472 0
v -352 -1440 0
v -320 -1440 0
v -256 -1504 0
v -288 -1504 0
v -288 -1472 0
v -256 -1472 0
v -288 -1504 0
v -320 -1504 0
v -320 -1472 0
v -288 -1472 0
v -320 -1504 0
v -352 -1504 0
v -352 -1472 0
v -320 -1472 0

# Texture cooridinates (Count = 108)
vt 0.375 0.53125
vt 0.40625 0.53125
vt 0.40625 0.5625
vt 0.375 0.5625
vt 0.4375 0.53125
vt 0.4375 0.5625
vt 0.46875 0.53125
vt 0.46875 0.5625
vt 0.375 0.5
vt 0.40625 0.5
vt 0.4375 0.5
vt 0.46875 0.5
vt 0.375 0.46875
vt 0.40625 0.46875
vt 0.4375 0.46875
vt 0.46875 0.46875
vt 0.09375 0.625
vt 0.125 0.625
vt 0.125 0.65625
vt 0.09375 0.65625
vt 0.15625 0.625
vt 0.15625 0.65625
vt 0.09375 0.59375
vt 0.125 0.59375
vt 0.15625 0.59375
vt 0.1875 0.53125
vt 0.21875 0.53125
vt 0.21875 0.5625
vt 0.1875 0.5625
vt 0.25 0.53125
vt 0.25 0.5625
vt 0.09375 0.5
vt 0.125 0.5
vt 0.125 0.53125
vt 0.09375 0.53125
vt 0.15625 0.5
vt 0.15625 0.53125
vt 0.09375 0.5625
vt 0.125 0.5625
vt 0.15625 0.5625
vt 0 0.4375
vt 0.03125 0.4375
vt 0.03125 0.46875
vt 0 0.46875
vt 0.0625 0.4375
vt 0.0625 0.46875
vt 0.09375 0.4375
vt 0.09375 0.46875
vt 0.1875 0.5
vt 0.21875 0.5
vt 0.25 0.5
vt 0.125 0.46875
vt 0.15625 0.46875
vt 0 0.40625
vt 0.03125 0.40625
vt 0.0625 0.40625
vt 0.09375 0.40625
vt 0.1875 0.46875
vt 0.21875 0.46875
vt 0.25 0.46875
vt 0.25 0.3125
vt 0.28125 0.3125
vt 0.28125 0.34375
vt 0.25 0.34375
vt 0.3125 0.3125
vt 0.3125 0.34375
vt 0.34375 0.3125
vt 0.34375 0.34375
vt 0.375 0.3125
vt 0.375 0.34375
vt 0.40625 0.3125
vt 0.40625 0.34375
vt 0.4375 0.3125
vt 0.4375 0.34375
vt 0.46875 0.3125
vt 0.46875 0.34375
vt 0.25 0.28125
vt 0.28125 0.28125
vt 0.3125 0.28125
vt 0.34375 0.28125
vt 0.375 0.28125
vt 0.40625 0.28125
vt 0.4375 0.28125
vt 0.46875 0.28125
vt 0.21875 0.125
vt 0.25 0.125
vt 0.25 0.15625
vt 0.21875 0.15625
vt 0.28125 0.125
vt 0.28125 0.15625
vt 0.3125 0.125
vt 0.3125 0.15625
vt 0.34375 0.125
vt 0.34375 0.15625
vt 0 0.5625
vt 0.03125 0.5625
vt 0.03125 0.59375
vt 0 0.59375
vt 0.0625 0.5625
vt 0.0625 0.59375
vt 0.21875 0.09375
vt 0.25 0.09375
vt 0.28125 0.09375
vt 0.3125 0.09375
vt 0.34375 0.09375
vt 0 0.53125
vt 0.03125 0.53125
vt 0.0625 0.53125

# Normal
vn 0 0 -1

# Mesh description
g palawan_mesh_0004

# Faces
f 1/1/1 2/2/1 3/3/1 4/4/1
f 5/2/1 6/5/1 7/6/1 8/3/1
f 9/5/1 10/7/1 11/8/1 12/6/1
f 13/1/1 14/2/1 15/3/1 16/4/1
f 17/2/1 18/5/1 19/6/1 20/3/1
f 21/5/1 22/7/1 23/8/1 24/6/1
f 25/9/1 26/10/1 27/2/1 28/1/1
f 29/10/1 30/11/1 31/5/1 32/2/1
f 33/11/1 34/12/1 35/7/1 36/5/1
f 37/9/1 38/10/1 39/2/1 40/1/1
f 41/10/1 42/11/1 43/5/1 44/2/1
f 45/11/1 46/12/1 47/7/1 48/5/1
f 49/9/1 50/10/1 51/2/1 52/1/1
f 53/10/1 54/11/1 55/5/1 56/2/1
f 57/11/1 58/12/1 59/7/1 60/5/1
f 61/9/1 62/10/1 63/2/1 64/1/1
f 65/10/1 66/11/1 67/5/1 68/2/1
f 69/11/1 70/12/1 71/7/1 72/5/1
f 73/9/1 74/10/1 75/2/1 76/1/1
f 77/10/1 78/11/1 79/5/1 80/2/1
f 81/11/1 82/12/1 83/7/1 84/5/1
f 85/9/1 86/10/1 87/2/1 88/1/1
f 89/10/1 90/11/1 91/5/1 92/2/1
f 93/11/1 94/12/1 95/7/1 96/5/1
f 97/13/1 98/14/1 99/10/1 100/9/1
f 101/14/1 102/15/1 103/11/1 104/10/1
f 105/15/1 106/16/1 107/12/1 108/11/1
f 109/13/1 110/14/1 111/10/1 112/9/1
f 113/14/1 114/15/1 115/11/1 116/10/1
f 117/15/1 118/16/1 119/12/1 120/11/1
f 121/17/1 122/18/1 123/19/1 124/20/1
f 125/18/1 126/21/1 127/22/1 128/19/1
f 129/17/1 130/18/1 131/19/1 132/20/1
f 133/18/1 134/21/1 135/22/1 136/19/1
f 137/23/1 138/24/1 139/18/1 140/17/1
f 141/24/1 142/25/1 143/21/1 144/18/1
f 145/23/1 146/24/1 147/18/1 148/17/1
f 149/24/1 150/25/1 151/21/1 152/18/1
f 153/26/1 154/27/1 155/28/1 156/29/1
f 157/27/1 158/30/1 159/31/1 160/28/1
f 161/32/1 162/33/1 163/34/1 164/35/1
f 165/33/1 166/36/1 167/37/1 168/34/1
f 169/38/1 170/39/1 171/24/1 172/23/1
f 173/39/1 174/40/1 175/25/1 176/24/1
f 177/41/1 178/42/1 179/43/1 180/44/1
f 181/42/1 182/45/1 183/46/1 184/43/1
f 185/45/1 186/47/1 187/48/1 188/46/1
f 189/17/1 190/18/1 191/19/1 192/20/1
f 193/18/1 194/21/1 195/22/1 196/19/1
f 197/49/1 198/50/1 199/27/1 200/26/1
f 201/50/1 202/51/1 203/30/1 204/27/1
f 205/48/1 206/52/1 207/33/1 208/32/1
f 209/52/1 210/53/1 211/36/1 212/33/1
f 213/35/1 214/34/1 215/39/1 216/38/1
f 217/34/1 218/37/1 219/40/1 220/39/1
f 221/54/1 222/55/1 223/42/1 224/41/1
f 225/55/1 226/56/1 227/45/1 228/42/1
f 229/56/1 230/57/1 231/47/1 232/45/1
f 233/23/1 234/24/1 235/18/1 236/17/1
f 237/24/1 238/25/1 239/21/1 240/18/1
f 241/58/1 242/59/1 243/50/1 244/49/1
f 245/59/1 246/60/1 247/51/1 248/50/1
f 249/26/1 250/27/1 251/28/1 252/29/1
f 253/27/1 254/30/1 255/31/1 256/28/1
f 257/26/1 258/27/1 259/28/1 260/29/1
f 261/27/1 262/30/1 263/31/1 264/28/1
f 265/26/1 266/27/1 267/28/1 268/29/1
f 269/27/1 270/30/1 271/31/1 272/28/1
f 273/32/1 274/33/1 275/34/1 276/35/1
f 277/33/1 278/36/1 279/37/1 280/34/1
f 281/32/1 282/33/1 283/34/1 284/35/1
f 285/33/1 286/36/1 287/37/1 288/34/1
f 289/38/1 290/39/1 291/24/1 292/23/1
f 293/39/1 294/40/1 295/25/1 296/24/1
f 297/49/1 298/50/1 299/27/1 300/26/1
f 301/50/1 302/51/1 303/30/1 304/27/1
f 305/49/1 306/50/1 307/27/1 308/26/1
f 309/50/1 310/51/1 311/30/1 312/27/1
f 313/49/1 314/50/1 315/27/1 316/26/1
f 317/50/1 318/51/1 319/30/1 320/27/1
f 321/48/1 322/52/1 323/33/1 324/32/1
f 325/52/1 326/53/1 327/36/1 328/33/1
f 329/48/1 330/52/1 331/33/1 332/32/1
f 333/52/1 334/53/1 335/36/1 336/33/1
f 337/35/1 338/34/1 339/39/1 340/38/1
f 341/34/1 342/37/1 343/40/1 344/39/1
f 345/58/1 346/59/1 347/50/1 348/49/1
f 349/59/1 350/60/1 351/51/1 352/50/1
f 353/58/1 354/59/1 355/50/1 356/49/1
f 357/59/1 358/60/1 359/51/1 360/50/1
f 361/58/1 362/59/1 363/50/1 364/49/1
f 365/59/1 366/60/1 367/51/1 368/50/1
f 369/1/1 370/2/1 371/3/1 372/4/1
f 373/2/1 374/5/1 375/6/1 376/3/1
f 377/2/1 378/5/1 379/6/1 380/3/1
f 381/2/1 382/5/1 383/6/1 384/3/1
f 385/2/1 386/5/1 387/6/1 388/3/1
f 389/5/1 390/7/1 391/8/1 392/6/1
f 393/9/1 394/10/1 395/2/1 396/1/1
f 397/10/1 398/11/1 399/5/1 400/2/1
f 401/10/1 402/11/1 403/5/1 404/2/1
f 405/10/1 406/11/1 407/5/1 408/2/1
f 409/10/1 410/11/1 411/5/1 412/2/1
f 413/11/1 414/12/1 415/7/1 416/5/1
f 417/13/1 418/14/1 419/10/1 420/9/1
f 421/14/1 422/15/1 423/11/1 424/10/1
f 425/14/1 426/15/1 427/11/1 428/10/1
f 429/14/1 430/15/1 431/11/1 432/10/1
f 433/14/1 434/15/1 435/11/1 436/10/1
f 437/15/1 438/16/1 439/12/1 440/11/1
f 441/26/1 442/27/1 443/28/1 444/29/1
f 445/27/1 446/30/1 447/31/1 448/28/1
f 449/26/1 450/27/1 451/28/1 452/29/1
f 453/27/1 454/30/1 455/31/1 456/28/1
f 457/26/1 458/27/1 459/28/1 460/29/1
f 461/27/1 462/30/1 463/31/1 464/28/1
f 465/26/1 466/27/1 467/28/1 468/29/1
f 469/27/1 470/30/1 471/31/1 472/28/1
f 473/49/1 474/50/1 475/27/1 476/26/1
f 477/50/1 478/51/1 479/30/1 480/27/1
f 481/49/1 482/50/1 483/27/1 484/26/1
f 485/50/1 486/51/1 487/30/1 488/27/1
f 489/49/1 490/50/1 491/27/1 492/26/1
f 493/50/1 494/51/1 495/30/1 496/27/1
f 497/49/1 498/50/1 499/27/1 500/26/1
f 501/50/1 502/51/1 503/30/1 504/27/1
f 505/61/1 506/62/1 507/63/1 508/64/1
f 509/62/1 510/65/1 511/66/1 512/63/1
f 513/65/1 514/67/1 515/68/1 516/66/1
f 517/67/1 518/69/1 519/70/1 520/68/1
f 521/69/1 522/71/1 523/72/1 524/70/1
f 525/71/1 526/73/1 527/74/1 528/72/1
f 529/73/1 530/75/1 531/76/1 532/74/1
f 533/58/1 534/59/1 535/50/1 536/49/1
f 537/59/1 538/60/1 539/51/1 540/50/1
f 541/58/1 542/59/1 543/50/1 544/49/1
f 545/59/1 546/60/1 547/51/1 548/50/1
f 549/58/1 550/59/1 551/50/1 552/49/1
f 553/59/1 554/60/1 555/51/1 556/50/1
f 557/58/1 558/59/1 559/50/1 560/49/1
f 561/59/1 562/60/1 563/51/1 564/50/1
f 565/77/1 566/78/1 567/62/1 568/61/1
f 569/78/1 570/79/1 571/65/1 572/62/1
f 573/79/1 574/80/1 575/67/1 576/65/1
f 577/80/1 578/81/1 579/69/1 580/67/1
f 581/81/1 582/82/1 583/71/1 584/69/1
f 585/82/1 586/83/1 587/73/1 588/71/1
f 589/83/1 590/84/1 591/75/1 592/73/1
f 593/85/1 594/86/1 595/87/1 596/88/1
f 597/86/1 598/89/1 599/90/1 600/87/1
f 601/89/1 602/91/1 603/92/1 604/90/1
f 605/91/1 606/93/1 607/94/1 608/92/1
f 609/95/1 610/96/1 611/97/1 612/98/1
f 613/96/1 614/99/1 615/100/1 616/97/1
f 617/99/1 618/38/1 619/23/1 620/100/1
f 621/95/1 622/96/1 623/97/1 624/98/1
f 625/96/1 626/99/1 627/100/1 628/97/1
f 629/99/1 630/38/1 631/23/1 632/100/1
f 633/32/1 634/33/1 635/34/1 636/35/1
f 637/33/1 638/36/1 639/37/1 640/34/1
f 641/61/1 642/62/1 643/63/1 644/64/1
f 645/62/1 646/65/1 647/66/1 648/63/1
f 649/65/1 650/67/1 651/68/1 652/66/1
f 653/67/1 654/69/1 655/70/1 656/68/1
f 657/69/1 658/71/1 659/72/1 660/70/1
f 661/71/1 662/73/1 663/74/1 664/72/1
f 665/73/1 666/75/1 667/76/1 668/74/1
f 669/101/1 670/102/1 671/86/1 672/85/1
f 673/102/1 674/103/1 675/89/1 676/86/1
f 677/103/1 678/104/1 679/91/1 680/89/1
f 681/104/1 682/105/1 683/93/1 684/91/1
f 685/106/1 686/107/1 687/96/1 688/95/1
f 689/107/1 690/108/1 691/99/1 692/96/1
f 693/108/1 694/35/1 695/38/1 696/99/1
f 697/106/1 698/107/1 699/96/1 700/95/1
f 701/107/1 702/108/1 703/99/1 704/96/1
f 705/108/1 706/35/1 707/38/1 708/99/1
f 709/48/1 710/52/1 711/33/1 712/32/1
f 713/52/1 714/53/1 715/36/1 716/33/1
f 717/77/1 718/78/1 719/62/1 720/61/1
f 721/78/1 722/79/1 723/65/1 724/62/1
f 725/79/1 726/80/1 727/67/1 728/65/1
f 729/80/1 730/81/1 731/69/1 732/67/1
f 733/81/1 734/82/1 735/71/1 736/69/1
f 737/82/1 738/83/1 739/73/1 740/71/1
f 741/83/1 742/84/1 743/75/1 744/73/1
f 745/1/1 746/2/1 747/3/1 748/4/1
f 749/2/1 750/5/1 751/6/1 752/3/1
f 753/5/1 754/7/1 755/8/1 756/6/1
f 757/9/1 758/10/1 759/2/1 760/1/1
f 761/10/1 762/11/1 763/5/1 764/2/1
f 765/11/1 766/12/1 767/7/1 768/5/1
f 769/9/1 770/10/1 771/2/1 772/1/1
f 773/10/1 774/11/1 775/5/1 776/2/1
f 777/11/1 778/12/1 779/7/1 780/5/1
f 781/13/1 782/14/1 783/10/1 784/9/1
f 785/14/1 786/15/1 787/11/1 788/10/1
f 789/15/1 790/16/1 791/12/1 792/11/1

