# Tiled2Unity generated file. Do not modify by hand.
# Wavefront file for 'palawan_mesh_0007.obj'

# Vertices (Count = 380)
v -1504 -1248 0
v -1536 -1248 0
v -1536 -1216 0
v -1504 -1216 0
v -1536 -1248 0
v -1568 -1248 0
v -1568 -1216 0
v -1536 -1216 0
v -1568 -1248 0
v -1600 -1248 0
v -1600 -1216 0
v -1568 -1216 0
v -1504 -1280 0
v -1536 -1280 0
v -1536 -1248 0
v -1504 -1248 0
v -1536 -1280 0
v -1568 -1280 0
v -1568 -1248 0
v -1536 -1248 0
v -1568 -1280 0
v -1600 -1280 0
v -1600 -1248 0
v -1568 -1248 0
v -1120 -1312 0
v -1152 -1312 0
v -1152 -1280 0
v -1120 -1280 0
v -1152 -1312 0
v -1184 -1312 0
v -1184 -1280 0
v -1152 -1280 0
v -1184 -1312 0
v -1216 -1312 0
v -1216 -1280 0
v -1184 -1280 0
v -1280 -1312 0
v -1312 -1312 0
v -1312 -1280 0
v -1280 -1280 0
v -1312 -1312 0
v -1344 -1312 0
v -1344 -1280 0
v -1312 -1280 0
v -1344 -1312 0
v -1376 -1312 0
v -1376 -1280 0
v -1344 -1280 0
v -1440 -1312 0
v -1472 -1312 0
v -1472 -1280 0
v -1440 -1280 0
v -1472 -1312 0
v -1504 -1312 0
v -1504 -1280 0
v -1472 -1280 0
v -1504 -1312 0
v -1536 -1312 0
v -1536 -1280 0
v -1504 -1280 0
v -1536 -1312 0
v -1568 -1312 0
v -1568 -1280 0
v -1536 -1280 0
v -1568 -1312 0
v -1600 -1312 0
v -1600 -1280 0
v -1568 -1280 0
v -1120 -1344 0
v -1152 -1344 0
v -1152 -1312 0
v -1120 -1312 0
v -1152 -1344 0
v -1184 -1344 0
v -1184 -1312 0
v -1152 -1312 0
v -1184 -1344 0
v -1216 -1344 0
v -1216 -1312 0
v -1184 -1312 0
v -1280 -1344 0
v -1312 -1344 0
v -1312 -1312 0
v -1280 -1312 0
v -1312 -1344 0
v -1344 -1344 0
v -1344 -1312 0
v -1312 -1312 0
v -1344 -1344 0
v -1376 -1344 0
v -1376 -1312 0
v -1344 -1312 0
v -1440 -1344 0
v -1472 -1344 0
v -1472 -1312 0
v -1440 -1312 0
v -1472 -1344 0
v -1504 -1344 0
v -1504 -1312 0
v -1472 -1312 0
v -1504 -1344 0
v -1536 -1344 0
v -1536 -1312 0
v -1504 -1312 0
v -1120 -1376 0
v -1152 -1376 0
v -1152 -1344 0
v -1120 -1344 0
v -1152 -1376 0
v -1184 -1376 0
v -1184 -1344 0
v -1152 -1344 0
v -1184 -1376 0
v -1216 -1376 0
v -1216 -1344 0
v -1184 -1344 0
v -1280 -1376 0
v -1312 -1376 0
v -1312 -1344 0
v -1280 -1344 0
v -1312 -1376 0
v -1344 -1376 0
v -1344 -1344 0
v -1312 -1344 0
v -1344 -1376 0
v -1376 -1376 0
v -1376 -1344 0
v -1344 -1344 0
v -1440 -1376 0
v -1472 -1376 0
v -1472 -1344 0
v -1440 -1344 0
v -1472 -1376 0
v -1504 -1376 0
v -1504 -1344 0
v -1472 -1344 0
v -1504 -1376 0
v -1536 -1376 0
v -1536 -1344 0
v -1504 -1344 0
v -1088 -1408 0
v -1120 -1408 0
v -1120 -1376 0
v -1088 -1376 0
v -1120 -1408 0
v -1152 -1408 0
v -1152 -1376 0
v -1120 -1376 0
v -1152 -1408 0
v -1184 -1408 0
v -1184 -1376 0
v -1152 -1376 0
v -1280 -1408 0
v -1312 -1408 0
v -1312 -1376 0
v -1280 -1376 0
v -1312 -1408 0
v -1344 -1408 0
v -1344 -1376 0
v -1312 -1376 0
v -1344 -1408 0
v -1376 -1408 0
v -1376 -1376 0
v -1344 -1376 0
v -1088 -1440 0
v -1120 -1440 0
v -1120 -1408 0
v -1088 -1408 0
v -1120 -1440 0
v -1152 -1440 0
v -1152 -1408 0
v -1120 -1408 0
v -1152 -1440 0
v -1184 -1440 0
v -1184 -1408 0
v -1152 -1408 0
v -1280 -1440 0
v -1312 -1440 0
v -1312 -1408 0
v -1280 -1408 0
v -1312 -1440 0
v -1344 -1440 0
v -1344 -1408 0
v -1312 -1408 0
v -1344 -1440 0
v -1376 -1440 0
v -1376 -1408 0
v -1344 -1408 0
v -1408 -1440 0
v -1440 -1440 0
v -1440 -1408 0
v -1408 -1408 0
v -1440 -1440 0
v -1472 -1440 0
v -1472 -1408 0
v -1440 -1408 0
v -1472 -1440 0
v -1504 -1440 0
v -1504 -1408 0
v -1472 -1408 0
v -1088 -1472 0
v -1120 -1472 0
v -1120 -1440 0
v -1088 -1440 0
v -1120 -1472 0
v -1152 -1472 0
v -1152 -1440 0
v -1120 -1440 0
v -1152 -1472 0
v -1184 -1472 0
v -1184 -1440 0
v -1152 -1440 0
v -1280 -1472 0
v -1312 -1472 0
v -1312 -1440 0
v -1280 -1440 0
v -1312 -1472 0
v -1344 -1472 0
v -1344 -1440 0
v -1312 -1440 0
v -1344 -1472 0
v -1376 -1472 0
v -1376 -1440 0
v -1344 -1440 0
v -1408 -1472 0
v -1440 -1472 0
v -1440 -1440 0
v -1408 -1440 0
v -1440 -1472 0
v -1472 -1472 0
v -1472 -1440 0
v -1440 -1440 0
v -1472 -1472 0
v -1504 -1472 0
v -1504 -1440 0
v -1472 -1440 0
v -1408 -1504 0
v -1440 -1504 0
v -1440 -1472 0
v -1408 -1472 0
v -1440 -1504 0
v -1472 -1504 0
v -1472 -1472 0
v -1440 -1472 0
v -1472 -1504 0
v -1504 -1504 0
v -1504 -1472 0
v -1472 -1472 0
v -1056 -1536 0
v -1088 -1536 0
v -1088 -1504 0
v -1056 -1504 0
v -1088 -1536 0
v -1120 -1536 0
v -1120 -1504 0
v -1088 -1504 0
v -1120 -1536 0
v -1152 -1536 0
v -1152 -1504 0
v -1120 -1504 0
v -1248 -1536 0
v -1280 -1536 0
v -1280 -1504 0
v -1248 -1504 0
v -1280 -1536 0
v -1312 -1536 0
v -1312 -1504 0
v -1280 -1504 0
v -1312 -1536 0
v -1344 -1536 0
v -1344 -1504 0
v -1312 -1504 0
v -1472 -1536 0
v -1504 -1536 0
v -1504 -1504 0
v -1472 -1504 0
v -1504 -1536 0
v -1536 -1536 0
v -1536 -1504 0
v -1504 -1504 0
v -1536 -1536 0
v -1568 -1536 0
v -1568 -1504 0
v -1536 -1504 0
v -928 -1568 0
v -960 -1568 0
v -960 -1536 0
v -928 -1536 0
v -960 -1568 0
v -992 -1568 0
v -992 -1536 0
v -960 -1536 0
v -992 -1568 0
v -1024 -1568 0
v -1024 -1536 0
v -992 -1536 0
v -1056 -1568 0
v -1088 -1568 0
v -1088 -1536 0
v -1056 -1536 0
v -1088 -1568 0
v -1120 -1568 0
v -1120 -1536 0
v -1088 -1536 0
v -1120 -1568 0
v -1152 -1568 0
v -1152 -1536 0
v -1120 -1536 0
v -1248 -1568 0
v -1280 -1568 0
v -1280 -1536 0
v -1248 -1536 0
v -1280 -1568 0
v -1312 -1568 0
v -1312 -1536 0
v -1280 -1536 0
v -1312 -1568 0
v -1344 -1568 0
v -1344 -1536 0
v -1312 -1536 0
v -1472 -1568 0
v -1504 -1568 0
v -1504 -1536 0
v -1472 -1536 0
v -1504 -1568 0
v -1536 -1568 0
v -1536 -1536 0
v -1504 -1536 0
v -1536 -1568 0
v -1568 -1568 0
v -1568 -1536 0
v -1536 -1536 0
v -928 -1600 0
v -960 -1600 0
v -960 -1568 0
v -928 -1568 0
v -960 -1600 0
v -992 -1600 0
v -992 -1568 0
v -960 -1568 0
v -992 -1600 0
v -1024 -1600 0
v -1024 -1568 0
v -992 -1568 0
v -1056 -1600 0
v -1088 -1600 0
v -1088 -1568 0
v -1056 -1568 0
v -1088 -1600 0
v -1120 -1600 0
v -1120 -1568 0
v -1088 -1568 0
v -1120 -1600 0
v -1152 -1600 0
v -1152 -1568 0
v -1120 -1568 0
v -1248 -1600 0
v -1280 -1600 0
v -1280 -1568 0
v -1248 -1568 0
v -1280 -1600 0
v -1312 -1600 0
v -1312 -1568 0
v -1280 -1568 0
v -1312 -1600 0
v -1344 -1600 0
v -1344 -1568 0
v -1312 -1568 0
v -1472 -1600 0
v -1504 -1600 0
v -1504 -1568 0
v -1472 -1568 0
v -1504 -1600 0
v -1536 -1600 0
v -1536 -1568 0
v -1504 -1568 0
v -1536 -1600 0
v -1568 -1600 0
v -1568 -1568 0
v -1536 -1568 0

# Texture cooridinates (Count = 16)
vt 0 0.6666666
vt 0.1666667 0.6666666
vt 0.1666667 1
vt 0 1
vt 0.3333333 0.6666666
vt 0.3333333 1
vt 0.5 0.6666666
vt 0.5 1
vt 0 0.3333333
vt 0.1666667 0.3333333
vt 0.3333333 0.3333333
vt 0.5 0.3333333
vt 0 0
vt 0.1666667 0
vt 0.3333333 0
vt 0.5 0

# Normal
vn 0 0 -1

# Mesh description
g palawan_mesh_0007

# Faces
f 1/1/1 2/2/1 3/3/1 4/4/1
f 5/2/1 6/5/1 7/6/1 8/3/1
f 9/5/1 10/7/1 11/8/1 12/6/1
f 13/9/1 14/10/1 15/2/1 16/1/1
f 17/10/1 18/11/1 19/5/1 20/2/1
f 21/11/1 22/12/1 23/7/1 24/5/1
f 25/1/1 26/2/1 27/3/1 28/4/1
f 29/2/1 30/5/1 31/6/1 32/3/1
f 33/5/1 34/7/1 35/8/1 36/6/1
f 37/1/1 38/2/1 39/3/1 40/4/1
f 41/2/1 42/5/1 43/6/1 44/3/1
f 45/5/1 46/7/1 47/8/1 48/6/1
f 49/1/1 50/2/1 51/3/1 52/4/1
f 53/2/1 54/5/1 55/6/1 56/3/1
f 57/13/1 58/14/1 59/10/1 60/9/1
f 61/14/1 62/15/1 63/11/1 64/10/1
f 65/15/1 66/16/1 67/12/1 68/11/1
f 69/9/1 70/10/1 71/2/1 72/1/1
f 73/10/1 74/11/1 75/5/1 76/2/1
f 77/11/1 78/12/1 79/7/1 80/5/1
f 81/9/1 82/10/1 83/2/1 84/1/1
f 85/10/1 86/11/1 87/5/1 88/2/1
f 89/11/1 90/12/1 91/7/1 92/5/1
f 93/9/1 94/10/1 95/2/1 96/1/1
f 97/10/1 98/11/1 99/5/1 100/2/1
f 101/11/1 102/12/1 103/7/1 104/5/1
f 105/13/1 106/14/1 107/10/1 108/9/1
f 109/14/1 110/15/1 111/11/1 112/10/1
f 113/15/1 114/16/1 115/12/1 116/11/1
f 117/13/1 118/14/1 119/10/1 120/9/1
f 121/14/1 122/15/1 123/11/1 124/10/1
f 125/15/1 126/16/1 127/12/1 128/11/1
f 129/13/1 130/14/1 131/10/1 132/9/1
f 133/14/1 134/15/1 135/11/1 136/10/1
f 137/15/1 138/16/1 139/12/1 140/11/1
f 141/1/1 142/2/1 143/3/1 144/4/1
f 145/2/1 146/5/1 147/6/1 148/3/1
f 149/5/1 150/7/1 151/8/1 152/6/1
f 153/1/1 154/2/1 155/3/1 156/4/1
f 157/2/1 158/5/1 159/6/1 160/3/1
f 161/5/1 162/7/1 163/8/1 164/6/1
f 165/9/1 166/10/1 167/2/1 168/1/1
f 169/10/1 170/11/1 171/5/1 172/2/1
f 173/11/1 174/12/1 175/7/1 176/5/1
f 177/9/1 178/10/1 179/2/1 180/1/1
f 181/10/1 182/11/1 183/5/1 184/2/1
f 185/11/1 186/12/1 187/7/1 188/5/1
f 189/1/1 190/2/1 191/3/1 192/4/1
f 193/2/1 194/5/1 195/6/1 196/3/1
f 197/5/1 198/7/1 199/8/1 200/6/1
f 201/13/1 202/14/1 203/10/1 204/9/1
f 205/14/1 206/15/1 207/11/1 208/10/1
f 209/15/1 210/16/1 211/12/1 212/11/1
f 213/13/1 214/14/1 215/10/1 216/9/1
f 217/14/1 218/15/1 219/11/1 220/10/1
f 221/15/1 222/16/1 223/12/1 224/11/1
f 225/9/1 226/10/1 227/2/1 228/1/1
f 229/10/1 230/11/1 231/5/1 232/2/1
f 233/11/1 234/12/1 235/7/1 236/5/1
f 237/13/1 238/14/1 239/10/1 240/9/1
f 241/14/1 242/15/1 243/11/1 244/10/1
f 245/15/1 246/16/1 247/12/1 248/11/1
f 249/1/1 250/2/1 251/3/1 252/4/1
f 253/2/1 254/5/1 255/6/1 256/3/1
f 257/5/1 258/7/1 259/8/1 260/6/1
f 261/1/1 262/2/1 263/3/1 264/4/1
f 265/2/1 266/5/1 267/6/1 268/3/1
f 269/5/1 270/7/1 271/8/1 272/6/1
f 273/1/1 274/2/1 275/3/1 276/4/1
f 277/2/1 278/5/1 279/6/1 280/3/1
f 281/5/1 282/7/1 283/8/1 284/6/1
f 285/1/1 286/2/1 287/3/1 288/4/1
f 289/2/1 290/5/1 291/6/1 292/3/1
f 293/5/1 294/7/1 295/8/1 296/6/1
f 297/9/1 298/10/1 299/2/1 300/1/1
f 301/10/1 302/11/1 303/5/1 304/2/1
f 305/11/1 306/12/1 307/7/1 308/5/1
f 309/9/1 310/10/1 311/2/1 312/1/1
f 313/10/1 314/11/1 315/5/1 316/2/1
f 317/11/1 318/12/1 319/7/1 320/5/1
f 321/9/1 322/10/1 323/2/1 324/1/1
f 325/10/1 326/11/1 327/5/1 328/2/1
f 329/11/1 330/12/1 331/7/1 332/5/1
f 333/9/1 334/10/1 335/2/1 336/1/1
f 337/10/1 338/11/1 339/5/1 340/2/1
f 341/11/1 342/12/1 343/7/1 344/5/1
f 345/13/1 346/14/1 347/10/1 348/9/1
f 349/14/1 350/15/1 351/11/1 352/10/1
f 353/15/1 354/16/1 355/12/1 356/11/1
f 357/13/1 358/14/1 359/10/1 360/9/1
f 361/14/1 362/15/1 363/11/1 364/10/1
f 365/15/1 366/16/1 367/12/1 368/11/1
f 369/13/1 370/14/1 371/10/1 372/9/1
f 373/14/1 374/15/1 375/11/1 376/10/1
f 377/15/1 378/16/1 379/12/1 380/11/1

