# Tiled2Unity generated file. Do not modify by hand.
# Wavefront file for 'livingroommap_mesh_0002.obj'

# Vertices (Count = 232)
v 0 -32 0
v -32 -32 0
v -32 0 0
v 0 0 0
v -32 -32 0
v -64 -32 0
v -64 0 0
v -32 0 0
v -64 -32 0
v -96 -32 0
v -96 0 0
v -64 0 0
v -96 -32 0
v -128 -32 0
v -128 0 0
v -96 0 0
v -128 -32 0
v -160 -32 0
v -160 0 0
v -128 0 0
v -224 -32 0
v -256 -32 0
v -256 0 0
v -224 0 0
v -256 -32 0
v -288 -32 0
v -288 0 0
v -256 0 0
v -288 -32 0
v -320 -32 0
v -320 0 0
v -288 0 0
v -320 -32 0
v -352 -32 0
v -352 0 0
v -320 0 0
v -352 -32 0
v -384 -32 0
v -384 0 0
v -352 0 0
v 0 -64 0
v -32 -64 0
v -32 -32 0
v 0 -32 0
v -32 -64 0
v -64 -64 0
v -64 -32 0
v -32 -32 0
v -64 -64 0
v -96 -64 0
v -96 -32 0
v -64 -32 0
v -96 -64 0
v -128 -64 0
v -128 -32 0
v -96 -32 0
v -128 -64 0
v -160 -64 0
v -160 -32 0
v -128 -32 0
v -224 -64 0
v -256 -64 0
v -256 -32 0
v -224 -32 0
v -256 -64 0
v -288 -64 0
v -288 -32 0
v -256 -32 0
v -288 -64 0
v -320 -64 0
v -320 -32 0
v -288 -32 0
v -320 -64 0
v -352 -64 0
v -352 -32 0
v -320 -32 0
v -352 -64 0
v -384 -64 0
v -384 -32 0
v -352 -32 0
v 0 -96 0
v -32 -96 0
v -32 -64 0
v 0 -64 0
v -32 -96 0
v -64 -96 0
v -64 -64 0
v -32 -64 0
v -64 -96 0
v -96 -96 0
v -96 -64 0
v -64 -64 0
v -96 -96 0
v -128 -96 0
v -128 -64 0
v -96 -64 0
v -128 -96 0
v -160 -96 0
v -160 -64 0
v -128 -64 0
v -224 -96 0
v -256 -96 0
v -256 -64 0
v -224 -64 0
v -256 -96 0
v -288 -96 0
v -288 -64 0
v -256 -64 0
v -288 -96 0
v -320 -96 0
v -320 -64 0
v -288 -64 0
v -320 -96 0
v -352 -96 0
v -352 -64 0
v -320 -64 0
v -352 -96 0
v -384 -96 0
v -384 -64 0
v -352 -64 0
v 0 -128 0
v -32 -128 0
v -32 -96 0
v 0 -96 0
v -352 -128 0
v -384 -128 0
v -384 -96 0
v -352 -96 0
v 0 -160 0
v -32 -160 0
v -32 -128 0
v 0 -128 0
v -352 -160 0
v -384 -160 0
v -384 -128 0
v -352 -128 0
v 0 -192 0
v -32 -192 0
v -32 -160 0
v 0 -160 0
v -352 -192 0
v -384 -192 0
v -384 -160 0
v -352 -160 0
v 0 -224 0
v -32 -224 0
v -32 -192 0
v 0 -192 0
v -352 -224 0
v -384 -224 0
v -384 -192 0
v -352 -192 0
v 0 -256 0
v -32 -256 0
v -32 -224 0
v 0 -224 0
v -352 -256 0
v -384 -256 0
v -384 -224 0
v -352 -224 0
v 0 -288 0
v -32 -288 0
v -32 -256 0
v 0 -256 0
v -352 -288 0
v -384 -288 0
v -384 -256 0
v -352 -256 0
v 0 -320 0
v -32 -320 0
v -32 -288 0
v 0 -288 0
v -352 -320 0
v -384 -320 0
v -384 -288 0
v -352 -288 0
v 0 -352 0
v -32 -352 0
v -32 -320 0
v 0 -320 0
v -352 -352 0
v -384 -352 0
v -384 -320 0
v -352 -320 0
v 0 -384 0
v -32 -384 0
v -32 -352 0
v 0 -352 0
v -32 -384 0
v -64 -384 0
v -64 -352 0
v -32 -352 0
v -64 -384 0
v -96 -384 0
v -96 -352 0
v -64 -352 0
v -96 -384 0
v -128 -384 0
v -128 -352 0
v -96 -352 0
v -128 -384 0
v -160 -384 0
v -160 -352 0
v -128 -352 0
v -160 -384 0
v -192 -384 0
v -192 -352 0
v -160 -352 0
v -192 -384 0
v -224 -384 0
v -224 -352 0
v -192 -352 0
v -224 -384 0
v -256 -384 0
v -256 -352 0
v -224 -352 0
v -256 -384 0
v -288 -384 0
v -288 -352 0
v -256 -352 0
v -288 -384 0
v -320 -384 0
v -320 -352 0
v -288 -352 0
v -320 -384 0
v -352 -384 0
v -352 -352 0
v -320 -352 0
v -352 -384 0
v -384 -384 0
v -384 -352 0
v -352 -352 0

# Texture cooridinates (Count = 22)
vt 0.125 0.9375
vt 0.1875 0.9375
vt 0.1875 1
vt 0.125 1
vt 0.25 0.9375
vt 0.25 1
vt 0.3125 0.9375
vt 0.3125 1
vt 0.125 0.875
vt 0.1875 0.875
vt 0.25 0.875
vt 0.3125 0.875
vt 0.0625 0.6875
vt 0.125 0.6875
vt 0.125 0.75
vt 0.0625 0.75
vt 0.125 0.8125
vt 0.1875 0.8125
vt 0.25 0.8125
vt 0 0.6875
vt 0 0.75
vt 0.3125 0.8125

# Normal
vn 0 0 -1

# Mesh description
g livingroommap_mesh_0002

# Faces
f 1/1/1 2/2/1 3/3/1 4/4/1
f 5/2/1 6/5/1 7/6/1 8/3/1
f 9/2/1 10/5/1 11/6/1 12/3/1
f 13/2/1 14/5/1 15/6/1 16/3/1
f 17/2/1 18/5/1 19/6/1 20/3/1
f 21/2/1 22/5/1 23/6/1 24/3/1
f 25/2/1 26/5/1 27/6/1 28/3/1
f 29/2/1 30/5/1 31/6/1 32/3/1
f 33/2/1 34/5/1 35/6/1 36/3/1
f 37/5/1 38/7/1 39/8/1 40/6/1
f 41/9/1 42/10/1 43/2/1 44/1/1
f 45/10/1 46/11/1 47/5/1 48/2/1
f 49/10/1 50/11/1 51/5/1 52/2/1
f 53/10/1 54/11/1 55/5/1 56/2/1
f 57/10/1 58/11/1 59/5/1 60/2/1
f 61/10/1 62/11/1 63/5/1 64/2/1
f 65/10/1 66/11/1 67/5/1 68/2/1
f 69/10/1 70/11/1 71/5/1 72/2/1
f 73/10/1 74/11/1 75/5/1 76/2/1
f 77/11/1 78/12/1 79/7/1 80/5/1
f 81/9/1 82/10/1 83/2/1 84/1/1
f 85/10/1 86/11/1 87/5/1 88/2/1
f 89/10/1 90/11/1 91/5/1 92/2/1
f 93/10/1 94/11/1 95/5/1 96/2/1
f 97/10/1 98/11/1 99/5/1 100/2/1
f 101/10/1 102/11/1 103/5/1 104/2/1
f 105/10/1 106/11/1 107/5/1 108/2/1
f 109/10/1 110/11/1 111/5/1 112/2/1
f 113/10/1 114/11/1 115/5/1 116/2/1
f 117/11/1 118/12/1 119/7/1 120/5/1
f 121/9/1 122/10/1 123/2/1 124/1/1
f 125/11/1 126/12/1 127/7/1 128/5/1
f 129/9/1 130/10/1 131/2/1 132/1/1
f 133/11/1 134/12/1 135/7/1 136/5/1
f 137/13/1 138/14/1 139/15/1 140/16/1
f 141/11/1 142/12/1 143/7/1 144/5/1
f 145/13/1 146/14/1 147/15/1 148/16/1
f 149/11/1 150/12/1 151/7/1 152/5/1
f 153/9/1 154/10/1 155/2/1 156/1/1
f 157/11/1 158/12/1 159/7/1 160/5/1
f 161/9/1 162/10/1 163/2/1 164/1/1
f 165/11/1 166/12/1 167/7/1 168/5/1
f 169/9/1 170/10/1 171/2/1 172/1/1
f 173/11/1 174/12/1 175/7/1 176/5/1
f 177/9/1 178/10/1 179/2/1 180/1/1
f 181/11/1 182/12/1 183/7/1 184/5/1
f 185/17/1 186/18/1 187/10/1 188/9/1
f 189/18/1 190/19/1 191/11/1 192/10/1
f 193/18/1 194/19/1 195/11/1 196/10/1
f 197/18/1 198/19/1 199/11/1 200/10/1
f 201/18/1 202/19/1 203/11/1 204/10/1
f 205/20/1 206/13/1 207/16/1 208/21/1
f 209/20/1 210/13/1 211/16/1 212/21/1
f 213/18/1 214/19/1 215/11/1 216/10/1
f 217/18/1 218/19/1 219/11/1 220/10/1
f 221/18/1 222/19/1 223/11/1 224/10/1
f 225/18/1 226/19/1 227/11/1 228/10/1
f 229/19/1 230/22/1 231/12/1 232/11/1

