# Tiled2Unity generated file. Do not modify by hand.
# Wavefront file for 'EastSettlement_mesh_0004.obj'

# Vertices (Count = 588)
v -128 -128 0
v -160 -128 0
v -160 -96 0
v -128 -96 0
v -64 -160 0
v -96 -160 0
v -96 -128 0
v -64 -128 0
v -96 -160 0
v -128 -160 0
v -128 -128 0
v -96 -128 0
v -128 -160 0
v -160 -160 0
v -160 -128 0
v -128 -128 0
v -160 -160 0
v -192 -160 0
v -192 -128 0
v -160 -128 0
v -192 -160 0
v -224 -160 0
v -224 -128 0
v -192 -128 0
v -832 -160 0
v -864 -160 0
v -864 -128 0
v -832 -128 0
v -864 -160 0
v -896 -160 0
v -896 -128 0
v -864 -128 0
v -64 -192 0
v -96 -192 0
v -96 -160 0
v -64 -160 0
v -96 -192 0
v -128 -192 0
v -128 -160 0
v -96 -160 0
v -128 -192 0
v -160 -192 0
v -160 -160 0
v -128 -160 0
v -160 -192 0
v -192 -192 0
v -192 -160 0
v -160 -160 0
v -192 -192 0
v -224 -192 0
v -224 -160 0
v -192 -160 0
v -736 -192 0
v -768 -192 0
v -768 -160 0
v -736 -160 0
v -768 -192 0
v -800 -192 0
v -800 -160 0
v -768 -160 0
v -800 -192 0
v -832 -192 0
v -832 -160 0
v -800 -160 0
v -832 -192 0
v -864 -192 0
v -864 -160 0
v -832 -160 0
v -864 -192 0
v -896 -192 0
v -896 -160 0
v -864 -160 0
v -64 -224 0
v -96 -224 0
v -96 -192 0
v -64 -192 0
v -96 -224 0
v -128 -224 0
v -128 -192 0
v -96 -192 0
v -128 -224 0
v -160 -224 0
v -160 -192 0
v -128 -192 0
v -160 -224 0
v -192 -224 0
v -192 -192 0
v -160 -192 0
v -192 -224 0
v -224 -224 0
v -224 -192 0
v -192 -192 0
v -736 -224 0
v -768 -224 0
v -768 -192 0
v -736 -192 0
v -768 -224 0
v -800 -224 0
v -800 -192 0
v -768 -192 0
v -800 -224 0
v -832 -224 0
v -832 -192 0
v -800 -192 0
v -832 -224 0
v -864 -224 0
v -864 -192 0
v -832 -192 0
v -864 -224 0
v -896 -224 0
v -896 -192 0
v -864 -192 0
v -64 -256 0
v -96 -256 0
v -96 -224 0
v -64 -224 0
v -96 -256 0
v -128 -256 0
v -128 -224 0
v -96 -224 0
v -128 -256 0
v -160 -256 0
v -160 -224 0
v -128 -224 0
v -160 -256 0
v -192 -256 0
v -192 -224 0
v -160 -224 0
v -192 -256 0
v -224 -256 0
v -224 -224 0
v -192 -224 0
v -736 -256 0
v -768 -256 0
v -768 -224 0
v -736 -224 0
v -768 -256 0
v -800 -256 0
v -800 -224 0
v -768 -224 0
v -800 -256 0
v -832 -256 0
v -832 -224 0
v -800 -224 0
v -832 -256 0
v -864 -256 0
v -864 -224 0
v -832 -224 0
v -864 -256 0
v -896 -256 0
v -896 -224 0
v -864 -224 0
v -736 -288 0
v -768 -288 0
v -768 -256 0
v -736 -256 0
v -768 -288 0
v -800 -288 0
v -800 -256 0
v -768 -256 0
v -800 -288 0
v -832 -288 0
v -832 -256 0
v -800 -256 0
v -832 -288 0
v -864 -288 0
v -864 -256 0
v -832 -256 0
v -864 -288 0
v -896 -288 0
v -896 -256 0
v -864 -256 0
v -64 -416 0
v -96 -416 0
v -96 -384 0
v -64 -384 0
v 0 -448 0
v -32 -448 0
v -32 -416 0
v 0 -416 0
v -32 -448 0
v -64 -448 0
v -64 -416 0
v -32 -416 0
v -64 -448 0
v -96 -448 0
v -96 -416 0
v -64 -416 0
v -96 -448 0
v -128 -448 0
v -128 -416 0
v -96 -416 0
v -128 -448 0
v -160 -448 0
v -160 -416 0
v -128 -416 0
v 0 -480 0
v -32 -480 0
v -32 -448 0
v 0 -448 0
v -32 -480 0
v -64 -480 0
v -64 -448 0
v -32 -448 0
v -64 -480 0
v -96 -480 0
v -96 -448 0
v -64 -448 0
v -96 -480 0
v -128 -480 0
v -128 -448 0
v -96 -448 0
v -128 -480 0
v -160 -480 0
v -160 -448 0
v -128 -448 0
v -736 -480 0
v -768 -480 0
v -768 -448 0
v -736 -448 0
v -768 -480 0
v -800 -480 0
v -800 -448 0
v -768 -448 0
v -800 -480 0
v -832 -480 0
v -832 -448 0
v -800 -448 0
v -832 -480 0
v -864 -480 0
v -864 -448 0
v -832 -448 0
v -864 -480 0
v -896 -480 0
v -896 -448 0
v -864 -448 0
v 0 -512 0
v -32 -512 0
v -32 -480 0
v 0 -480 0
v -32 -512 0
v -64 -512 0
v -64 -480 0
v -32 -480 0
v -64 -512 0
v -96 -512 0
v -96 -480 0
v -64 -480 0
v -96 -512 0
v -128 -512 0
v -128 -480 0
v -96 -480 0
v -128 -512 0
v -160 -512 0
v -160 -480 0
v -128 -480 0
v -736 -512 0
v -768 -512 0
v -768 -480 0
v -736 -480 0
v -768 -512 0
v -800 -512 0
v -800 -480 0
v -768 -480 0
v -800 -512 0
v -832 -512 0
v -832 -480 0
v -800 -480 0
v -832 -512 0
v -864 -512 0
v -864 -480 0
v -832 -480 0
v -864 -512 0
v -896 -512 0
v -896 -480 0
v -864 -480 0
v 0 -544 0
v -32 -544 0
v -32 -512 0
v 0 -512 0
v -32 -544 0
v -64 -544 0
v -64 -512 0
v -32 -512 0
v -64 -544 0
v -96 -544 0
v -96 -512 0
v -64 -512 0
v -96 -544 0
v -128 -544 0
v -128 -512 0
v -96 -512 0
v -128 -544 0
v -160 -544 0
v -160 -512 0
v -128 -512 0
v -736 -544 0
v -768 -544 0
v -768 -512 0
v -736 -512 0
v -768 -544 0
v -800 -544 0
v -800 -512 0
v -768 -512 0
v -800 -544 0
v -832 -544 0
v -832 -512 0
v -800 -512 0
v -832 -544 0
v -864 -544 0
v -864 -512 0
v -832 -512 0
v -864 -544 0
v -896 -544 0
v -896 -512 0
v -864 -512 0
v -736 -576 0
v -768 -576 0
v -768 -544 0
v -736 -544 0
v -768 -576 0
v -800 -576 0
v -800 -544 0
v -768 -544 0
v -800 -576 0
v -832 -576 0
v -832 -544 0
v -800 -544 0
v -832 -576 0
v -864 -576 0
v -864 -544 0
v -832 -544 0
v -864 -576 0
v -896 -576 0
v -896 -544 0
v -864 -544 0
v -160 -640 0
v -192 -640 0
v -192 -608 0
v -160 -608 0
v -96 -672 0
v -128 -672 0
v -128 -640 0
v -96 -640 0
v -128 -672 0
v -160 -672 0
v -160 -640 0
v -128 -640 0
v -160 -672 0
v -192 -672 0
v -192 -640 0
v -160 -640 0
v -192 -672 0
v -224 -672 0
v -224 -640 0
v -192 -640 0
v -224 -672 0
v -256 -672 0
v -256 -640 0
v -224 -640 0
v -96 -704 0
v -128 -704 0
v -128 -672 0
v -96 -672 0
v -128 -704 0
v -160 -704 0
v -160 -672 0
v -128 -672 0
v -160 -704 0
v -192 -704 0
v -192 -672 0
v -160 -672 0
v -192 -704 0
v -224 -704 0
v -224 -672 0
v -192 -672 0
v -224 -704 0
v -256 -704 0
v -256 -672 0
v -224 -672 0
v -800 -704 0
v -832 -704 0
v -832 -672 0
v -800 -672 0
v -96 -736 0
v -128 -736 0
v -128 -704 0
v -96 -704 0
v -128 -736 0
v -160 -736 0
v -160 -704 0
v -128 -704 0
v -160 -736 0
v -192 -736 0
v -192 -704 0
v -160 -704 0
v -192 -736 0
v -224 -736 0
v -224 -704 0
v -192 -704 0
v -224 -736 0
v -256 -736 0
v -256 -704 0
v -224 -704 0
v -480 -736 0
v -512 -736 0
v -512 -704 0
v -480 -704 0
v -736 -736 0
v -768 -736 0
v -768 -704 0
v -736 -704 0
v -768 -736 0
v -800 -736 0
v -800 -704 0
v -768 -704 0
v -800 -736 0
v -832 -736 0
v -832 -704 0
v -800 -704 0
v -832 -736 0
v -864 -736 0
v -864 -704 0
v -832 -704 0
v -864 -736 0
v -896 -736 0
v -896 -704 0
v -864 -704 0
v -96 -768 0
v -128 -768 0
v -128 -736 0
v -96 -736 0
v -128 -768 0
v -160 -768 0
v -160 -736 0
v -128 -736 0
v -160 -768 0
v -192 -768 0
v -192 -736 0
v -160 -736 0
v -192 -768 0
v -224 -768 0
v -224 -736 0
v -192 -736 0
v -224 -768 0
v -256 -768 0
v -256 -736 0
v -224 -736 0
v -416 -768 0
v -448 -768 0
v -448 -736 0
v -416 -736 0
v -448 -768 0
v -480 -768 0
v -480 -736 0
v -448 -736 0
v -480 -768 0
v -512 -768 0
v -512 -736 0
v -480 -736 0
v -512 -768 0
v -544 -768 0
v -544 -736 0
v -512 -736 0
v -544 -768 0
v -576 -768 0
v -576 -736 0
v -544 -736 0
v -736 -768 0
v -768 -768 0
v -768 -736 0
v -736 -736 0
v -768 -768 0
v -800 -768 0
v -800 -736 0
v -768 -736 0
v -800 -768 0
v -832 -768 0
v -832 -736 0
v -800 -736 0
v -832 -768 0
v -864 -768 0
v -864 -736 0
v -832 -736 0
v -864 -768 0
v -896 -768 0
v -896 -736 0
v -864 -736 0
v -416 -800 0
v -448 -800 0
v -448 -768 0
v -416 -768 0
v -448 -800 0
v -480 -800 0
v -480 -768 0
v -448 -768 0
v -480 -800 0
v -512 -800 0
v -512 -768 0
v -480 -768 0
v -512 -800 0
v -544 -800 0
v -544 -768 0
v -512 -768 0
v -544 -800 0
v -576 -800 0
v -576 -768 0
v -544 -768 0
v -736 -800 0
v -768 -800 0
v -768 -768 0
v -736 -768 0
v -768 -800 0
v -800 -800 0
v -800 -768 0
v -768 -768 0
v -800 -800 0
v -832 -800 0
v -832 -768 0
v -800 -768 0
v -832 -800 0
v -864 -800 0
v -864 -768 0
v -832 -768 0
v -864 -800 0
v -896 -800 0
v -896 -768 0
v -864 -768 0
v -416 -832 0
v -448 -832 0
v -448 -800 0
v -416 -800 0
v -448 -832 0
v -480 -832 0
v -480 -800 0
v -448 -800 0
v -480 -832 0
v -512 -832 0
v -512 -800 0
v -480 -800 0
v -512 -832 0
v -544 -832 0
v -544 -800 0
v -512 -800 0
v -544 -832 0
v -576 -832 0
v -576 -800 0
v -544 -800 0
v -736 -832 0
v -768 -832 0
v -768 -800 0
v -736 -800 0
v -768 -832 0
v -800 -832 0
v -800 -800 0
v -768 -800 0
v -800 -832 0
v -832 -832 0
v -832 -800 0
v -800 -800 0
v -832 -832 0
v -864 -832 0
v -864 -800 0
v -832 -800 0
v -864 -832 0
v -896 -832 0
v -896 -800 0
v -864 -800 0
v -416 -864 0
v -448 -864 0
v -448 -832 0
v -416 -832 0
v -448 -864 0
v -480 -864 0
v -480 -832 0
v -448 -832 0
v -480 -864 0
v -512 -864 0
v -512 -832 0
v -480 -832 0
v -512 -864 0
v -544 -864 0
v -544 -832 0
v -512 -832 0
v -544 -864 0
v -576 -864 0
v -576 -832 0
v -544 -832 0

# Texture cooridinates (Count = 98)
vt 0.25 0.6875
vt 0.3125 0.6875
vt 0.3125 0.75
vt 0.25 0.75
vt 0.125 0.9375
vt 0.1875 0.9375
vt 0.1875 1
vt 0.125 1
vt 0.25 0.9375
vt 0.25 1
vt 0.25 0.625
vt 0.3125 0.625
vt 0.3125 0.9375
vt 0.375 0.9375
vt 0.375 1
vt 0.3125 1
vt 0.4375 0.9375
vt 0.4375 1
vt 0.75 0.9375
vt 0.8125 0.9375
vt 0.8125 1
vt 0.75 1
vt 0.875 0.9375
vt 0.875 1
vt 0.125 0.875
vt 0.1875 0.875
vt 0.25 0.875
vt 0.3125 0.875
vt 0.375 0.875
vt 0.4375 0.875
vt 0.5625 0.9375
vt 0.625 0.9375
vt 0.625 1
vt 0.5625 1
vt 0.6875 0.9375
vt 0.6875 1
vt 0.125 0.8125
vt 0.1875 0.8125
vt 0.25 0.8125
vt 0.3125 0.8125
vt 0.375 0.8125
vt 0.4375 0.8125
vt 0.5625 0.875
vt 0.625 0.875
vt 0.6875 0.875
vt 0.75 0.875
vt 0.8125 0.875
vt 0.875 0.875
vt 0.125 0.75
vt 0.1875 0.75
vt 0.375 0.75
vt 0.4375 0.75
vt 0.5625 0.8125
vt 0.625 0.8125
vt 0.6875 0.8125
vt 0.75 0.8125
vt 0.8125 0.8125
vt 0.875 0.8125
vt 0.5625 0.75
vt 0.625 0.75
vt 0.6875 0.75
vt 0.75 0.75
vt 0.8125 0.75
vt 0.875 0.75
vt 0.25 0.25
vt 0.3125 0.25
vt 0.3125 0.3125
vt 0.25 0.3125
vt 0.125 0.5
vt 0.1875 0.5
vt 0.1875 0.5625
vt 0.125 0.5625
vt 0.25 0.5
vt 0.25 0.5625
vt 0.25 0.1875
vt 0.3125 0.1875
vt 0.3125 0.5
vt 0.375 0.5
vt 0.375 0.5625
vt 0.3125 0.5625
vt 0.4375 0.5
vt 0.4375 0.5625
vt 0.125 0.4375
vt 0.1875 0.4375
vt 0.25 0.4375
vt 0.3125 0.4375
vt 0.375 0.4375
vt 0.4375 0.4375
vt 0.125 0.375
vt 0.1875 0.375
vt 0.25 0.375
vt 0.3125 0.375
vt 0.375 0.375
vt 0.4375 0.375
vt 0.125 0.3125
vt 0.1875 0.3125
vt 0.375 0.3125
vt 0.4375 0.3125

# Normal
vn 0 0 -1

# Mesh description
g EastSettlement_mesh_0004

# Faces
f 1/1/1 2/2/1 3/3/1 4/4/1
f 5/5/1 6/6/1 7/7/1 8/8/1
f 9/6/1 10/9/1 11/10/1 12/7/1
f 13/11/1 14/12/1 15/2/1 16/1/1
f 17/13/1 18/14/1 19/15/1 20/16/1
f 21/14/1 22/17/1 23/18/1 24/15/1
f 25/19/1 26/20/1 27/21/1 28/22/1
f 29/20/1 30/23/1 31/24/1 32/21/1
f 33/25/1 34/26/1 35/6/1 36/5/1
f 37/26/1 38/27/1 39/9/1 40/6/1
f 41/27/1 42/28/1 43/13/1 44/9/1
f 45/28/1 46/29/1 47/14/1 48/13/1
f 49/29/1 50/30/1 51/17/1 52/14/1
f 53/31/1 54/32/1 55/33/1 56/34/1
f 57/32/1 58/35/1 59/36/1 60/33/1
f 61/35/1 62/19/1 63/22/1 64/36/1
f 65/19/1 66/20/1 67/21/1 68/22/1
f 69/20/1 70/23/1 71/24/1 72/21/1
f 73/37/1 74/38/1 75/26/1 76/25/1
f 77/38/1 78/39/1 79/27/1 80/26/1
f 81/39/1 82/40/1 83/28/1 84/27/1
f 85/40/1 86/41/1 87/29/1 88/28/1
f 89/41/1 90/42/1 91/30/1 92/29/1
f 93/43/1 94/44/1 95/32/1 96/31/1
f 97/44/1 98/45/1 99/35/1 100/32/1
f 101/45/1 102/46/1 103/19/1 104/35/1
f 105/46/1 106/47/1 107/20/1 108/19/1
f 109/47/1 110/48/1 111/23/1 112/20/1
f 113/49/1 114/50/1 115/38/1 116/37/1
f 117/50/1 118/4/1 119/39/1 120/38/1
f 121/4/1 122/3/1 123/40/1 124/39/1
f 125/3/1 126/51/1 127/41/1 128/40/1
f 129/51/1 130/52/1 131/42/1 132/41/1
f 133/53/1 134/54/1 135/44/1 136/43/1
f 137/54/1 138/55/1 139/45/1 140/44/1
f 141/55/1 142/56/1 143/46/1 144/45/1
f 145/56/1 146/57/1 147/47/1 148/46/1
f 149/57/1 150/58/1 151/48/1 152/47/1
f 153/59/1 154/60/1 155/54/1 156/53/1
f 157/60/1 158/61/1 159/55/1 160/54/1
f 161/61/1 162/62/1 163/56/1 164/55/1
f 165/62/1 166/63/1 167/57/1 168/56/1
f 169/63/1 170/64/1 171/58/1 172/57/1
f 173/65/1 174/66/1 175/67/1 176/68/1
f 177/69/1 178/70/1 179/71/1 180/72/1
f 181/70/1 182/73/1 183/74/1 184/71/1
f 185/75/1 186/76/1 187/66/1 188/65/1
f 189/77/1 190/78/1 191/79/1 192/80/1
f 193/78/1 194/81/1 195/82/1 196/79/1
f 197/83/1 198/84/1 199/70/1 200/69/1
f 201/84/1 202/85/1 203/73/1 204/70/1
f 205/85/1 206/86/1 207/77/1 208/73/1
f 209/86/1 210/87/1 211/78/1 212/77/1
f 213/87/1 214/88/1 215/81/1 216/78/1
f 217/69/1 218/70/1 219/71/1 220/72/1
f 221/70/1 222/73/1 223/74/1 224/71/1
f 225/73/1 226/77/1 227/80/1 228/74/1
f 229/77/1 230/78/1 231/79/1 232/80/1
f 233/78/1 234/81/1 235/82/1 236/79/1
f 237/89/1 238/90/1 239/84/1 240/83/1
f 241/90/1 242/91/1 243/85/1 244/84/1
f 245/91/1 246/92/1 247/86/1 248/85/1
f 249/92/1 250/93/1 251/87/1 252/86/1
f 253/93/1 254/94/1 255/88/1 256/87/1
f 257/83/1 258/84/1 259/70/1 260/69/1
f 261/84/1 262/85/1 263/73/1 264/70/1
f 265/85/1 266/86/1 267/77/1 268/73/1
f 269/86/1 270/87/1 271/78/1 272/77/1
f 273/87/1 274/88/1 275/81/1 276/78/1
f 277/95/1 278/96/1 279/90/1 280/89/1
f 281/96/1 282/68/1 283/91/1 284/90/1
f 285/68/1 286/67/1 287/92/1 288/91/1
f 289/67/1 290/97/1 291/93/1 292/92/1
f 293/97/1 294/98/1 295/94/1 296/93/1
f 297/89/1 298/90/1 299/84/1 300/83/1
f 301/90/1 302/91/1 303/85/1 304/84/1
f 305/91/1 306/92/1 307/86/1 308/85/1
f 309/92/1 310/93/1 311/87/1 312/86/1
f 313/93/1 314/94/1 315/88/1 316/87/1
f 317/95/1 318/96/1 319/90/1 320/89/1
f 321/96/1 322/68/1 323/91/1 324/90/1
f 325/68/1 326/67/1 327/92/1 328/91/1
f 329/67/1 330/97/1 331/93/1 332/92/1
f 333/97/1 334/98/1 335/94/1 336/93/1
f 337/1/1 338/2/1 339/3/1 340/4/1
f 341/5/1 342/6/1 343/7/1 344/8/1
f 345/6/1 346/9/1 347/10/1 348/7/1
f 349/11/1 350/12/1 351/2/1 352/1/1
f 353/13/1 354/14/1 355/15/1 356/16/1
f 357/14/1 358/17/1 359/18/1 360/15/1
f 361/25/1 362/26/1 363/6/1 364/5/1
f 365/26/1 366/27/1 367/9/1 368/6/1
f 369/27/1 370/28/1 371/13/1 372/9/1
f 373/28/1 374/29/1 375/14/1 376/13/1
f 377/29/1 378/30/1 379/17/1 380/14/1
f 381/1/1 382/2/1 383/3/1 384/4/1
f 385/37/1 386/38/1 387/26/1 388/25/1
f 389/38/1 390/39/1 391/27/1 392/26/1
f 393/39/1 394/40/1 395/28/1 396/27/1
f 397/40/1 398/41/1 399/29/1 400/28/1
f 401/41/1 402/42/1 403/30/1 404/29/1
f 405/1/1 406/2/1 407/3/1 408/4/1
f 409/5/1 410/6/1 411/7/1 412/8/1
f 413/6/1 414/9/1 415/10/1 416/7/1
f 417/11/1 418/12/1 419/2/1 420/1/1
f 421/13/1 422/14/1 423/15/1 424/16/1
f 425/14/1 426/17/1 427/18/1 428/15/1
f 429/49/1 430/50/1 431/38/1 432/37/1
f 433/50/1 434/4/1 435/39/1 436/38/1
f 437/4/1 438/3/1 439/40/1 440/39/1
f 441/3/1 442/51/1 443/41/1 444/40/1
f 445/51/1 446/52/1 447/42/1 448/41/1
f 449/5/1 450/6/1 451/7/1 452/8/1
f 453/6/1 454/9/1 455/10/1 456/7/1
f 457/11/1 458/12/1 459/2/1 460/1/1
f 461/13/1 462/14/1 463/15/1 464/16/1
f 465/14/1 466/17/1 467/18/1 468/15/1
f 469/25/1 470/26/1 471/6/1 472/5/1
f 473/26/1 474/27/1 475/9/1 476/6/1
f 477/27/1 478/28/1 479/13/1 480/9/1
f 481/28/1 482/29/1 483/14/1 484/13/1
f 485/29/1 486/30/1 487/17/1 488/14/1
f 489/25/1 490/26/1 491/6/1 492/5/1
f 493/26/1 494/27/1 495/9/1 496/6/1
f 497/27/1 498/28/1 499/13/1 500/9/1
f 501/28/1 502/29/1 503/14/1 504/13/1
f 505/29/1 506/30/1 507/17/1 508/14/1
f 509/37/1 510/38/1 511/26/1 512/25/1
f 513/38/1 514/39/1 515/27/1 516/26/1
f 517/39/1 518/40/1 519/28/1 520/27/1
f 521/40/1 522/41/1 523/29/1 524/28/1
f 525/41/1 526/42/1 527/30/1 528/29/1
f 529/37/1 530/38/1 531/26/1 532/25/1
f 533/38/1 534/39/1 535/27/1 536/26/1
f 537/39/1 538/40/1 539/28/1 540/27/1
f 541/40/1 542/41/1 543/29/1 544/28/1
f 545/41/1 546/42/1 547/30/1 548/29/1
f 549/49/1 550/50/1 551/38/1 552/37/1
f 553/50/1 554/4/1 555/39/1 556/38/1
f 557/4/1 558/3/1 559/40/1 560/39/1
f 561/3/1 562/51/1 563/41/1 564/40/1
f 565/51/1 566/52/1 567/42/1 568/41/1
f 569/49/1 570/50/1 571/38/1 572/37/1
f 573/50/1 574/4/1 575/39/1 576/38/1
f 577/4/1 578/3/1 579/40/1 580/39/1
f 581/3/1 582/51/1 583/41/1 584/40/1
f 585/51/1 586/52/1 587/42/1 588/41/1

